<?xml version="1.0" encoding="utf-8"?>
<!-- Generator: Adobe Illustrator 22.1.0, SVG Export Plug-In . SVG Version: 6.00 Build 0)  -->
<svg version="1.1" id="圖層_2_1_" xmlns="http://www.w3.org/2000/svg" xmlns:xlink="http://www.w3.org/1999/xlink" x="0px"
	 y="0px" viewBox="0 0 1001.8 701.4" style="enable-background:new 0 0 1001.8 701.4;" xml:space="preserve">
<style type="text/css">
	.st0{opacity:0.5;}
	.st1{fill:#B56E45;}
</style>
<title>bg-linear</title>
<g class="st0">
	<path class="st1" d="M456,181.1c0.6,0.3,1,1,0.9,1.7c0.1,0.6,0.2,1.1,0.5,1.6c0.3,0.5,0.8,0.9,1.3,1.1h0.1c0.4-0.5,1.1-0.7,1.7-0.4
		c0.8,0.2,1.7,0.5,2.4,1h0.2c0.7-0.4,1.6-0.6,2.4-0.5c1-0.2,2.1-0.1,3.1,0.1l0.7,0.3c0.1,0.1,0.2,0,0.3-0.1c0.5-0.4,1-0.7,1.6-0.8
		c0.8-0.2,1.6,0,2.1,0.6c0.8-0.4,1.4-0.9,1.9-1.6l0.8-1.4c0.3-0.4,0.7-0.7,1.2-0.9c0.5-0.2,1-0.1,1.3,0.3c0.3,0.3,0.6,0.8,0.8,1.2
		c0.6,1.1,0.9,2.3,1,3.5h0.1v1.3c0,0.6-0.1,1.2-0.4,1.7c-0.3,1.4-1,2.7-1.9,3.7c-0.1,0.1-0.1,0.2-0.1,0.3c0.3,0.8,0.1,1.8-0.6,2.4
		c-0.8,0.8-1.6,1.4-2.6,1.9c-1,0.5-2.2,0.7-3.3,0.5l-0.3,0.2c-0.1,0-0.7,0.7-1.1,0.9c-0.7,0.5-1.5,0.9-2.4,1L466,201h-2.4l-1.9-0.5
		c-0.7-0.2-1.1-0.7-1.3-1.4h-0.1c-0.8,0-1.5-0.2-2.2-0.6c-1-0.4-1.9-0.9-2.8-1.6c-1-0.7-1.5-2-1.1-3.2c0.1-0.4,0-0.8-0.3-1.1
		c-0.7-0.7-1.2-1.6-1.4-2.6l-0.3-1.6c0.1-0.3,0.1-0.7,0-1c0-0.2,0.1-0.4,0.1-0.6c0.1-0.9,0.4-1.8,0.7-2.6c0.5-1.2,1.4-2.3,2.6-2.9
		L456,181.1z M460.9,197.1v1.5c0,0.6,0.4,1.1,1,1.3c0.8,0.3,1.6,0.5,2.5,0.5h2.5c0.9-0.1,1.8-0.4,2.6-0.8c1.1-0.5,1.7-1.6,1.5-2.8
		c-0.1-1-0.2-2-0.4-3l-0.9-5.8c-0.1-1-0.5-1.7-1.5-1.8h-0.7c-1-0.1-2,0-3,0.2c-1,0.2-1.8,1-2.1,2c-0.2,0.9-0.5,1.9-0.7,2.8
		C461.3,193.2,461,195.2,460.9,197.1L460.9,197.1z M471.5,198.1h1c0.7-0.1,1.4-0.3,2-0.6c0.8-0.4,1.6-0.9,2.3-1.6
		c0.7-0.6,1-1.7,0.5-2.5l0,0c-0.4-0.9-0.9-1.8-1.5-2.7c-0.5-1-1.1-2-1.8-3c-0.6-1-0.8-1.1-1.2-1.7c-0.3-0.3-0.7-0.4-1.1-0.3
		c-0.6,0.1-1.1,0.3-1.6,0.7c-0.1,0.1-0.2,0.2-0.1,0.3c0.1,0.3,0.2,0.6,0.3,0.9l0.5,3.1c0.3,1.4,0.5,2.8,0.7,4.2
		C471.7,196,471.7,197,471.5,198.1z M462.5,186.5l-0.5-0.3l-1.3-0.6c-0.6-0.3-1.4-0.1-1.7,0.5l0,0l-3.1,5c-0.4,0.7-0.7,1.4-1,2.1
		c-0.5,1.1-0.1,2.5,1,3.1c1,0.8,2.2,1.4,3.4,1.9h0.8c0.1,0.1,0.1-0.1,0.2-0.3s-0.1-1.1-0.1-1.7c0.2-2.1,0.7-4.2,1.1-6.3
		c0.2-1.2,0.6-2.4,1.2-3.5V186.5z M477.8,193l0.3-0.5c0.6-0.9,1.1-1.9,1.4-3c0.3-0.9,0.4-1.9,0.2-2.8c-0.1-1.1-0.4-2.3-0.9-3.3
		c-0.1-0.3-0.2-0.5-0.4-0.7c-0.2-0.4-0.8-0.6-1.2-0.4c-0.1,0.1-0.3,0.2-0.4,0.4c-0.3,0.4-0.6,0.8-0.8,1.2c-0.5,0.9-1.2,1.6-2.1,2.1
		l-0.2,0.2C475.3,188.3,476.7,190.6,477.8,193z M458.3,186l-0.4-0.3c-0.8-0.3-1.4-1.1-1.4-2l-0.3-1.4c0-0.4-0.3-0.5-0.6-0.4
		c-0.4,0.1-0.7,0.3-0.9,0.6l-1.2,2.1c-0.4,1.1-0.6,2.2-0.6,3.4c0,1,0.2,2.1,0.7,3c0.2,0.6,0.6,1,1.1,1.3
		C455.8,190.1,457,188,458.3,186z"/>
	<path class="st1" d="M468,197.5l0.2-0.3l0.7-1c0-0.2,0.2-0.3,0.4-0.2s0.3,0.3,0.1,0.6l-0.7,1.1l-0.4,0.2L468,197.5z"/>
	<path class="st1" d="M468.3,195.6h0.2c0.1,0.1,0.1,0.3,0,0.4l-0.5,0.4h-0.3c-0.1-0.1-0.1-0.2-0.1-0.3
		C467.8,195.8,468,195.7,468.3,195.6z"/>
</g>
<g class="st0">
	<path class="st1" d="M732.7,111.2c0.6,0.3,1,1,0.9,1.7c0,0.5,0.2,1,0.4,1.5c0.4,0.5,0.8,0.9,1.4,1.2h0.1c0.4-0.5,1.1-0.7,1.7-0.5
		c0.8,0.2,1.6,0.6,2.4,1h0.2c0.7-0.4,1.6-0.6,2.4-0.6c1-0.1,2.1,0,3.1,0.2l0.7,0.2h0.3c0.5-0.4,1-0.7,1.6-0.8c0.8-0.2,1.6,0,2.1,0.6
		c0.7-0.4,1.4-0.9,1.9-1.6l0.8-1.4c0.3-0.5,0.7-0.8,1.2-1c0.5-0.1,1,0,1.3,0.4c0.3,0.3,0.6,0.7,0.8,1.1c0.6,1.1,0.9,2.3,1,3.5v1.4
		c0,0.6-0.1,1.2-0.4,1.8c-0.3,1.4-1,2.6-1.9,3.7c-0.1,0.1-0.1,0.2-0.1,0.3c0.3,0.8,0.1,1.8-0.6,2.4c-0.8,0.7-1.7,1.4-2.7,1.9
		c-1,0.5-2.1,0.6-3.2,0.5c-0.1-0.1-0.2,0.1-0.3,0.1l-1.1,1c-0.7,0.5-1.6,0.8-2.5,0.9l-1.6,0.4h-2.4c-0.7-0.1-1.3-0.2-1.9-0.5
		c-0.7-0.1-1.2-0.6-1.3-1.3h-0.2c-0.7,0-1.5-0.2-2.1-0.6c-1-0.5-1.9-1-2.7-1.7c-1-0.7-1.4-2-1.1-3.2c0.1-0.4,0-0.8-0.3-1.1
		c-0.7-0.7-1.2-1.6-1.4-2.6l-0.3-1.6v-1c0-0.2,0.1-0.4,0.1-0.6c0.1-0.9,0.4-1.8,0.7-2.6c0.5-1.3,1.4-2.3,2.6-3L732.7,111.2z
		 M737.6,127.2v1.5c0,0.6,0.4,1.1,1,1.3c0.8,0.3,1.6,0.4,2.5,0.4h2.5c0.9-0.1,1.8-0.3,2.6-0.7c1.1-0.5,1.7-1.6,1.5-2.8
		c-0.1-1-0.2-2-0.4-3.1l-0.9-5.8c-0.1-0.9-0.5-1.6-1.5-1.7h-0.7c-1,0-2,0.1-3,0.3c-1.1,0.1-1.9,0.9-2.1,2l-0.7,2.8
		c-0.4,2-0.7,4-0.8,6L737.6,127.2z M748.2,128.1h1c0.7-0.1,1.4-0.3,2-0.6c0.8-0.5,1.6-1,2.3-1.6c0.7-0.6,1-1.7,0.5-2.5l0,0
		c-0.4-1-0.9-1.9-1.5-2.8l-1.8-3c-0.4-0.6-0.8-1.1-1.3-1.6c-0.3-0.3-0.7-0.4-1.1-0.4c-0.5,0.1-1.1,0.4-1.5,0.7
		c-0.1,0.2-0.2,0.3-0.1,0.4l0.3,0.8l0.5,3.1c0.3,1.4,0.5,2.9,0.6,4.3C748.4,125.9,748.4,127,748.2,128.1L748.2,128.1z M739.2,116.6
		l-0.5-0.4l-1.3-0.5c-0.6-0.3-1.4-0.1-1.7,0.5l0,0l-3.1,5c-0.4,0.7-0.7,1.4-1,2.2c-0.5,1.1-0.1,2.4,0.9,3.1c1.1,0.7,2.3,1.4,3.5,1.9
		h0.7c0.2,0,0.2-0.1,0.2-0.3c0.1-0.6,0.1-1.1,0-1.7c0.2-2.2,0.7-4.3,1-6.3C738.1,118.9,738.6,117.7,739.2,116.6L739.2,116.6z
		 M754.4,123.1l0.4-0.5c0.6-0.9,1.1-1.9,1.4-3c0.3-0.9,0.4-1.9,0.2-2.9c-0.2-1.1-0.5-2.2-0.9-3.3l-0.4-0.6c-0.2-0.4-0.8-0.6-1.2-0.4
		l-0.4,0.4c-0.3,0.3-0.6,0.8-0.8,1.2c-0.5,0.9-1.2,1.6-2.1,2.1h-0.2c1.6,2.1,3,4.4,4,6.9V123.1z M735,116.1l-0.4-0.3
		c-0.8-0.4-1.4-1.1-1.5-2c0-0.5-0.1-0.9-0.2-1.4c0-0.3-0.2-0.5-0.5-0.5c0,0-0.1,0-0.1,0c-0.4,0.1-0.7,0.3-0.9,0.6
		c-0.5,0.7-0.9,1.4-1.2,2.2c-0.4,1.1-0.6,2.2-0.6,3.3c0,1.1,0.2,2.1,0.7,3.1c0.2,0.5,0.6,1,1.1,1.3
		C732.2,120.1,733.7,118.2,735,116.1z"/>
	<path class="st1" d="M744.7,127.6c0.1-0.1,0.1-0.3,0.2-0.3l0.7-1c0-0.2,0.2-0.3,0.4-0.2s0.2,0.3,0.1,0.5l-0.8,1.2H745L744.7,127.6z
		"/>
	<path class="st1" d="M745,125.7h0.2c0.1,0.1,0.1,0.2,0,0.3c0,0,0,0,0,0l-0.5,0.5h-0.3l-0.2-0.3C744.4,126,744.7,125.8,745,125.7z"
		/>
</g>
<g class="st0">
	<path class="st1" d="M966.1,108.7c0.6,0.4,1,1.1,0.9,1.8c0,0.5,0.2,1,0.4,1.5c0.4,0.5,0.9,0.9,1.4,1.2h0.1c0.4-0.5,1.1-0.7,1.7-0.5
		c0.8,0.2,1.7,0.5,2.4,1h0.2c0.8-0.3,1.6-0.5,2.4-0.5c1-0.1,2.1-0.1,3.1,0.1l0.7,0.3c0.1,0.1,0.2,0,0.3,0c0.5-0.4,1-0.7,1.6-0.9
		c0.8-0.1,1.6,0.1,2.1,0.7c0.7-0.4,1.4-1,1.9-1.7l0.8-1.3c0.3-0.5,0.7-0.8,1.2-1c0.5-0.2,1,0,1.3,0.4c0.3,0.3,0.6,0.7,0.8,1.1
		c0.6,1.1,0.9,2.3,1,3.5c0.1,0,0.1,0.1,0.1,0.2v1.2c0,0.6-0.1,1.2-0.4,1.7c-0.3,1.4-1,2.7-1.9,3.8v0.2c0.3,0.8,0.1,1.8-0.6,2.4
		c-0.8,0.8-1.7,1.5-2.7,1.9c-1,0.5-2.1,0.7-3.2,0.6c-0.1-0.1-0.2,0-0.3,0.1l-1.1,1c-0.7,0.5-1.6,0.8-2.5,0.9l-1.6,0.3h-2.4l-1.9-0.5
		c-0.7-0.1-1.2-0.6-1.3-1.3h-0.2c-0.7,0-1.5-0.2-2.1-0.6c-1-0.4-1.9-1-2.8-1.6c-1-0.8-1.4-2-1.1-3.2c0.1-0.4,0-0.9-0.3-1.2
		c-0.7-0.7-1.2-1.6-1.4-2.5l-0.3-1.6v-1c0-0.2,0.1-0.5,0.1-0.6c0.1-0.9,0.4-1.8,0.7-2.6c0.5-1.3,1.4-2.3,2.6-3L966.1,108.7z
		 M971,124.8v1.4c0,0.6,0.4,1.1,1,1.3c0.8,0.4,1.6,0.5,2.5,0.5h2.5c0.9-0.1,1.8-0.3,2.6-0.8c1.1-0.4,1.7-1.6,1.5-2.7
		c-0.1-1-0.2-2.1-0.4-3.1l-0.9-5.8c0-0.9-0.6-1.7-1.5-1.8h-0.7c-1,0-2,0.1-3,0.3c-1,0.1-1.9,0.9-2.1,1.9c-0.2,1-0.5,2-0.7,2.9
		c-0.4,2-0.7,4-0.8,6L971,124.8z M981.6,125.7h1c0.7-0.1,1.4-0.3,2-0.7c0.8-0.4,1.6-0.9,2.3-1.5c0.7-0.6,1-1.7,0.5-2.5v-0.2
		c-0.5-0.9-0.9-1.8-1.5-2.7s-1.1-2-1.8-3c-0.4-0.6-0.8-1.1-1.2-1.6c-0.3-0.3-0.7-0.4-1.1-0.4c-0.6,0.1-1.1,0.4-1.6,0.7
		c-0.1,0.1-0.2,0.3-0.1,0.4l0.3,0.8l0.5,3.1c0.3,1.4,0.5,2.8,0.7,4.2C981.8,123.4,981.8,124.6,981.6,125.7z M972.6,114.1l-0.5-0.3
		l-1.3-0.5c-0.6-0.3-1.3-0.2-1.6,0.4c0,0,0,0.1-0.1,0.1l0,0l-3.1,5c-0.4,0.7-0.7,1.4-1,2.2c-0.5,1.1-0.1,2.4,1,3
		c1,0.8,2.2,1.5,3.4,1.9h0.7c0.2,0,0.2-0.1,0.3-0.3s-0.1-1.2-0.1-1.8c0.2-2.1,0.7-4.2,1-6.2c0.2-1.3,0.7-2.5,1.3-3.6L972.6,114.1z
		 M987.9,120.6l0.3-0.4c0.6-0.9,1.1-1.9,1.4-3c0.3-0.9,0.4-1.9,0.2-2.9c-0.1-1.1-0.4-2.3-0.9-3.3c-0.1-0.2-0.2-0.4-0.4-0.6
		c-0.1-0.4-0.6-0.6-1-0.5c-0.1,0-0.1,0.1-0.2,0.1l-0.4,0.3c-0.3,0.4-0.6,0.8-0.8,1.2c-0.5,0.9-1.2,1.6-2.1,2.2h-0.2
		c1.6,2.1,3,4.4,4.1,6.8L987.9,120.6z M968.4,113.6l-0.4-0.2c-0.8-0.4-1.3-1.1-1.5-2c0-0.5-0.1-1-0.2-1.5c0-0.2-0.1-0.4-0.3-0.5
		c-0.1,0-0.2,0-0.3,0.1c-0.4,0.1-0.7,0.3-0.9,0.6l-1.2,2.2c-0.4,1.1-0.6,2.2-0.6,3.3c0,1.1,0.2,2.1,0.7,3.1c0.2,0.5,0.6,1,1.1,1.3
		C965.8,117.8,967,115.6,968.4,113.6L968.4,113.6z"/>
	<path class="st1" d="M978.1,125.2c0.1-0.1,0.1-0.3,0.2-0.3l0.7-1c0-0.2,0.2-0.3,0.4-0.2s0.2,0.3,0.1,0.5l-0.7,1.1l-0.4,0.2
		L978.1,125.2z"/>
	<path class="st1" d="M978.4,123.3c0.1,0,0.2,0,0.2,0.1c0.1,0.1,0.1,0.2,0,0.3c0,0,0,0,0,0l-0.5,0.5h-0.3c-0.1-0.1-0.1-0.2-0.1-0.3
		C977.8,123.6,978.1,123.4,978.4,123.3z"/>
</g>
<g class="st0">
	<path class="st1" d="M966.1,580.1c0.6,0.3,1,1,0.9,1.7c0,0.5,0.2,1,0.4,1.5c0.4,0.5,0.9,0.9,1.4,1.2h0.1c0.4-0.5,1.1-0.7,1.7-0.5
		c0.8,0.2,1.6,0.6,2.4,1h0.2c0.7-0.4,1.6-0.6,2.4-0.6c1-0.1,2.1,0,3.1,0.2l0.7,0.2c0.1,0.1,0.2,0.1,0.3,0c0,0,0,0,0,0
		c0.5-0.4,1-0.7,1.6-0.8c0.8-0.2,1.6,0,2.1,0.6c0.7-0.4,1.4-0.9,1.9-1.6l0.8-1.4c0.3-0.5,0.7-0.8,1.2-1c0.5-0.1,1,0,1.3,0.4
		c0.3,0.3,0.6,0.7,0.8,1.1c0.6,1.1,0.9,2.3,1,3.6c0.1,0,0.1,0,0.1,0.1v1.2c0,0.6-0.1,1.2-0.4,1.8c-0.3,1.4-1,2.6-1.9,3.7
		c-0.1,0.1-0.1,0.2-0.1,0.3c0.3,0.8,0.1,1.8-0.6,2.4c-0.8,0.7-1.7,1.4-2.7,1.9c-1,0.5-2.1,0.6-3.2,0.5c-0.1-0.1-0.2,0.1-0.3,0.1
		l-1.1,1c-0.7,0.5-1.6,0.8-2.5,0.9l-1.6,0.4h-2.4c-0.7-0.1-1.3-0.2-1.9-0.5c-0.7-0.1-1.2-0.6-1.3-1.3h-0.2c-0.7,0-1.5-0.2-2.1-0.6
		c-1-0.4-1.9-0.9-2.8-1.6c-1-0.7-1.4-2-1.1-3.2c0.1-0.4,0-0.8-0.3-1.1c-0.7-0.7-1.2-1.6-1.4-2.6l-0.3-1.6v-1c0-0.2,0.1-0.4,0.1-0.6
		c0.1-0.9,0.4-1.8,0.7-2.6c0.5-1.3,1.4-2.3,2.6-3L966.1,580.1z M971,596.1v1.5c0,0.6,0.4,1.1,1,1.3c0.8,0.3,1.6,0.4,2.5,0.4h2.5
		c0.9-0.1,1.8-0.3,2.6-0.7c1.1-0.5,1.7-1.6,1.5-2.8c-0.1-1-0.2-2-0.4-3l-0.9-5.9c-0.1-0.9-0.5-1.6-1.5-1.7h-0.7c-1,0-2,0.1-3,0.3
		c-1.1,0.1-1.9,0.9-2.1,2l-0.7,2.8c-0.4,2-0.7,4-0.8,6L971,596.1z M981.6,597h1c0.7-0.1,1.4-0.3,2-0.6c0.8-0.4,1.6-1,2.3-1.6
		c0.7-0.6,1-1.7,0.5-2.5l0,0c-0.4-1-0.9-1.9-1.5-2.8c-0.5-0.8-1.1-2-1.8-3c-0.4-0.6-0.8-1.1-1.2-1.6c-0.3-0.3-0.7-0.4-1.1-0.4
		c-0.6,0.1-1.1,0.4-1.6,0.7c-0.1,0.2-0.2,0.3-0.1,0.4l0.3,0.8l0.5,3.1c0.3,1.4,0.5,2.8,0.7,4.3C981.8,594.9,981.8,595.9,981.6,597z
		 M972.6,585.5l-0.5-0.4l-1.3-0.5c-0.6-0.3-1.4-0.1-1.7,0.5l0,0l-3.1,5c-0.4,0.7-0.7,1.4-1,2.2c-0.5,1.1-0.1,2.5,1,3.1
		c1.1,0.8,2.2,1.4,3.4,1.9h0.7c0.2,0,0.2-0.1,0.3-0.3s-0.1-1.2-0.1-1.7c0.2-2.2,0.7-4.2,1-6.3C971.5,587.8,972,586.6,972.6,585.5
		L972.6,585.5z M987.9,592l0.3-0.5c0.6-0.9,1.1-1.9,1.4-3c0.3-0.9,0.4-1.9,0.2-2.8c-0.1-1.2-0.4-2.3-0.9-3.4
		c-0.1-0.2-0.2-0.4-0.4-0.6c-0.2-0.4-0.8-0.6-1.2-0.4c-0.1,0.1-0.3,0.2-0.4,0.4c-0.3,0.3-0.6,0.8-0.8,1.2c-0.5,0.9-1.2,1.6-2.1,2.1
		l-0.2,0.2C985.5,587.3,986.8,589.6,987.9,592z M968.4,585l-0.4-0.3c-0.8-0.4-1.3-1.1-1.5-2c0-0.5-0.1-0.9-0.2-1.4
		c0-0.3-0.2-0.5-0.5-0.5c0,0-0.1,0-0.1,0c-0.4,0.1-0.7,0.3-0.9,0.6l-1.2,2.2c-0.4,1.1-0.6,2.2-0.6,3.3c0,1.1,0.2,2.1,0.7,3.1
		c0.2,0.5,0.6,1,1.1,1.3C965.7,589,967.2,587.1,968.4,585L968.4,585z"/>
	<path class="st1" d="M978.1,596.5l0.2-0.3l0.7-1c0-0.2,0.2-0.3,0.4-0.2s0.2,0.3,0.1,0.5l-0.7,1.2h-0.4L978.1,596.5z"/>
	<path class="st1" d="M978.4,594.6h0.2c0.1,0.1,0.1,0.2,0,0.3c0,0,0,0,0,0c-0.1,0.2-0.3,0.4-0.5,0.5h-0.3c-0.1-0.1-0.1-0.2-0.1-0.3
		C977.9,594.8,978.1,594.7,978.4,594.6z"/>
</g>
<g class="st0">
	<path class="st1" d="M797.3,453.5c0.6,0.3,1,1,1,1.7c0,0.6,0.1,1.1,0.4,1.6c0.3,0.5,0.8,0.9,1.3,1.1h0.1c0.4-0.5,1.1-0.7,1.7-0.5
		c0.9,0.2,1.7,0.6,2.4,1.1h0.2c0.7-0.4,1.6-0.6,2.4-0.6c1.1-0.1,2.1,0,3.2,0.2l0.6,0.3h0.4c0.4-0.4,1-0.7,1.6-0.8
		c0.7-0.2,1.5,0,2,0.6c0.8-0.4,1.4-0.9,1.9-1.6l0.8-1.4c0.3-0.4,0.7-0.7,1.2-0.9c0.5-0.2,1-0.1,1.3,0.3c0.4,0.3,0.7,0.7,0.8,1.2
		c0.6,1.1,0.9,2.3,1.1,3.5l0,0c0,0.4,0,0.9,0.1,1.3c-0.1,0.6-0.3,1.2-0.5,1.7c-0.3,1.4-0.9,2.7-1.9,3.7c0,0.1-0.1,0.2-0.1,0.3
		c0.3,0.8,0.1,1.8-0.5,2.4c-0.8,0.8-1.7,1.4-2.7,1.9c-1,0.5-2.2,0.7-3.3,0.5h-0.3c-0.3,0.4-0.6,0.7-1,1c-0.8,0.5-1.6,0.8-2.5,0.9
		l-1.7,0.4H805l-2-0.5c-0.7-0.2-1.1-0.7-1.3-1.4h-0.1c-0.8,0-1.5-0.2-2.2-0.6c-1-0.4-1.9-0.9-2.8-1.6c-1-0.7-1.4-2-1.1-3.2
		c0.2-0.4,0-0.9-0.3-1.1c-0.7-0.7-1.2-1.6-1.4-2.6l-0.3-1.6c0.1-0.3,0.1-0.7,0-1c0.1-0.2,0.1-0.4,0.1-0.6c0.2-0.9,0.4-1.8,0.8-2.6
		c0.4-1.3,1.3-2.3,2.5-3L797.3,453.5z M802.2,469.5v1.5c0.1,0.6,0.5,1.1,1,1.3c0.8,0.3,1.6,0.5,2.5,0.5h2.5c0.9-0.1,1.8-0.4,2.7-0.8
		c1.1-0.5,1.6-1.7,1.4-2.8c-0.1-1-0.2-2-0.4-3s-0.6-3.9-0.9-5.8s-0.4-1.7-1.5-1.8h-0.7c-1,0-1.9,0.1-2.9,0.3c-1.1,0.1-2,0.9-2.2,2
		c-0.2,0.9-0.4,1.9-0.6,2.8c-0.5,2-0.8,4-0.9,6L802.2,469.5z M812.8,470.4h1c0.7-0.1,1.4-0.3,2-0.6c0.8-0.4,1.6-0.9,2.3-1.6
		c0.8-0.6,1-1.7,0.5-2.5l0,0c-0.5-0.9-0.9-1.9-1.4-2.7s-1.2-2.1-1.8-3l-1.3-1.7c-0.3-0.2-0.7-0.4-1.1-0.4c-0.6,0.2-1.1,0.4-1.6,0.8
		c-0.1,0.1-0.2,0.2-0.1,0.3c0.2,0.3,0.3,0.6,0.3,0.9l0.6,3.1c0.2,1.4,0.4,2.7,0.6,4.2C813,468.3,813,469.3,812.8,470.4z
		 M803.8,458.9l-0.5-0.4L802,458c-0.6-0.3-1.4-0.1-1.7,0.5l0,0l-3,5c-0.4,0.7-0.8,1.4-1.1,2.2c-0.5,1.1-0.1,2.5,1,3.1
		c1,0.8,2.2,1.4,3.4,1.9h0.8c0.2,0,0.2-0.1,0.2-0.3c-0.1-0.6-0.1-1.1,0-1.7c0.2-2.1,0.6-4.2,1-6.3
		C802.8,461.2,803.2,460,803.8,458.9L803.8,458.9z M819.1,465.4l0.3-0.5c0.6-0.9,1.1-1.9,1.4-3c0.3-0.9,0.4-1.9,0.2-2.8
		c-0.1-1.1-0.4-2.3-0.9-3.3c-0.1-0.3-0.2-0.5-0.4-0.7c-0.2-0.4-0.6-0.6-1-0.4c0,0,0,0-0.1,0c-0.2,0.1-0.4,0.2-0.4,0.4
		c-0.4,0.3-0.7,0.7-0.9,1.2c-0.5,0.8-1.2,1.6-2,2.1l-0.3,0.2C816.7,460.7,818,463,819.1,465.4L819.1,465.4z M799.6,458.4l-0.4-0.3
		c-0.8-0.4-1.3-1.1-1.4-2c-0.1-0.5-0.2-0.9-0.3-1.4c0-0.4-0.2-0.5-0.6-0.4c-0.4,0-0.7,0.2-0.9,0.5l-1.2,2.2
		c-0.4,1.1-0.6,2.2-0.6,3.4c0,1,0.2,2.1,0.7,3c0.2,0.5,0.6,1,1.1,1.3C797.1,462.5,798.3,460.4,799.6,458.4z"/>
	<path class="st1" d="M809.4,469.9c0-0.1,0-0.2,0.1-0.3l0.7-1c0.1-0.2,0.2-0.3,0.4-0.2s0.3,0.3,0.1,0.5l-0.7,1.2h-0.3L809.4,469.9z"
		/>
	<path class="st1" d="M809.7,468L809.7,468c0.2,0.1,0.2,0.3,0.1,0.3c-0.1,0.2-0.3,0.4-0.5,0.5H809c-0.1-0.1-0.1-0.2-0.1-0.3
		C809.1,468.2,809.4,468,809.7,468z"/>
</g>
<g class="st0">
	<path class="st1" d="M319.1,477c0.7,0.3,1.1,1,1,1.7c0,0.6,0.1,1.1,0.4,1.6c0.3,0.5,0.8,0.9,1.3,1.1h0.1c0.4-0.5,1.1-0.7,1.7-0.4
		c0.9,0.1,1.7,0.5,2.4,1h0.3c0.7-0.4,1.6-0.6,2.4-0.5c1-0.2,2.1-0.1,3.1,0.1l0.6,0.3h0.4c0.4-0.4,1-0.7,1.6-0.8
		c0.7-0.2,1.5,0.1,2,0.6c0.8-0.3,1.4-0.9,1.9-1.6l0.9-1.4c0.3-0.4,0.7-0.7,1.1-0.9c0.5-0.2,1-0.1,1.3,0.3c0.4,0.3,0.7,0.7,0.8,1.2
		c0.6,1.1,0.9,2.3,1.1,3.5l0,0c0,0.4,0,0.9,0.1,1.3c-0.1,0.6-0.3,1.2-0.5,1.7c-0.3,1.4-0.9,2.7-1.9,3.7c0,0.1-0.1,0.2-0.1,0.3
		c0.3,0.8,0.1,1.8-0.5,2.4c-0.8,0.8-1.7,1.4-2.7,1.9c-1,0.5-2.2,0.7-3.3,0.5h-0.3c-0.3,0.4-0.6,0.7-1,1c-0.7,0.5-1.6,0.9-2.5,1
		l-1.7,0.3h-2.3l-1.9-0.5c-0.7-0.1-1.3-0.7-1.4-1.4h-0.1c-0.8,0-1.5-0.2-2.2-0.6c-1-0.4-1.9-0.9-2.7-1.6c-1.1-0.7-1.6-2-1.2-3.2
		c0.2-0.4,0-0.9-0.3-1.1c-0.7-0.7-1.2-1.6-1.4-2.6l-0.2-1.6v-1c0-0.2,0-0.4,0.1-0.6c0.1-0.9,0.3-1.8,0.7-2.6
		c0.5-1.2,1.3-2.3,2.5-2.9L319.1,477z M324,493v1.5c0.1,0.6,0.5,1.1,1,1.3c0.8,0.3,1.6,0.5,2.5,0.5h2.5c0.9-0.1,1.8-0.4,2.7-0.8
		c1.1-0.5,1.7-1.6,1.5-2.8c-0.2-1-0.3-2-0.5-3s-0.6-3.9-0.9-5.8s-0.4-1.7-1.5-1.8h-0.7c-1-0.1-1.9,0-2.9,0.2c-1.1,0.1-2,0.9-2.1,2
		c-0.3,0.9-0.5,1.9-0.7,2.8c-0.5,2-0.8,4-0.9,6V493z M334.6,494h1c0.7-0.1,1.4-0.3,2-0.6c0.8-0.4,1.6-0.9,2.3-1.6
		c0.8-0.6,1.1-1.7,0.5-2.5c0,0,0,0,0,0l0,0c-0.4-0.9-0.9-1.8-1.4-2.7c-0.6-0.9-1.2-2-1.8-3l-1.3-1.7c-0.3-0.3-0.7-0.4-1.1-0.3
		c-0.6,0.1-1.1,0.3-1.6,0.7c-0.1,0.1-0.2,0.2,0,0.3c0.1,0.3,0.2,0.6,0.2,0.9l0.6,3.1l0.6,4.2C334.8,491.9,334.8,492.9,334.6,494z
		 M325.6,482.4l-0.5-0.4l-1.3-0.5c-0.6-0.3-1.4-0.1-1.7,0.5l0,0l-3,5c-0.4,0.7-0.8,1.4-1,2.2c-0.5,1.1-0.1,2.4,0.9,3.1
		c1.1,0.8,2.2,1.4,3.4,1.9h0.8c0.2,0.1,0.2-0.1,0.2-0.3c-0.1-0.6-0.1-1.1,0-1.7c0.2-2.1,0.6-4.2,1-6.3
		C324.6,484.7,325,483.5,325.6,482.4L325.6,482.4z M340.9,488.9l0.3-0.5c0.6-0.9,1.1-1.9,1.4-3c0.3-0.9,0.4-1.9,0.2-2.8
		c-0.1-1.1-0.4-2.3-0.9-3.3c-0.1-0.3-0.2-0.5-0.4-0.7c-0.2-0.4-0.6-0.6-1-0.4c0,0,0,0-0.1,0c-0.2,0.1-0.3,0.2-0.4,0.4
		c-0.4,0.4-0.7,0.8-0.9,1.2c-0.5,0.9-1.2,1.6-2,2.1l-0.3,0.2C338.4,484.2,339.8,486.5,340.9,488.9L340.9,488.9z M321.4,481.9
		l-0.4-0.3c-0.8-0.4-1.3-1.1-1.4-2c-0.1-0.4-0.1-0.9-0.2-1.4s-0.3-0.5-0.7-0.4c-0.3,0.1-0.7,0.2-0.9,0.5c-0.4,0.7-0.8,1.4-1.1,2.2
		c-0.5,1.1-0.7,2.2-0.7,3.4c0,1,0.2,2.1,0.7,3c0.2,0.5,0.6,1,1.1,1.3C318.9,486,320.1,483.9,321.4,481.9z"/>
	<path class="st1" d="M331.2,493.4c0-0.1,0-0.2,0.1-0.3l0.7-1c0.1-0.2,0.2-0.3,0.5-0.2s0.2,0.3,0,0.5l-0.7,1.2l-0.3,0.2L331.2,493.4
		z"/>
	<path class="st1" d="M331.5,491.5h0.2c0,0.1,0,0.3-0.1,0.4l-0.5,0.4h-0.3c-0.1-0.1-0.1-0.2-0.1-0.3
		C330.9,491.7,331.2,491.5,331.5,491.5z"/>
</g>
<g class="st0">
	<path class="st1" d="M15.3,609.3c0.6,0.3,1,1,0.9,1.7c0,0.6,0.2,1.1,0.4,1.6c0.3,0.5,0.8,0.9,1.4,1.1h0.1c0.4-0.5,1.1-0.7,1.7-0.4
		c0.8,0.2,1.7,0.5,2.4,1h0.2c0.7-0.4,1.6-0.5,2.4-0.5c1-0.1,2.1-0.1,3.1,0.1l0.7,0.3c0.1,0.1,0.2,0,0.3-0.1c0.5-0.4,1-0.7,1.6-0.8
		c0.8-0.2,1.5,0.1,2.1,0.6c0.8-0.4,1.4-0.9,1.9-1.6l0.8-1.4c0.3-0.4,0.7-0.7,1.2-0.9c0.5-0.2,1-0.1,1.3,0.3l0.8,1.2
		c0.6,1.1,0.9,2.3,1,3.5c0.1,0,0.1,0,0.1,0.1v1.3c0,0.6-0.1,1.2-0.4,1.7c-0.3,1.4-1,2.7-1.9,3.8c-0.1,0-0.1,0.1-0.1,0.2
		c0.3,0.8,0.1,1.8-0.6,2.4c-0.8,0.8-1.7,1.4-2.7,1.9c-1,0.5-2.1,0.7-3.2,0.5l-0.3,0.2l-1.1,1c-0.7,0.5-1.6,0.8-2.5,0.9l-1.6,0.3
		h-2.4l-1.9-0.5c-0.7-0.1-1.2-0.6-1.3-1.3l-0.2-0.2c-0.7,0-1.5-0.2-2.1-0.6c-1-0.4-1.9-0.9-2.8-1.6c-1-0.7-1.5-2-1.1-3.2
		c0.1-0.4,0-0.8-0.3-1.1c-0.7-0.7-1.2-1.6-1.4-2.6l-0.3-1.6v-1c0-0.2,0.1-0.4,0.1-0.6c0.1-0.9,0.4-1.8,0.7-2.6
		c0.5-1.2,1.4-2.3,2.6-2.9L15.3,609.3z M20.2,625.4v1.4c0,0.6,0.4,1.1,1,1.3c0.8,0.3,1.6,0.5,2.4,0.5h2.6c0.9-0.1,1.8-0.4,2.6-0.8
		c1.1-0.5,1.7-1.6,1.5-2.8c-0.1-1-0.2-2-0.4-3l-0.9-5.8c-0.1-1-0.5-1.7-1.5-1.8h-0.7c-1,0-2,0-3,0.2c-1,0.2-1.8,1-2.1,2
		c-0.2,0.9-0.5,1.9-0.7,2.8c-0.4,2-0.7,4-0.8,6.1V625.4z M30.8,626.3h1c0.7-0.1,1.4-0.3,2-0.6c0.8-0.4,1.6-0.9,2.3-1.5
		c0.8-0.6,1-1.7,0.5-2.6l0,0c-0.4-0.9-0.9-1.8-1.5-2.7l-1.8-3c-0.4-0.6-0.8-1.2-1.3-1.7c-0.3-0.3-0.7-0.4-1.1-0.3
		c-0.6,0.1-1.1,0.3-1.5,0.7c-0.1,0.1-0.2,0.2-0.1,0.4l0.3,0.8l0.5,3.1c0.3,1.4,0.5,2.8,0.6,4.2C31,624.1,31,625.2,30.8,626.3z
		 M21.8,614.7l-0.5-0.3l-1.3-0.6c-0.6-0.3-1.4-0.1-1.7,0.5l0,0l-3.1,5c-0.4,0.7-0.7,1.4-1,2.2c-0.5,1.1-0.1,2.4,0.9,3
		c1.1,0.8,2.3,1.4,3.5,1.9h0.7c0.2,0,0.2-0.2,0.2-0.3c0.1-0.6,0.1-1.2,0-1.8c0.2-2.1,0.7-4.2,1-6.2c0.2-1.3,0.7-2.5,1.3-3.6V614.7z
		 M37,621.2c0.2-0.1,0.3-0.3,0.4-0.5c0.6-0.9,1.1-1.9,1.4-2.9c0.3-0.9,0.4-1.9,0.2-2.9c-0.1-1.1-0.4-2.2-0.9-3.3
		c-0.1-0.2-0.2-0.5-0.4-0.7c-0.2-0.4-0.8-0.6-1.2-0.4c-0.2,0.1-0.3,0.2-0.4,0.4l-0.8,1.2c-0.5,0.9-1.2,1.6-2.1,2.1l-0.2,0.2
		C34.6,616.5,36,618.8,37,621.2L37,621.2z M17.6,614.2l-0.4-0.3c-0.8-0.3-1.4-1-1.5-1.9c0-0.5-0.1-1-0.2-1.5c0-0.4-0.3-0.5-0.6-0.4
		c-0.4,0.1-0.7,0.3-0.9,0.6c-0.5,0.6-0.9,1.3-1.2,2.1c-0.4,1.1-0.6,2.2-0.6,3.4c0,1,0.2,2.1,0.6,3c0.3,0.5,0.7,1,1.2,1.3
		C15,618.3,16.2,616.2,17.6,614.2z"/>
	<path class="st1" d="M27.3,625.7l0.2-0.3l0.7-1c0-0.2,0.2-0.3,0.4-0.1s0.2,0.2,0.1,0.5l-0.8,1.1l-0.3,0.2L27.3,625.7z"/>
	<path class="st1" d="M27.6,623.8c0.1,0,0.2,0.1,0.2,0.2l0,0c0.1,0.1,0.1,0.2,0,0.3c0,0,0,0,0,0l-0.5,0.4H27l-0.2-0.2
		C27,624.2,27.2,623.9,27.6,623.8z"/>
</g>
<g class="st0">
	<path class="st1" d="M133.8,345c0.7,0.3,1.1,1,1,1.8c0,0.5,0.1,1,0.4,1.5c0.3,0.5,0.8,0.9,1.3,1.1h0.1c0.4-0.5,1.1-0.7,1.7-0.4
		c0.9,0.2,1.7,0.5,2.4,1h0.2c0.8-0.3,1.6-0.5,2.5-0.5c1-0.1,2.1-0.1,3.1,0.1l0.6,0.3c0.2,0.1,0.2,0,0.4,0c0.4-0.5,1-0.8,1.6-0.9
		c0.7-0.2,1.5,0.1,2,0.6c0.8-0.3,1.4-0.9,1.9-1.6l0.8-1.4c0.3-0.4,0.7-0.7,1.2-0.9c0.5-0.2,1-0.1,1.3,0.3c0.3,0.4,0.6,0.8,0.8,1.2
		c0.6,1.1,0.9,2.3,1.1,3.5l0,0c0,0.4,0,0.9,0.1,1.3c-0.1,0.6-0.3,1.2-0.5,1.7c-0.3,1.4-0.9,2.7-1.9,3.8c-0.1,0.1-0.1,0.1-0.1,0.2
		c0.3,0.8,0.1,1.8-0.5,2.4c-0.8,0.8-1.7,1.4-2.7,1.9c-1,0.5-2.2,0.7-3.3,0.6c-0.1-0.1-0.2,0-0.3,0.1c-0.3,0.4-0.6,0.7-1,1
		c-0.8,0.5-1.6,0.8-2.5,0.9l-1.7,0.3h-2.3l-2-0.5c-0.7-0.1-1.2-0.6-1.3-1.3V363c-0.8,0-1.5-0.2-2.2-0.5c-1-0.4-1.9-1-2.8-1.6
		c-1-0.8-1.4-2-1.1-3.2c0.2-0.4,0-0.9-0.3-1.2c-0.7-0.7-1.2-1.6-1.4-2.6l-0.3-1.6c0.1-0.3,0.1-0.7,0-1c0.1-0.1,0.1-0.4,0.1-0.6
		c0.2-0.9,0.4-1.8,0.8-2.6c0.4-1.3,1.3-2.3,2.5-2.9L133.8,345z M138.7,361.1v1.4c0.1,0.6,0.5,1.1,1,1.3c0.8,0.3,1.6,0.5,2.5,0.5h2.5
		c0.9-0.1,1.8-0.4,2.7-0.8c1.1-0.5,1.7-1.6,1.5-2.8c-0.2-1-0.3-2-0.5-3s-0.6-3.8-0.9-5.8s-0.4-1.7-1.5-1.8h-0.7l-2.9,0.2
		c-1.1,0.2-1.9,1-2.2,2c-0.2,1-0.5,1.9-0.6,2.9c-0.5,2-0.8,4-0.9,6L138.7,361.1z M149.3,362h1c0.7-0.1,1.4-0.3,2-0.6
		c0.8-0.4,1.6-0.9,2.3-1.5c0.8-0.6,1.1-1.7,0.5-2.6l0,0c-0.5-0.9-0.9-1.9-1.4-2.7s-1.2-2-1.8-3c-0.4-0.6-0.8-1.1-1.3-1.6
		c-0.3-0.3-0.7-0.4-1.1-0.4c-0.6,0.1-1.1,0.3-1.6,0.7c-0.1,0.1-0.2,0.2-0.1,0.4c0.2,0.2,0.3,0.5,0.3,0.8l0.6,3.1l0.6,4.2
		C149.5,359.9,149.5,360.9,149.3,362z M140.3,350.4l-0.5-0.3l-1.3-0.5c-0.6-0.4-1.3-0.2-1.7,0.3c0,0,0,0,0,0.1l0,0l-3,5
		c-0.4,0.7-0.8,1.4-1.1,2.2c-0.5,1.1-0.1,2.4,1,3c1,0.8,2.2,1.4,3.4,1.9h0.8c0.2,0,0.2-0.1,0.2-0.3c-0.1-0.6-0.1-1.2,0-1.8
		c0.2-2.1,0.6-4.2,1-6.2c0.2-1.3,0.6-2.5,1.2-3.6L140.3,350.4z M155.6,356.9l0.3-0.5c0.6-0.9,1.1-1.9,1.4-2.9
		c0.3-0.9,0.4-1.9,0.2-2.9c-0.1-1.1-0.4-2.3-0.9-3.3c-0.1-0.2-0.2-0.5-0.4-0.6c-0.1-0.4-0.6-0.7-1-0.5c0,0-0.1,0-0.1,0
		c-0.2,0.1-0.4,0.3-0.4,0.4c-0.4,0.3-0.7,0.8-0.9,1.2c-0.5,0.9-1.2,1.6-2,2.1l-0.3,0.2C153.1,352.2,154.5,354.5,155.6,356.9
		L155.6,356.9z M136.1,349.9l-0.4-0.3c-0.8-0.3-1.3-1.1-1.4-1.9c-0.1-0.5-0.2-1-0.3-1.5c0-0.4-0.2-0.5-0.6-0.4
		c-0.4,0.1-0.7,0.3-0.9,0.6l-1.2,2.2c-0.4,1.1-0.6,2.2-0.6,3.3c0,1,0.2,2.1,0.7,3c0.2,0.6,0.6,1.1,1.1,1.4
		C133.5,354.1,134.7,351.9,136.1,349.9z"/>
	<path class="st1" d="M145.9,361.5c0-0.2,0-0.3,0.1-0.4l0.7-1c0.1-0.2,0.2-0.3,0.4-0.1s0.3,0.2,0.1,0.5l-0.7,1.1l-0.3,0.2
		L145.9,361.5z"/>
	<path class="st1" d="M146.2,359.5c0,0,0.2,0.1,0.1,0.2c0.1,0.1,0.1,0.2,0,0.3c0,0,0,0,0,0c-0.1,0.2-0.3,0.3-0.5,0.4h-0.3
		c-0.1,0-0.1-0.1-0.1-0.2C145.5,359.8,145.8,359.6,146.2,359.5z"/>
</g>
<g class="st0">
	<path class="st1" d="M529.9,589.7c0.6,0.3,1,1,0.9,1.7c0,0.6,0.2,1.1,0.4,1.6c0.3,0.5,0.8,0.9,1.4,1.1h0.1c0.4-0.5,1.1-0.7,1.7-0.4
		c0.8,0.2,1.6,0.5,2.3,1h0.3c0.7-0.4,1.6-0.5,2.4-0.5c1-0.1,2.1-0.1,3.1,0.1l0.7,0.3c0.1,0.1,0.2,0,0.3-0.1c0.5-0.4,1-0.7,1.6-0.8
		c0.7-0.2,1.5,0.1,2,0.6c0.8-0.3,1.5-0.9,2-1.6l0.8-1.4c0.3-0.4,0.7-0.7,1.2-0.9c0.5-0.2,1-0.1,1.3,0.3l0.8,1.2
		c0.5,1.1,0.9,2.3,1,3.5c0.1,0,0.1,0,0.1,0.1v1.3c0,0.4-0.3,1.1-0.4,1.7c-0.3,1.4-1,2.7-1.9,3.8c-0.1,0-0.1,0.1-0.1,0.2
		c0.3,0.8,0.1,1.8-0.6,2.4c-0.8,0.8-1.7,1.4-2.7,1.9c-1,0.5-2.2,0.7-3.3,0.5l-0.2,0.2l-1.1,1c-0.7,0.5-1.6,0.8-2.5,0.9l-1.6,0.3
		h-2.4l-1.9-0.5c-0.7-0.2-1.2-0.7-1.4-1.3v-0.2c-0.7,0-1.5-0.2-2.1-0.6c-1-0.4-2-0.9-2.8-1.6c-1-0.7-1.5-2-1.1-3.2
		c0.1-0.4,0-0.8-0.3-1.1c-0.7-0.7-1.2-1.6-1.4-2.6l-0.3-1.6v-1c0-0.2,0.1-0.4,0.1-0.6c0.1-0.9,0.4-1.8,0.7-2.6
		c0.5-1.2,1.4-2.3,2.6-2.9L529.9,589.7z M534.7,605.8c0.1,0.5,0.1,0.9,0.1,1.4c0,0.6,0.4,1.1,1,1.3c0.8,0.3,1.6,0.5,2.4,0.5h2.5
		c0.9-0.1,1.9-0.4,2.7-0.8c1.1-0.5,1.7-1.6,1.5-2.8c-0.1-1-0.2-2-0.4-3l-0.9-5.8c-0.2-1-0.5-1.7-1.5-1.8h-0.7c-1,0-2,0-3,0.2
		c-1,0.2-1.8,1-2.1,2c-0.2,0.9-0.5,1.9-0.7,2.8c-0.5,2-0.8,4-0.9,6.1L534.7,605.8z M545.4,606.7h1c0.7-0.1,1.4-0.3,2-0.6
		c0.8-0.4,1.5-0.9,2.2-1.5c0.8-0.6,1-1.7,0.6-2.6l0,0c-0.4-0.9-0.9-1.8-1.5-2.7l-1.8-3c-0.4-0.6-0.8-1.2-1.3-1.7
		c-0.3-0.3-0.7-0.4-1.1-0.3c-0.6,0.1-1.1,0.3-1.5,0.7c-0.1,0.1-0.2,0.2-0.1,0.4l0.3,0.8l0.5,3.1c0.2,1.4,0.5,2.8,0.6,4.2
		C545.5,604.6,545.6,605.6,545.4,606.7z M536.3,595.1l-0.4-0.3l-1.3-0.6c-0.6-0.3-1.4-0.1-1.7,0.5l0,0l-3.1,5
		c-0.4,0.7-0.7,1.4-1,2.2c-0.5,1.1-0.1,2.4,0.9,3c1.1,0.8,2.3,1.4,3.5,1.9h0.7c0.2,0,0.2-0.2,0.2-0.3v-1.8c0.2-2.1,0.6-4.2,1-6.2
		c0.2-1.3,0.6-2.5,1.2-3.6L536.3,595.1z M551.6,601.6c0.2-0.1,0.3-0.3,0.4-0.5c0.6-0.9,1-1.9,1.3-2.9c0.4-0.9,0.5-1.9,0.3-2.9
		c-0.2-1.1-0.5-2.2-0.9-3.3c-0.1-0.2-0.2-0.5-0.4-0.7c-0.3-0.4-0.8-0.6-1.2-0.4c-0.2,0.1-0.3,0.2-0.4,0.4l-0.8,1.2
		c-0.5,0.9-1.2,1.6-2.1,2.1l-0.2,0.2C549.2,596.9,550.6,599.2,551.6,601.6L551.6,601.6z M532.2,594.6l-0.4-0.3
		c-0.8-0.3-1.4-1-1.5-1.9c0-0.5-0.1-1-0.2-1.5c0-0.4-0.3-0.5-0.7-0.4c-0.3,0.1-0.6,0.3-0.8,0.6c-0.5,0.7-0.9,1.4-1.2,2.1
		c-0.4,1.1-0.6,2.2-0.6,3.4c0,1,0.2,2.1,0.6,3c0.2,0.5,0.6,1,1.1,1.3C529.6,598.7,530.8,596.6,532.2,594.6L532.2,594.6z"/>
	<path class="st1" d="M541.9,606.1l0.2-0.3l0.6-1c0.1-0.2,0.3-0.3,0.5-0.1s0.2,0.2,0.1,0.5l-0.8,1.1l-0.3,0.2L541.9,606.1z"/>
	<path class="st1" d="M542.2,604.2c0.1,0,0.2,0.1,0.2,0.2l0,0v0.3l-0.5,0.4h-0.4c0-0.1-0.1-0.1-0.1-0.2
		C541.6,604.6,541.8,604.3,542.2,604.2z"/>
</g>
<g class="st0">
	<path class="st1" d="M65.5,94c0.7,0.3,1,1.1,0.9,1.8c0,0.5,0.2,1,0.4,1.5c0.3,0.5,0.8,0.9,1.4,1.1l0,0c0.5-0.5,1.2-0.7,1.8-0.4
		c0.8,0.2,1.6,0.5,2.3,1h0.3c0.7-0.4,1.6-0.5,2.4-0.5c1-0.1,2.1-0.1,3.1,0.1l0.7,0.3h0.3c0.4-0.5,1-0.8,1.6-0.9
		c0.7-0.2,1.5,0.1,2,0.6c0.8-0.3,1.5-0.9,1.9-1.6l0.9-1.4c0.3-0.4,0.7-0.7,1.2-0.9c0.5-0.2,1-0.1,1.3,0.3l0.8,1.2
		c0.5,1.1,0.9,2.3,1,3.5h0.1c-0.1,0.4-0.1,0.9,0,1.3c-0.1,0.6-0.2,1.1-0.4,1.7c-0.3,1.4-1,2.7-1.9,3.8c-0.1,0-0.1,0.1-0.1,0.2
		c0.3,0.8,0.1,1.8-0.6,2.4c-0.8,0.8-1.7,1.4-2.7,1.9c-1,0.5-2.2,0.7-3.3,0.6c0-0.1-0.2,0-0.2,0.1l-1.1,1c-0.7,0.5-1.6,0.8-2.5,0.9
		l-1.6,0.3h-2.4l-1.9-0.5c-0.7-0.2-1.2-0.6-1.4-1.3V112c-0.7,0-1.4-0.2-2.1-0.5c-1-0.4-1.9-1-2.8-1.7c-1-0.7-1.5-1.9-1.1-3.1
		c0.1-0.4,0-0.9-0.3-1.2c-0.7-0.7-1.2-1.6-1.4-2.6l-0.3-1.6v-1c0-0.1,0.1-0.4,0.1-0.6c0.1-0.9,0.3-1.8,0.7-2.6
		c0.5-1.2,1.4-2.3,2.6-2.9L65.5,94z M70.3,110.1c0.1,0.5,0,0.9,0.1,1.4c0,0.6,0.4,1.1,1,1.3c0.8,0.3,1.6,0.5,2.4,0.5h2.5
		c0.9-0.1,1.9-0.4,2.7-0.8c1.1-0.5,1.7-1.6,1.5-2.8c-0.1-1-0.3-2-0.4-3l-0.9-5.8c-0.2-0.9-0.5-1.7-1.6-1.8H77c-1,0-2,0-3,0.2
		c-1,0.2-1.9,1-2.1,2c-0.3,1-0.5,1.9-0.7,2.9C70.7,106.2,70.4,108.2,70.3,110.1L70.3,110.1z M81,111h1c0.7-0.1,1.3-0.3,1.9-0.6
		c0.8-0.4,1.6-0.9,2.3-1.5c0.8-0.6,1-1.7,0.6-2.6l0,0c-0.4-0.9-0.9-1.8-1.5-2.7l-1.8-3c-0.3-0.6-0.8-1.1-1.3-1.6
		c-0.3-0.3-0.7-0.5-1.1-0.4c-0.6,0.1-1.1,0.3-1.5,0.7c-0.2,0.1-0.2,0.2-0.1,0.4l0.3,0.8l0.5,3.1c0.2,1.4,0.5,2.8,0.6,4.2
		C81.1,108.9,81.1,109.9,81,111z M71.9,99.4l-0.4-0.3l-1.3-0.5c-0.6-0.4-1.3-0.2-1.7,0.3c0,0,0,0,0,0.1l0,0l-3.1,5
		c-0.4,0.7-0.7,1.4-1,2.2c-0.5,1.1-0.1,2.4,0.9,3c1.1,0.8,2.3,1.4,3.5,1.9h0.7c0.2,0,0.2-0.1,0.2-0.3V109c0.2-2.1,0.6-4.2,1-6.2
		c0.2-1.3,0.6-2.5,1.2-3.6L71.9,99.4z M87.2,105.9c0.2-0.1,0.3-0.3,0.4-0.5c0.6-0.9,1-1.9,1.3-2.9c0.3-0.9,0.4-1.9,0.3-2.9
		c-0.2-1.1-0.5-2.2-0.9-3.3l-0.4-0.7c-0.3-0.4-0.8-0.6-1.2-0.4c-0.2,0.1-0.3,0.2-0.4,0.4l-0.8,1.2c-0.5,0.9-1.2,1.6-2.1,2.1
		l-0.3,0.2C84.8,101.2,86.2,103.5,87.2,105.9z M67.8,98.9l-0.4-0.3c-0.8-0.3-1.4-1-1.5-1.9c0-0.5-0.1-1-0.2-1.5
		c0-0.4-0.3-0.5-0.7-0.4c-0.3,0.1-0.6,0.3-0.8,0.6c-0.5,0.7-0.9,1.4-1.2,2.1c-0.4,1.1-0.7,2.2-0.7,3.4c0,1,0.3,2.1,0.7,3
		c0.2,0.5,0.6,1,1.1,1.3C65.2,103,66.4,100.9,67.8,98.9z"/>
	<path class="st1" d="M77.5,110.4c0.1-0.1,0.1-0.2,0.1-0.3l0.7-1c0.1-0.2,0.2-0.3,0.5-0.1s0.2,0.2,0.1,0.5l-0.8,1.1l-0.3,0.2
		L77.5,110.4z"/>
	<path class="st1" d="M77.8,108.5c0.1,0,0.2,0.1,0.2,0.2v0.3l-0.6,0.4h-0.3c0-0.1-0.1-0.1-0.1-0.2C77.2,108.9,77.4,108.6,77.8,108.5
		z"/>
</g>
</svg>
