<?xml version="1.0" encoding="utf-8"?>
<!-- Generator: Adobe Illustrator 22.1.0, SVG Export Plug-In . SVG Version: 6.00 Build 0)  -->
<svg version="1.1" id="Layer_1" xmlns="http://www.w3.org/2000/svg" xmlns:xlink="http://www.w3.org/1999/xlink" x="0px" y="0px"
	 viewBox="0 0 1203.9 785" style="enable-background:new 0 0 1203.9 785;" xml:space="preserve">
<style type="text/css">
	.st0{opacity:8.000000e-02;}
	.st1{fill:#6F4728;}
	.st2{fill:none;}
</style>
<title>bg-solid</title>
<g class="st0">
	<path class="st1" d="M1014.2,292.5c0-2.1,0.4-4.3,1.1-6.3c0.6-1.5,1.4-2.9,2.3-4.2c0.4-0.5,1-0.9,1.6-1.1c0.4-0.2,0.9-0.1,1.1,0.3
		c0,0,0,0,0,0c0.1,0.2,0.2,0.3,0.2,0.5s0.2,1.8,0.4,2.7c0.2,1.6,1.2,3.1,2.7,3.8l0.8,0.5c-2.2,4-5,7.7-6.8,12
		c-0.9-0.6-1.6-1.5-2-2.5C1014.7,296.4,1014.3,294.5,1014.2,292.5z"/>
	<path class="st1" d="M1018.2,302.7c0.5-1.5,1.2-2.9,1.9-4.3c1.8-3.1,3.8-6.3,5.7-9.4c0.5-1.1,1.8-1.6,2.9-1.2
		c0.1,0,0.2,0.1,0.3,0.2l2.4,0.9l1,0.6c-1.4,2.2-1.8,4.5-2.3,7c-0.8,3.9-1.4,7.8-1.7,11.7c-0.1,1.1,0,2.3,0,3.3s-0.1,0.6-0.4,0.6
		l-1.4-0.2c-2.3-0.9-4.5-2-6.6-3.4C1018.1,307.3,1017.3,304.8,1018.2,302.7z"/>
	<path class="st1" d="M1029.7,312.5c0.1,1.1,0.8,2,1.8,2.4c1.5,0.6,3.1,0.9,4.7,0.9c1.6,0,3.2-0.1,4.8-0.3c1.7-0.2,3.4-0.7,5-1.5
		c2.2-1.2,3.1-2.8,2.7-5.2s-0.4-3.9-0.8-5.9c-0.5-3.6-1.2-7.3-1.8-10.9c-0.3-1.7-1-3.2-3-3.3l-1.2-0.2c-1.9,0-3.8,0.2-5.6,0.6
		c-2,0.3-3.6,1.8-4,3.8c-0.4,1.7-0.9,3.6-1.2,5.4c-0.9,3.8-1.4,7.6-1.6,11.5C1029.6,310.6,1029.6,311.6,1029.7,312.5z M1045.5,307.4
		c0.3,0.1,0.5,0.5,0.4,0.8c0,0,0,0.1-0.1,0.1h-0.1l-1.4,2.2c-0.5,0.7-0.4,0.4-0.6,0.3l-0.6-0.6c-0.2-0.1,0.2-0.5,0.4-0.6l1.1-1.9
		c0.3-0.4,0.5-0.6,0.9-0.4L1045.5,307.4z M1043.7,306.6l0.4,0.3c0,0.2,0.1,0.5-0.1,0.6c-0.3,0.4-0.6,0.7-1,0.9h-0.6
		c-0.1-0.2-0.2-0.3-0.2-0.5S1043.2,306.7,1043.7,306.6L1043.7,306.6z"/>
	<path class="st1" d="M1046.6,289c0.9-0.7,1.9-1.2,3-1.4c0.8-0.2,1.6,0.1,2.2,0.7c0.8,1,1.6,2,2.3,3.1c1.3,1.8,2.5,3.6,3.7,5.5
		l2.7,5.2v0.2c1,1.6,0.6,3.7-0.9,4.9c-1.3,1.1-2.8,2.1-4.3,2.8c-1.1,0.7-2.4,1.1-3.7,1.3h-1.9c0.3-2.1,0.2-4.2-0.3-6.2
		c-0.4-2.1-0.8-5.3-1.3-8s-0.7-3.9-1.1-5.9c-0.1-0.5-0.3-1-0.5-1.5c-0.1-0.1-0.2-0.3-0.1-0.4c0,0,0.1-0.1,0.1-0.1c0.1,0,0.1,0,0.2,0
		C1046.7,289.1,1046.7,289,1046.6,289z"/>
	<path class="st1" d="M1053.6,288.7c0.2-0.2,0.3-0.3,0.5-0.3c1.6-1,2.9-2.4,3.8-4.1l1.6-2.4c0.6-0.8,1.7-1,2.5-0.4
		c0.2,0.1,0.4,0.3,0.5,0.5c0.3,0.4,0.5,0.8,0.7,1.2c0.9,2,1.5,4.1,1.9,6.3c0.3,1.8,0.1,3.7-0.5,5.4c-0.5,2.1-1.3,4-2.5,5.8l-0.7,0.8
		C1059.2,296.9,1057,292.5,1053.6,288.7z"/>
	<path class="st2" d="M1043.1,310.3c0.2-0.2,0.2-0.5,0.4-0.6l1.1-1.9c0.3-0.4,0.5-0.6,0.9-0.4c0.3,0.1,0.5,0.5,0.4,0.8
		c0,0,0,0.1-0.1,0.1h-0.1l-1.4,2.2c-0.5,0.7-0.4,0.4-0.6,0.3L1043.1,310.3z"/>
	<path class="st2" d="M1042.2,307.9c-0.1-0.4,1-1.2,1.5-1.3s0.3,0.2,0.4,0.3s0.1,0.5-0.1,0.6c-0.3,0.4-0.6,0.7-1,0.9h-0.6
		C1042.3,308.2,1042.2,308.1,1042.2,307.9z"/>
</g>
<g class="st0">
	<path class="st1" d="M1080.1,658.8c-0.1-2.2,0.3-4.3,1.1-6.3c0.6-1.5,1.4-2.9,2.3-4.2c0.4-0.5,0.9-0.9,1.5-1.1
		c0.4-0.2,0.9-0.1,1.2,0.3c0.1,0.2,0.1,0.3,0.1,0.5c0.2,0.9,0.3,1.8,0.4,2.7c0.3,1.6,1.3,3,2.8,3.8l0.8,0.5c-2.2,4-5.1,7.7-6.8,12
		c-0.9-0.6-1.6-1.5-2-2.5C1080.6,662.7,1080.1,660.8,1080.1,658.8z"/>
	<path class="st1" d="M1084,669c0.6-1.5,1.2-2.9,2-4.3c1.8-3.2,3.7-6.3,5.6-9.4c0.9-1.3,1.7-1.6,3.2-1l2.5,0.9l0.9,0.6
		c-1.1,2.2-1.9,4.5-2.2,6.9c-0.9,3.9-1.5,7.8-1.8,11.8c0,1.1,0,2.2,0.1,3.3s-0.1,0.6-0.5,0.6l-1.4-0.2c-2.3-0.9-4.5-2-6.5-3.5
		C1083.9,673.6,1083.1,671.1,1084,669z"/>
	<path class="st1" d="M1095.6,678.7c0,1.1,0.8,2.1,1.8,2.5c1.5,0.6,3.1,0.9,4.7,0.9c1.6,0,3.1-0.1,4.7-0.3c1.7-0.2,3.4-0.7,5-1.5
		c2-0.9,3.2-3,2.8-5.2c-0.3-2.4-0.5-3.9-0.8-5.9l-1.8-10.9c-0.3-1.8-1-3.2-3-3.4h-1.3c-1.8,0-3.7,0.2-5.5,0.6c-2,0.3-3.6,1.8-4,3.8
		c-0.5,1.7-0.9,3.6-1.3,5.4c-0.8,3.8-1.3,7.6-1.5,11.5C1095.4,677,1095.4,677.9,1095.6,678.7z M1111.4,673.7
		c0.3,0.2,0.4,0.6,0.2,0.9l0,0l-1.4,2.2c-0.5,0.6-0.5,0.4-0.6,0.3l-0.6-0.6c-0.2-0.1,0.2-0.5,0.3-0.6l1.2-1.9
		C1110.7,673.6,1111,673.4,1111.4,673.7L1111.4,673.7z M1109.6,672.9c0,0.1,0.2,0.2,0.3,0.3c0.1,0.2,0.1,0.4,0,0.6
		c-0.3,0.4-0.7,0.7-1.1,0.9h-0.5c-0.2-0.1-0.3-0.3-0.3-0.5C1108,673.8,1109.1,672.9,1109.6,672.9z"/>
	<path class="st1" d="M1112.5,655.3c0.8-0.7,1.8-1.2,2.9-1.4c0.8-0.2,1.7,0,2.2,0.7c0.9,1,1.7,2,2.4,3.1c1.2,1.8,2.5,3.6,3.6,5.5
		s1.8,3.5,2.7,5.2v0.2c0.9,2,0.7,3.2-0.9,4.8c-1.3,1.2-2.7,2.2-4.3,2.9c-1.1,0.7-2.3,1.1-3.6,1.2c-0.7,0.1-1.3,0.1-2,0
		c0.3-2.1,0.2-4.2-0.3-6.2c-0.3-2.1-0.8-5.4-1.2-8s-0.8-3.9-1.2-5.9c-0.1-0.5-0.3-1-0.5-1.5c-0.1-0.2-0.1-0.4,0.1-0.5
		C1112.4,655.3,1112.4,655.3,1112.5,655.3C1112.5,655.3,1112.5,655.3,1112.5,655.3z"/>
	<path class="st1" d="M1119.5,655c0.1-0.2,0.3-0.3,0.5-0.4c1.6-1,2.9-2.4,3.8-4c0.4-0.8,0.9-1.6,1.5-2.4c0.6-0.8,1.7-1,2.5-0.4
		c0.2,0.1,0.4,0.3,0.5,0.5c0.3,0.4,0.6,0.8,0.8,1.2c0.9,2,1.5,4.1,1.8,6.3c0.3,1.8,0.2,3.7-0.4,5.4c-0.6,2-1.4,3.9-2.5,5.7l-0.7,0.9
		C1125,663.2,1122.8,658.8,1119.5,655z"/>
	<path class="st2" d="M1109,676.6c0.1-0.2,0.2-0.4,0.3-0.6l1.2-1.9c0.2-0.4,0.5-0.6,0.9-0.4c0.3,0.2,0.4,0.6,0.2,0.9l0,0l-1.4,2.2
		c-0.5,0.6-0.5,0.4-0.6,0.3L1109,676.6z"/>
	<path class="st2" d="M1108,674.2c0-0.4,1.1-1.3,1.6-1.3s0.2,0.2,0.3,0.3c0.1,0.2,0.1,0.4,0,0.6c-0.3,0.4-0.7,0.7-1.1,0.9h-0.5
		C1108.1,674.6,1108,674.4,1108,674.2z"/>
</g>
<g class="st0">
	<path class="st1" d="M872.6,544.3c0-2.2,0.3-4.3,1.1-6.3c0.6-1.4,1.4-2.8,2.3-4.1c0.3-0.6,0.9-1,1.5-1.1c0.4-0.3,0.9-0.2,1.1,0.2
		c0,0,0.1,0.1,0.1,0.1c0.1,0.1,0.1,0.3,0.1,0.4c0.2,0.9,0.4,1.8,0.5,2.7c0.2,1.7,1.2,3.1,2.7,3.8l0.8,0.5c-2.2,4-5,7.7-6.8,12.1
		c-0.9-0.7-1.6-1.6-2-2.6C873.1,548.2,872.6,546.3,872.6,544.3z"/>
	<path class="st1" d="M876.6,554.6c0.5-1.5,1.1-3,1.9-4.4c1.8-3.1,3.7-6.3,5.7-9.4c0.4-1.1,1.6-1.6,2.7-1.2c0.1,0.1,0.3,0.1,0.4,0.2
		l2.5,0.9l1,0.6c-1.4,2.2-1.8,4.6-2.3,7c-0.8,3.9-1.4,7.8-1.8,11.7c0,1.1,0.1,2.3,0.1,3.4s-0.1,0.5-0.5,0.5c-0.4,0-0.9,0-1.3-0.2
		c-2.3-0.8-4.6-2-6.6-3.4C876.4,558.8,875.7,556.9,876.6,554.6z"/>
	<path class="st1" d="M888.1,564.3c0.1,1.1,0.8,2,1.8,2.4c1.5,0.6,3.1,0.9,4.7,0.9c1.6,0,3.1-0.1,4.7-0.3c1.8-0.2,3.5-0.7,5.1-1.5
		c2-0.9,3.2-3,2.7-5.2c-0.3-2.4-0.4-3.9-0.8-5.9c-0.5-3.6-1.2-7.3-1.8-10.9c-0.3-1.7-1-3.2-3-3.3h-1.3c-1.8-0.1-3.7,0.1-5.5,0.5
		c-2,0.3-3.6,1.8-4,3.8c-0.4,1.8-0.9,3.6-1.3,5.5c-0.8,3.8-1.3,7.6-1.5,11.5C888,562.5,888,563.4,888.1,564.3z M903.9,559.2
		c0.3,0.2,0.4,0.6,0.3,0.9h-0.1l-1.4,2.2c-0.5,0.7-0.5,0.4-0.6,0.3l-0.6-0.6c-0.2-0.1,0.2-0.4,0.3-0.6l1.2-1.9
		C903.3,559.2,903.5,559,903.9,559.2L903.9,559.2z M902.1,558.4c0.1,0.1,0.3,0.2,0.3,0.4c0.1,0.2,0.1,0.3,0,0.5
		c-0.3,0.4-0.6,0.7-1,1h-0.6c-0.1-0.1-0.2-0.3-0.2-0.5c-0.1-0.4,1-1.2,1.5-1.3V558.4z"/>
	<path class="st1" d="M905,540.8c0.9-0.7,1.9-1.2,3-1.4c0.8-0.2,1.6,0.1,2.1,0.7c0.9,1,1.7,2,2.4,3.1c1.3,1.8,2.5,3.6,3.6,5.5
		c1,1.7,1.8,3.5,2.8,5.2v0.2c0.9,2.1,0.6,3.3-0.9,4.9c-1.3,1.1-2.8,2.1-4.3,2.9c-1.2,0.6-2.4,1-3.7,1.2h-1.9
		c0.3-2.1,0.1-4.2-0.4-6.3c-0.3-2-0.7-5.3-1.2-8s-0.7-3.8-1.1-5.8c-0.1-0.6-0.3-1.1-0.6-1.6c-0.1-0.2,0-0.4,0.1-0.5
		C905,540.9,905,540.9,905,540.8C905,540.8,905,540.8,905,540.8z"/>
	<path class="st1" d="M912,540.5c0.1-0.2,0.3-0.3,0.5-0.3c1.6-1,2.9-2.4,3.8-4c0.5-0.8,1-1.6,1.5-2.4c1-1.2,2.1-1.1,3.1,0.1
		c0.3,0.3,0.5,0.7,0.7,1.1c0.9,2,1.5,4.1,1.9,6.3c0.3,1.8,0.1,3.7-0.5,5.5c-0.5,2-1.4,3.9-2.5,5.7l-0.7,0.9
		C917.6,548.8,915.4,544.3,912,540.5z"/>
	<path class="st2" d="M901.5,562.1c0.2-0.2,0.2-0.4,0.3-0.6l1.2-1.9c0.3-0.3,0.5-0.5,0.9-0.4c0.3,0.2,0.4,0.6,0.3,0.9h-0.1l-1.4,2.2
		c-0.5,0.7-0.5,0.4-0.6,0.3L901.5,562.1z"/>
	<path class="st2" d="M900.6,559.7c-0.1-0.4,1-1.2,1.5-1.3s0.3,0.2,0.3,0.4c0.1,0.2,0.1,0.3,0,0.5c-0.3,0.4-0.6,0.7-1,1h-0.6
		C900.7,560.1,900.6,559.9,900.6,559.7z"/>
</g>
<g class="st0">
	<path class="st1" d="M651.2,436.2c0-2.2,0.4-4.4,1.2-6.4c0.6-1.4,1.3-2.8,2.2-4.1c0.3-0.6,0.9-1,1.6-1.1c0.4-0.2,0.9-0.1,1.2,0.3
		c0.1,0.1,0.1,0.3,0.1,0.4c0.2,0.9,0.3,1.9,0.4,2.8c0.2,1.6,1.2,3,2.7,3.7l0.9,0.5c-2.3,4-5.1,7.8-6.8,12.1
		c-0.9-0.7-1.7-1.6-2.1-2.6C651.8,440,651.3,438.1,651.2,436.2z"/>
	<path class="st1" d="M655.2,446.4c0.5-1.5,1.2-2.9,2-4.3c1.8-3.2,3.7-6.4,5.6-9.4c0.5-1.2,1.9-1.7,3-1.2c0.1,0,0.1,0.1,0.2,0.1
		l2.4,1l1,0.5c-1.1,2.2-1.9,4.6-2.2,7c-0.9,3.9-1.5,7.8-1.8,11.8c0,1.1,0,2.2,0.1,3.3s-0.2,0.6-0.5,0.5c-0.5,0-1,0-1.4-0.2
		c-2.3-0.8-4.5-2-6.5-3.4C655.1,450.9,654.3,448.5,655.2,446.4z"/>
	<path class="st1" d="M666.8,456.1c0,1.1,0.7,2.1,1.8,2.5c1.5,0.5,3.1,0.8,4.7,0.9c1.6,0,3.1-0.1,4.7-0.4c1.8-0.1,3.5-0.6,5-1.5
		c2-0.9,3.2-3,2.8-5.2c-0.3-2.4-0.5-3.8-0.8-5.8c-0.6-3.7-1.2-7.3-1.9-10.9c-0.2-1.8-0.9-3.2-2.9-3.4h-1.3c-1.9,0-3.8,0.1-5.6,0.5
		c-2,0.3-3.6,1.8-4,3.8l-1.2,5.5c-0.8,3.8-1.4,7.6-1.6,11.5C666.6,454.4,666.7,455.3,666.8,456.1z M682.6,451.1
		c0.3,0.1,0.4,0.5,0.2,0.9l0,0l-1.4,2.2c-0.5,0.7-0.5,0.4-0.6,0.3l-0.6-0.5c-0.2-0.2,0.1-0.5,0.3-0.6l1.2-2c0.1-0.3,0.5-0.5,0.8-0.4
		C682.5,451,682.6,451.1,682.6,451.1L682.6,451.1z M680.8,450.3c0.1,0.1,0.2,0.2,0.3,0.3c0,0.1,0.1,0.4-0.1,0.6l-1,0.9h-0.5
		c-0.2-0.1-0.3-0.3-0.3-0.5C679.2,451.2,680.2,450.4,680.8,450.3L680.8,450.3z"/>
	<path class="st1" d="M683.7,432.7c0.8-0.8,1.8-1.2,2.9-1.4c0.8-0.3,1.7,0,2.2,0.6l2.3,3.1c1.3,1.8,2.5,3.7,3.7,5.5l2.7,5.3v0.2
		c0.9,2,0.7,3.2-0.9,4.8c-1.3,1.2-2.7,2.1-4.3,2.9c-1.1,0.7-2.3,1.1-3.6,1.2h-2c0.3-2.1,0.2-4.2-0.3-6.3c-0.4-2-0.8-5.3-1.2-7.9
		s-0.8-3.9-1.2-5.9c-0.1-0.5-0.3-1.1-0.5-1.6C683.4,433.1,683.4,432.9,683.7,432.7L683.7,432.7z"/>
	<path class="st1" d="M690.6,432.3l0.6-0.3c1.5-1.1,2.8-2.4,3.8-4c0.4-0.9,0.9-1.7,1.5-2.4c0.9-1.2,2.1-1.1,3,0.1
		c0.3,0.3,0.6,0.7,0.8,1.1c0.9,2,1.5,4.1,1.8,6.3c0.3,1.8,0.2,3.7-0.4,5.5c-0.6,2-1.4,3.9-2.5,5.7l-0.8,0.9
		C696.2,440.6,694,436.1,690.6,432.3z"/>
	<path class="st2" d="M680.2,454c0.1-0.3,0.1-0.5,0.3-0.6l1.2-2c0.1-0.3,0.5-0.5,0.8-0.4c0,0,0.1,0,0.1,0.1c0.3,0.1,0.4,0.5,0.2,0.9
		l0,0l-1.4,2.2c-0.5,0.7-0.5,0.4-0.6,0.3L680.2,454z"/>
	<path class="st2" d="M679.2,451.5c0-0.4,1-1.2,1.6-1.2s0.2,0.1,0.3,0.3s0.1,0.4-0.1,0.6l-1,0.9h-0.5
		C679.3,452,679.1,451.7,679.2,451.5z"/>
</g>
<g class="st0">
	<path class="st1" d="M492.3,219.6c-0.1-2.2,0.3-4.4,1.1-6.4c0.6-1.4,1.4-2.8,2.3-4.1c0.3-0.6,0.9-1,1.5-1.1
		c0.4-0.2,0.9-0.1,1.2,0.3c0.1,0.1,0.1,0.3,0.1,0.5c0.2,0.9,0.3,1.8,0.4,2.7c0.3,1.6,1.3,3,2.8,3.7l0.8,0.5c-2.2,4-5.1,7.8-6.8,12.1
		c-0.9-0.6-1.6-1.5-2-2.5C492.8,223.5,492.3,221.6,492.3,219.6z"/>
	<path class="st1" d="M496.2,229.8c0.6-1.5,1.2-2.9,2-4.3c1.8-3.2,3.7-6.3,5.6-9.4c0.6-1.2,2-1.7,3.2-1.1l2.5,1l0.9,0.5
		c-1.1,2.2-1.9,4.6-2.2,7c-0.9,3.9-1.5,7.8-1.8,11.8c0,1.1,0,2.2,0.1,3.3s-0.1,0.6-0.5,0.5c-0.4,0.1-0.9,0-1.3-0.1
		c-2.3-0.9-4.6-2.1-6.6-3.5C496.1,234.3,495.3,231.9,496.2,229.8z"/>
	<path class="st1" d="M507.8,239.5c0,1.1,0.8,2.1,1.8,2.5c1.5,0.6,3.1,0.9,4.7,0.9c1.6,0,3.1-0.1,4.7-0.4c1.8-0.1,3.5-0.6,5.1-1.5
		c2-0.9,3.1-3.1,2.7-5.2c-0.3-2.4-0.5-3.8-0.8-5.8l-1.8-10.9c-0.3-1.8-1-3.2-3-3.4h-1.3c-1.8,0-3.7,0.2-5.5,0.6
		c-2,0.3-3.6,1.7-4,3.7c-0.5,1.8-0.9,3.6-1.3,5.5c-0.8,3.8-1.3,7.6-1.5,11.5C507.6,237.8,507.6,238.7,507.8,239.5z M523.6,234.5
		c0.3,0.2,0.4,0.5,0.3,0.8c0,0,0,0.1-0.1,0.1l0,0c-0.4,0.8-0.9,1.5-1.4,2.2c-0.5,0.7-0.5,0.4-0.6,0.3s-0.4-0.4-0.6-0.5
		s0.2-0.5,0.3-0.6l1.2-2C522.9,234.5,523.3,234.4,523.6,234.5L523.6,234.5z M521.8,233.7c0,0.1,0.3,0.1,0.3,0.3
		c0.1,0.2,0.1,0.4,0,0.6l-1.1,0.9h-0.5c-0.2-0.1-0.2-0.3-0.3-0.5c0.4-0.6,0.9-1,1.6-1.2V233.7z"/>
	<path class="st1" d="M524.7,216.1c0.8-0.7,1.8-1.2,2.9-1.4c0.8-0.3,1.7,0,2.2,0.7c0.9,1,1.7,2,2.4,3c1.3,1.8,2.5,3.7,3.6,5.6
		c1,1.6,1.8,3.4,2.8,5.2v0.2c0.9,2,0.7,3.2-0.9,4.8c-1.3,1.2-2.7,2.2-4.3,2.9c-1.1,0.7-2.3,1.1-3.6,1.2h-2c0.3-2.1,0.2-4.2-0.3-6.2
		c-0.3-2.1-0.8-5.4-1.2-8s-0.8-3.9-1.2-5.9c-0.1-0.5-0.3-1.1-0.5-1.6C524.5,216.5,524.5,216.3,524.7,216.1z"/>
	<path class="st1" d="M531.7,215.7l0.5-0.3c1.6-1,2.9-2.4,3.8-4c0.4-0.8,0.9-1.6,1.5-2.4c1-1.1,2.1-1.1,3,0.1
		c0.3,0.4,0.6,0.8,0.8,1.2c0.9,2,1.5,4.1,1.9,6.3c0.2,1.8,0.1,3.7-0.5,5.4c-0.6,2-1.4,3.9-2.5,5.7l-0.7,0.9
		C537.5,224,534.8,219.6,531.7,215.7z"/>
	<path class="st2" d="M521.2,237.4c0.1-0.2,0.2-0.4,0.3-0.6l1.2-2c0.2-0.3,0.6-0.4,0.9-0.3c0.3,0.2,0.4,0.5,0.3,0.8
		c0,0,0,0.1-0.1,0.1l0,0c-0.4,0.8-0.9,1.5-1.4,2.2c-0.5,0.7-0.5,0.4-0.6,0.3S521.4,237.5,521.2,237.4z"/>
	<path class="st2" d="M520.2,234.9c0.4-0.6,0.9-1,1.6-1.2c0.5,0,0.3,0.1,0.3,0.3c0.1,0.2,0.1,0.4,0,0.6l-1.1,0.9h-0.5
		C520.3,235.3,520.3,235.1,520.2,234.9z"/>
</g>
<g class="st0">
	<path class="st1" d="M238.1,366.3c-0.1-2.2,0.3-4.3,1.1-6.3c0.6-1.5,1.4-2.9,2.3-4.2c0.4-0.5,0.9-0.9,1.5-1.1
		c0.4-0.2,0.9-0.1,1.2,0.3c0.1,0.2,0.1,0.3,0.1,0.5c0.2,0.9,0.3,1.8,0.4,2.7c0.3,1.6,1.3,3.1,2.8,3.8l0.8,0.5
		c-2.2,4-5.1,7.7-6.8,12.1c-0.9-0.7-1.6-1.6-2-2.6C238.6,370.2,238.1,368.3,238.1,366.3z"/>
	<path class="st1" d="M242.1,376.5c0.5-1.5,1.1-2.9,1.9-4.3l5.6-9.4c0.9-1.3,1.8-1.6,3.2-1l2.5,0.9l0.9,0.6c-1.1,2.2-1.9,4.6-2.2,7
		c-0.9,3.8-1.5,7.8-1.8,11.7c0,1.1,0,2.3,0.1,3.4s-0.1,0.5-0.5,0.5l-1.3-0.2c-2.3-0.8-4.6-2-6.6-3.4
		C241.9,381.1,241.1,378.6,242.1,376.5z"/>
	<path class="st1" d="M253.6,386.3c0.1,1.1,0.8,2,1.8,2.4c1.5,0.6,3.1,0.9,4.7,0.9c1.6,0,3.1-0.1,4.7-0.3c1.8-0.2,3.5-0.7,5.1-1.5
		c2-0.9,3.2-3,2.7-5.2c-0.3-2.4-0.5-3.9-0.8-5.9l-1.8-10.9c-0.3-1.7-1-3.2-3-3.3h-1.3c-1.8-0.1-3.7,0.1-5.5,0.5
		c-2,0.3-3.6,1.8-4,3.8c-0.5,1.8-0.9,3.6-1.3,5.4c-0.8,3.8-1.3,7.6-1.5,11.5C253.4,384.6,253.5,385.4,253.6,386.3z M269.4,381.2
		c0.3,0.2,0.4,0.6,0.3,0.9h-0.1l-1.4,2.2c-0.5,0.7-0.5,0.4-0.6,0.3s-0.4-0.4-0.6-0.6s0.2-0.5,0.3-0.6l1.2-1.9
		c0.2-0.4,0.5-0.6,0.9-0.4L269.4,381.2z M267.6,380.4c0,0.1,0.3,0.2,0.3,0.3c0.1,0.2,0.1,0.4,0,0.6c-0.3,0.4-0.6,0.7-1,0.9h-0.6
		c-0.1-0.1-0.2-0.3-0.3-0.5C266,381.3,267.1,380.5,267.6,380.4z"/>
	<path class="st1" d="M270.5,362.8c0.8-0.7,1.8-1.2,2.9-1.4c0.8-0.2,1.7,0.1,2.2,0.7c0.9,1,1.7,2,2.4,3.1c1.3,1.8,2.5,3.6,3.6,5.5
		c1,1.7,1.8,3.5,2.8,5.2v0.2c1,2.1,0.7,3.3-0.9,4.9c-1.3,1.1-2.8,2.1-4.3,2.9c-1.1,0.6-2.3,1-3.6,1.2h-1.9c0.4-2.2-0.1-4.1-0.4-6.2
		l-1.2-8c-0.4-2.6-0.8-3.9-1.2-5.8c-0.1-0.6-0.3-1.1-0.5-1.6c-0.1-0.2-0.1-0.4,0.1-0.5V362.8z"/>
	<path class="st1" d="M277.5,362.5c0.1-0.2,0.3-0.3,0.5-0.3c1.6-1,2.9-2.4,3.8-4.1c0.4-0.8,0.9-1.6,1.5-2.4c1-1.1,2.1-1,3,0.2
		c0.3,0.3,0.6,0.7,0.8,1.1c0.9,2,1.5,4.1,1.9,6.3c0.2,1.8,0.1,3.7-0.5,5.4c-0.6,2-1.4,4-2.5,5.8l-0.7,0.8
		C283.3,370.7,280.7,366.4,277.5,362.5z"/>
	<path class="st2" d="M267,384.1c0.2-0.2,0.2-0.5,0.3-0.6l1.2-1.9c0.2-0.4,0.5-0.6,0.9-0.4c0.3,0.2,0.4,0.6,0.3,0.9h-0.1l-1.4,2.2
		c-0.5,0.7-0.5,0.4-0.6,0.3S267.2,384.3,267,384.1z"/>
	<path class="st2" d="M266,381.7c0-0.4,1.1-1.2,1.6-1.3s0.3,0.2,0.3,0.3c0.1,0.2,0.1,0.4,0,0.6c-0.3,0.4-0.6,0.7-1,0.9h-0.6
		C266.2,382.1,266.1,381.9,266,381.7z"/>
</g>
<g class="st0">
	<path class="st1" d="M23.7,60.7c0-2.2,0.4-4.3,1.1-6.4c0.7-1.4,1.4-2.8,2.3-4.1c0.3-0.6,0.9-1,1.6-1.1c0.4-0.2,0.9-0.1,1.2,0.3
		c0.1,0.1,0.1,0.3,0.1,0.5c0.2,0.9,0.3,1.8,0.4,2.7c0.2,1.6,1.2,3,2.7,3.7l0.9,0.5c-2.3,4-5.1,7.8-6.8,12.1
		c-0.9-0.6-1.6-1.5-2.1-2.5C24.3,64.6,23.8,62.7,23.7,60.7z"/>
	<path class="st1" d="M27.7,70.9c0.5-1.5,1.2-2.9,2-4.3c1.8-3.2,3.7-6.3,5.6-9.4c0.5-1.2,1.9-1.7,3-1.2c0.1,0,0.1,0.1,0.2,0.1l2.4,1
		l1,0.5c-1.1,2.2-1.9,4.6-2.2,7c-0.9,3.9-1.5,7.8-1.8,11.8c0,1.1,0,2.2,0.1,3.3s-0.2,0.6-0.5,0.5c-0.5,0.1-0.9,0-1.4-0.1
		c-2.3-0.9-4.5-2.1-6.5-3.5C27.6,75.4,26.8,73,27.7,70.9z"/>
	<path class="st1" d="M39.3,80.6c0,1.1,0.7,2.1,1.8,2.5c1.5,0.6,3.1,0.9,4.7,0.9c1.6,0,3.1-0.1,4.7-0.4c1.8-0.1,3.5-0.6,5-1.5
		c2-0.9,3.2-3,2.8-5.2c-0.3-2.4-0.5-3.8-0.8-5.8c-0.6-3.7-1.2-7.3-1.9-10.9c-0.2-1.8-0.9-3.2-2.9-3.4h-1.3c-1.9,0-3.8,0.2-5.6,0.6
		c-2,0.3-3.6,1.7-4,3.7l-1.2,5.5c-0.8,3.8-1.4,7.6-1.6,11.4C39.1,78.9,39.2,79.7,39.3,80.6z M55.1,75.6c0.3,0.2,0.4,0.5,0.3,0.8
		c0,0,0,0.1-0.1,0.1l0,0c-0.4,0.8-0.9,1.5-1.4,2.2c-0.5,0.7-0.5,0.4-0.6,0.3s-0.4-0.4-0.6-0.5s0.1-0.5,0.3-0.6l1.2-2
		c0.1-0.3,0.5-0.5,0.8-0.4C55,75.5,55.1,75.6,55.1,75.6z M53.3,74.8c0,0.1,0.2,0.1,0.3,0.3s0.1,0.4-0.1,0.6l-1,0.9H52
		c-0.2-0.1-0.3-0.3-0.3-0.5c0.3-0.6,0.9-1.1,1.6-1.2V74.8z"/>
	<path class="st1" d="M56.2,57.2c0.8-0.7,1.8-1.2,2.9-1.4c0.8-0.3,1.7,0,2.2,0.7c0.8,1,1.6,2,2.3,3c1.3,1.8,2.5,3.7,3.7,5.6
		c1.2,1.9,1.8,3.4,2.7,5.2v0.2c0.9,2,0.7,3.2-0.9,4.8c-1.3,1.2-2.7,2.2-4.3,2.9c-1.1,0.7-2.3,1.1-3.6,1.2h-2
		c0.3-2.1,0.2-4.2-0.3-6.2c-0.4-2.1-0.8-5.4-1.2-8s-0.8-3.9-1.2-5.9c-0.1-0.5-0.3-1.1-0.5-1.6c-0.1-0.1-0.1-0.3,0.1-0.5L56.2,57.2z"
		/>
	<path class="st1" d="M63.1,56.8l0.6-0.3c1.5-1.1,2.8-2.4,3.8-4c0.4-0.8,0.9-1.6,1.5-2.4c0.9-1.2,2.1-1.1,3,0.1
		c0.3,0.4,0.6,0.8,0.8,1.2c0.9,2,1.5,4.1,1.8,6.2c0.3,1.8,0.1,3.7-0.4,5.5c-0.6,2-1.4,3.9-2.5,5.7l-0.8,0.9
		C68.7,65.1,66.5,60.7,63.1,56.8z"/>
	<path class="st2" d="M52.7,78.5c0.1-0.3,0.1-0.5,0.3-0.6l1.2-2c0.2-0.3,0.5-0.4,0.8-0.2s0.4,0.5,0.2,0.8l0,0l0,0
		c-0.4,0.8-0.9,1.5-1.4,2.2c-0.5,0.7-0.5,0.4-0.6,0.3S52.9,78.6,52.7,78.5z"/>
	<path class="st2" d="M51.7,76c0.3-0.6,0.9-1.1,1.6-1.2c0.5,0,0.2,0.1,0.3,0.3s0.1,0.4-0.1,0.6l-1,0.9h-0.6
		C51.8,76.4,51.7,76.2,51.7,76z"/>
</g>
<g class="st0">
	<path class="st1" d="M137.2,700.8c0-2.2,0.4-4.3,1.1-6.4c0.6-1.4,1.4-2.8,2.3-4.1c0.3-0.6,0.9-1,1.5-1.1c0.4-0.3,0.9-0.2,1.1,0.2
		c0,0,0.1,0.1,0.1,0.1c0.1,0.1,0.2,0.3,0.2,0.4c0.2,0.9,0.2,1.9,0.4,2.8c0.2,1.6,1.2,3,2.7,3.7l0.8,0.5c-2.2,4-5,7.8-6.8,12.1
		c-0.9-0.7-1.6-1.6-2-2.6C137.7,704.7,137.3,702.7,137.2,700.8z"/>
	<path class="st1" d="M141.2,711c0.5-1.5,1.1-2.9,1.9-4.3c1.8-3.2,3.7-6.4,5.7-9.4c0.8-1.4,1.7-1.6,3.2-1.1l2.4,0.9l1,0.6
		c-1.4,2.2-1.8,4.6-2.3,7c-0.8,3.9-1.4,7.8-1.8,11.8c0,1,0.1,2.2,0.1,3.3s-0.1,0.6-0.5,0.5c-0.4,0-0.9,0-1.3-0.2
		c-2.3-0.9-4.6-2-6.6-3.4C141,715.2,140.3,713.3,141.2,711z"/>
	<path class="st1" d="M152.7,720.7c0.1,1.1,0.8,2.1,1.8,2.5c1.5,0.5,3.1,0.8,4.7,0.9c1.6,0,3.2-0.1,4.7-0.4c1.8-0.1,3.5-0.6,5.1-1.5
		c2-0.9,3.2-3,2.7-5.2c-0.3-2.4-0.4-3.8-0.8-5.8c-0.5-3.7-1.2-7.3-1.8-10.9c-0.3-1.8-1-3.2-3-3.4h-1.3c-1.8,0-3.7,0.1-5.5,0.5
		c-2,0.3-3.6,1.8-4,3.8c-0.4,1.8-0.9,3.6-1.3,5.5c-0.8,3.8-1.3,7.6-1.5,11.5C152.6,718.9,152.6,719.8,152.7,720.7z M168.5,715.7
		c0.3,0.1,0.4,0.5,0.3,0.8c0,0,0,0,0,0c0,0.1,0,0.1-0.1,0.1l-1.4,2.2c-0.5,0.7-0.4,0.4-0.6,0.3l-0.6-0.5c-0.2-0.2,0.2-0.5,0.4-0.7
		l1.1-1.9C167.9,715.7,168.1,715.5,168.5,715.7L168.5,715.7z M166.7,714.9c0.2,0,0.3,0.1,0.3,0.3c0.1,0.2,0.1,0.4,0,0.6l-1,0.9h-0.6
		c-0.1-0.1-0.2-0.3-0.2-0.5C165.1,715.8,166.2,715,166.7,714.9L166.7,714.9z"/>
	<path class="st1" d="M169.6,697.3c0.8-0.7,1.9-1.2,3-1.4c0.8-0.3,1.6,0,2.2,0.6l2.3,3.1c1.3,1.8,2.5,3.7,3.6,5.5s1.9,3.5,2.8,5.3
		v0.2c0.9,2,0.6,3.2-0.9,4.8c-1.3,1.1-2.7,2.1-4.3,2.9c-1.1,0.7-2.4,1.1-3.7,1.2h-1.9c0.3-2.1,0.1-4.2-0.4-6.3
		c-0.3-2-0.7-5.3-1.2-7.9s-0.7-3.9-1.1-5.9c-0.1-0.6-0.3-1.1-0.6-1.6C169.3,697.7,169.4,697.4,169.6,697.3L169.6,697.3z"/>
	<path class="st1" d="M176.6,696.9l0.5-0.3c1.6-1,2.9-2.4,3.8-4c0.5-0.8,1-1.6,1.5-2.4c1-1.2,2.1-1.1,3.1,0.1
		c0.3,0.3,0.5,0.7,0.7,1.1c0.9,2,1.5,4.1,1.9,6.3c0.3,1.8,0.1,3.7-0.5,5.5c-0.5,2-1.3,4-2.5,5.7l-0.7,0.9
		C182.2,705.2,180,700.7,176.6,696.9z"/>
	<path class="st2" d="M166.1,718.6c0.2-0.3,0.2-0.5,0.4-0.7l1.1-1.9c0.3-0.3,0.5-0.5,0.9-0.3c0.3,0.1,0.4,0.5,0.3,0.8c0,0,0,0,0,0
		c0,0.1,0,0.1-0.1,0.1l-1.4,2.2c-0.5,0.7-0.4,0.4-0.6,0.3L166.1,718.6z"/>
	<path class="st2" d="M165.2,716.1c-0.1-0.4,1-1.2,1.5-1.2s0.3,0.1,0.3,0.3c0.1,0.2,0.1,0.4,0,0.6l-1,0.9h-0.6
		C165.3,716.5,165.2,716.3,165.2,716.1z"/>
</g>
<g class="st0">
	<path class="st1" d="M376.6,607.2c-0.1-2.2,0.3-4.4,1.1-6.4c0.6-1.4,1.4-2.8,2.3-4.1c0.3-0.6,0.9-1,1.5-1.1
		c0.4-0.2,0.9-0.1,1.2,0.3c0.1,0.1,0.1,0.3,0.1,0.4c0.2,0.9,0.3,1.9,0.4,2.8c0.3,1.6,1.3,3,2.7,3.7l0.9,0.5c-2.2,4-5.1,7.8-6.8,12.1
		c-0.9-0.7-1.6-1.6-2-2.6C377.1,611.1,376.6,609.2,376.6,607.2z"/>
	<path class="st1" d="M380.5,617.4c0.5-1.5,1.2-2.9,2-4.3c1.8-3.2,3.7-6.4,5.6-9.4c0.8-1.4,1.7-1.6,3.2-1.1l2.5,0.9l0.9,0.6
		c-1.1,2.2-1.9,4.6-2.2,7c-0.9,3.9-1.5,7.8-1.8,11.8c0,1,0,2.2,0.1,3.3s-0.1,0.6-0.5,0.5c-0.5,0-1,0-1.4-0.2c-2.3-0.8-4.5-2-6.5-3.4
		C380.4,621.9,379.6,619.5,380.5,617.4z"/>
	<path class="st1" d="M392.1,627.1c0,1.1,0.7,2.1,1.8,2.5c1.5,0.5,3.1,0.8,4.7,0.9c1.6,0,3.1-0.1,4.7-0.4c1.8-0.1,3.5-0.6,5-1.5
		c2-0.9,3.2-3,2.8-5.2c-0.3-2.4-0.5-3.8-0.8-5.8c-0.6-3.7-1.2-7.4-1.9-10.9c-0.2-1.8-0.9-3.2-2.9-3.4h-1.3c-1.8,0-3.7,0.1-5.5,0.5
		c-2,0.3-3.6,1.8-4,3.8c-0.5,1.8-0.9,3.6-1.3,5.5c-0.8,3.8-1.4,7.6-1.5,11.5C391.9,625.4,391.9,626.3,392.1,627.1z M407.9,622.1
		c0.3,0.1,0.4,0.4,0.3,0.6c0,0.1-0.1,0.1-0.1,0.2l0,0l-1.4,2.2c-0.5,0.7-0.5,0.4-0.6,0.3l-0.6-0.5c-0.2-0.2,0.2-0.5,0.3-0.7l1.2-1.9
		c0.2-0.3,0.6-0.4,0.9-0.3V622.1z M406.1,621.3c0.1,0.1,0.2,0.2,0.3,0.3c0.1,0.2,0.1,0.4,0,0.6l-1.1,0.9h-0.5
		c-0.2-0.1-0.3-0.3-0.3-0.5C404.5,622.2,405.6,621.4,406.1,621.3L406.1,621.3z"/>
	<path class="st1" d="M409,603.7c0.8-0.8,1.8-1.2,2.9-1.4c0.8-0.3,1.7,0,2.2,0.6l2.3,3.1c1.3,1.8,2.6,3.7,3.7,5.5l2.7,5.2v0.3
		c0.9,2,0.7,3.2-0.9,4.8c-1.3,1.2-2.7,2.1-4.3,2.9c-1.1,0.7-2.3,1.1-3.6,1.2h-2c0.3-2.1,0.2-4.2-0.3-6.3l-1.2-7.9
		c-0.4-2.7-0.8-3.9-1.2-5.9c-0.1-0.5-0.3-1.1-0.5-1.6c-0.1-0.1-0.1-0.3,0-0.4C408.8,603.7,408.9,603.7,409,603.7L409,603.7z"/>
	<path class="st1" d="M416,603.3l0.5-0.3c1.6-1,2.9-2.4,3.8-4c0.4-0.9,0.9-1.7,1.5-2.4c1-1.2,2.1-1.1,3,0.1c0.3,0.3,0.6,0.7,0.8,1.1
		c0.9,2,1.5,4.1,1.8,6.3c0.3,1.8,0.2,3.7-0.4,5.5c-0.6,2-1.4,3.9-2.5,5.7l-0.7,0.9C421.5,611.6,419.3,607.1,416,603.3z"/>
	<path class="st2" d="M405.5,625l0.3-0.7l1.2-1.9c0.2-0.3,0.6-0.4,0.9-0.3c0.3,0.1,0.4,0.4,0.3,0.6c0,0.1-0.1,0.1-0.1,0.2l0,0
		l-1.4,2.2c-0.5,0.7-0.5,0.4-0.6,0.3L405.5,625z"/>
	<path class="st2" d="M404.5,622.5c0-0.4,1.1-1.2,1.6-1.2s0.2,0.1,0.3,0.3c0.1,0.2,0.1,0.4,0,0.6l-1.1,0.9h-0.5
		C404.6,623,404.4,622.7,404.5,622.5z"/>
</g>
</svg>
