<svg id="Capa_1" data-name="Capa 1" xmlns="http://www.w3.org/2000/svg" viewBox="0 0 710.2 710.2"><defs><style>.cls-1{fill:#532b17;}</style></defs><title>icon-feature-02</title><path class="cls-1" d="M355.1,99.6c-172.8,2.1-312,84.4-312,185.6v27.1s1.7,88.8,1.7,128.2c0,99.1,147.6,167.3,310.3,170.1,162.7-2.8,310.3-71,310.3-170.1,0-39.4,1.7-128.2,1.7-128.2V285.2C667.1,184,527.9,101.7,355.1,99.6ZM532.9,275.1l32.3-23.4A13.1,13.1,0,0,1,580.6,273l-32.3,23.4a13,13,0,0,1-18.3-3A13,13,0,0,1,532.9,275.1ZM431.4,168.2l32.2-23.4a13.2,13.2,0,0,1,15.5,21.3l-32.3,23.4a13.1,13.1,0,1,1-15.4-21.3Zm-75.6,35.3C418.3,205,468,227.4,468,254.8s-49.7,49.8-112.2,51.3c-62.6-1.5-112.2-23.9-112.2-51.3S293.2,205,355.8,203.5Zm81.6,156.3-32.3,23.3a12.9,12.9,0,0,1-7.7,2.5,13.1,13.1,0,0,1-7.7-23.8L422,338.5a13.1,13.1,0,0,1,15.4,21.3ZM231,168.2l32.3-23.4a13.1,13.1,0,0,1,15.4,21.3l-32.3,23.4a13,13,0,0,1-18.3-3A13,13,0,0,1,231,168.2ZM198.7,329.6,231,306.2a13.1,13.1,0,0,1,15.4,21.3l-32.3,23.4a13.5,13.5,0,0,1-7.7,2.4,12.9,12.9,0,0,1-10.6-5.4A13,13,0,0,1,198.7,329.6Zm-66.6-43.1,32.3-23.3a13.1,13.1,0,1,1,15.4,21.3l-32.3,23.3a12.8,12.8,0,0,1-7.6,2.5,13.2,13.2,0,0,1-7.8-23.8ZM621.2,445.2c0,74.4-130.9,123.6-266.1,126.7-134.9-3.1-266-52.3-266-126.7l-.5-65.7,7.8,8.1c15,13.2,32.8,24.6,53.1,35.2V445a26.4,26.4,0,0,0,26.3,26.6,25.3,25.3,0,0,0,19.7-9.1v42a27,27,0,0,0,53.9,0V458.2l5.9,1.3v12.1a26.5,26.5,0,0,0,51.2,9.7v52.4a27,27,0,0,0,53.9,0V470.6c13.8-.4,27.6-1.5,41.3-2.8v3.8a26.7,26.7,0,0,0,53.3,0V459.5c17.7-3.9,36.2-8.4,52.9-14.1a26.4,26.4,0,0,0,52.8-.4V422.8c20.4-10.6,38.1-22,53.1-35.2l7.8-8.1Z"/></svg>