<svg id="Capa_1" data-name="Capa 1" xmlns="http://www.w3.org/2000/svg" viewBox="0 0 710.2 710.2"><defs><style>.cls-1{fill:#fff;}</style></defs><title>icon-feature-04-w</title><path class="cls-1" d="M441,309a34,34,0,0,0-6.6-16.4l24.5-152.2a10.9,10.9,0,0,0-8.3-12.3h-.3a10.9,10.9,0,0,0-12.9,7.5L392.8,283a33.5,33.5,0,0,0,15,63.6,31.9,31.9,0,0,0,9.8-1.6L511,393.5a11.2,11.2,0,0,0,14.6-3.9v-.2a11.2,11.2,0,0,0-2.4-14.9Zm-49.9,4a16.7,16.7,0,1,1,16.7,16.6A16.6,16.6,0,0,1,391.1,313Zm270,0c0,112.6-73.9,208.3-175.8,241.1v-36C568.1,486.7,627.1,406.6,627.1,313c0-120.9-98.4-219.3-219.3-219.3S188.5,192.1,188.5,313a220.2,220.2,0,0,0,2.9,35.6H157a245.5,245.5,0,0,1-2.6-35.6c0-139.7,113.7-253.4,253.4-253.4S661.1,173.3,661.1,313ZM451.9,493.5l-78-77.1a25.9,25.9,0,0,0-18.5-7.7H316V394a19.9,19.9,0,0,0-19.9-19.9H69A19.9,19.9,0,0,0,49.1,394V526.8H459.8V512.3A26.6,26.6,0,0,0,451.9,493.5Zm-34,2.6H342.4a3,3,0,0,1-3-3.1V434.7a3,3,0,0,1,3-3.1h14.4a3.6,3.6,0,0,1,2.2.9l61.1,58.3A3.1,3.1,0,0,1,417.9,496.1Zm41.9,41.7v43.9a19.9,19.9,0,0,1-19.9,19.9H418.7a54.5,54.5,0,0,0-107.8,0H203.3a54.4,54.4,0,0,0-107.7,0H69a19.9,19.9,0,0,1-19.9-19.9V537.8Zm-95,30.5a41.2,41.2,0,1,0,41.1,41.1A41.2,41.2,0,0,0,364.8,568.3Zm0,61.7a20.6,20.6,0,1,1,20.5-20.6A20.6,20.6,0,0,1,364.8,630ZM149.4,568.3a41.2,41.2,0,1,0,41.1,41.1A41.2,41.2,0,0,0,149.4,568.3Zm0,61.7A20.6,20.6,0,1,1,170,609.4,20.6,20.6,0,0,1,149.4,630Z"/></svg>