<?xml version="1.0" encoding="utf-8"?>
<!-- Generator: Adobe Illustrator 16.0.2, SVG Export Plug-In . SVG Version: 6.00 Build 0)  -->
<!DOCTYPE svg PUBLIC "-//W3C//DTD SVG 1.1//EN" "http://www.w3.org/Graphics/SVG/1.1/DTD/svg11.dtd">
<svg version="1.1" id="圖層_1" xmlns="http://www.w3.org/2000/svg" xmlns:xlink="http://www.w3.org/1999/xlink" x="0px" y="0px"
	 width="600px" height="600px" viewBox="0 0 600 600" enable-background="new 0 0 600 600" xml:space="preserve">
<g>
	<path fill="#FFFFFF" d="M448.899,371.51c-26.66,55.399-83.319,93.63-148.898,93.63c-68.03,0-126.45-41.141-151.75-99.899
		c7.58,2.819,15.659,6.05,20.358,8.62l0.341,0.159c0.069,0.021,7.141,2.689,8.771,8.939l0.11,0.33
		c0.318,0.771,8.01,19,22.119,20.891c0.789,0.109,1.579,0.159,2.369,0.159c7.852,0,15.841-5.199,23.802-15.479l0.34-0.44l0.12-0.54
		c0.01-0.029,0.948-3.88,3.96-5.729c1.71-1.051,3.84-1.28,6.358-0.7c1.87,0.91,11.37,5.021,20.15-0.84c1.1-0.37,6.43-1.69,10.22,6
		l0.16,0.31l0.229,0.261c0.261,0.29,6.471,7.011,15.471,7.119h0.22c5.74,0,11.2-2.67,16.229-7.949l0.17-0.189l0.141-0.22
		c0.26-0.421,6.53-10.301,15.979-4.7l0.341,0.16c0.358,0.148,8.909,3.409,18.369-7.771c1.421-0.89,10.199-5.51,21.021,6.92
		c1.07,1.771,8.07,12.671,19.03,13.25c7.81,0.41,15.489-4.489,22.79-14.59l0.358-0.5l0.091-0.63c0.319-2.39,1.351-5.18,2.069-5.649
		c0.29,0.101,1.72,0.779,4.271,5.301l0.198,0.35l0.302,0.271c4.42,4.029,15.858,9.301,27.448,0.381l0.271-0.2l0.189-0.25
		C432.88,377.93,437.81,371.84,448.899,371.51z"/>
	<path fill="#FFFFFF" d="M300,134.86c-91.2,0-165.142,73.939-165.142,165.14c0,20.78,3.841,40.66,10.852,58.971
		c8.699,3.149,19.199,7.21,25.14,10.42c1.42,0.551,9.44,4.029,11.66,12.12c0.689,1.569,7.41,16.289,18.12,17.721
		c6.62,0.869,13.76-3.511,21.229-13.04c0.48-1.57,2.091-5.86,6.07-8.301c2.94-1.819,6.46-2.229,10.44-1.229l0.3,0.08l0.279,0.14
		c0.329,0.181,8.421,4.352,15.521-0.56l0.21-0.15l0.25-0.1c3.6-1.511,11.66-1.74,16.64,7.96c1.021,1.01,5.642,5.22,11.66,5.27h0.11
		c4.27,0,8.45-2.09,12.45-6.22c3.209-5,11.77-12.399,22.39-6.28c0.85,0.24,6.18,1.32,12.79-6.648l0.188-0.23l0.24-0.18
		c0.13-0.101,13.29-9.51,28.13,7.71l0.28,0.39c0.061,0.11,6.16,10.511,15.1,10.971c5.87,0.311,11.99-3.739,18.102-12.04
		c0.43-2.609,1.85-8.47,6-9.26c4.04-0.779,7.229,3.71,9.34,7.369c1.66,1.352,10.41,7.66,20.54,0.062
		c1.38-1.631,8.37-8.94,22.31-8.431c8.96-20.351,13.94-42.851,13.94-66.511C465.14,208.8,391.198,134.86,300,134.86z M159.72,288.26
		c0-0.45,0.08-0.9,0.24-1.341l4.38-12.01c0.729-2.02,2.97-3.06,4.99-2.33c1.579,0.58,2.568,2.08,2.568,3.67
		c0,0.44-0.08,0.891-0.239,1.33l-4.381,12.01c-0.738,2.021-2.97,3.061-5,2.32C160.699,291.33,159.72,289.84,159.72,288.26z
		 M180.52,344.51c-0.75,1.149-1.99,1.779-3.27,1.779c-0.73,0-1.46-0.21-2.12-0.63l-10.721-6.95c-1.801-1.18-2.311-3.59-1.141-5.399
		c0.74-1.149,1.99-1.771,3.271-1.771c0.72,0,1.46,0.2,2.119,0.63l10.721,6.95C181.18,340.3,181.689,342.71,180.52,344.51z
		 M231.14,283c1.24,0.73,1.93,2.03,1.93,3.36c0,0.67-0.18,1.35-0.54,1.97l-6.47,11.03c-1.09,1.85-3.47,2.47-5.33,1.38
		c-1.24-0.729-1.93-2.02-1.93-3.36c0-0.67,0.18-1.35,0.54-1.97l6.47-11.02C226.899,282.53,229.29,281.91,231.14,283z M217.26,235.04
		c-0.92,0-1.84-0.319-2.58-0.97l-9.57-8.47c-1.62-1.431-1.76-3.891-0.34-5.5c0.771-0.87,1.852-1.311,2.92-1.311
		c0.92,0,1.84,0.32,2.58,0.971l9.57,8.47c1.609,1.43,1.76,3.89,0.34,5.5C219.409,234.6,218.33,235.04,217.26,235.04z
		 M235.949,352.17l-12.159,3.94c-2.04,0.659-4.24-0.46-4.9-2.511c-0.13-0.399-0.189-0.801-0.189-1.199c0-1.641,1.051-3.17,2.689-3.7
		l12.16-3.939c2.05-0.671,4.24,0.46,4.91,2.5c0.13,0.399,0.188,0.8,0.188,1.199C238.649,350.11,237.6,351.64,235.949,352.17z
		 M314.25,165.49c0.56-0.28,1.148-0.41,1.729-0.41c1.44,0,2.811,0.8,3.49,2.17l5.67,11.46c0.95,1.931,0.16,4.261-1.76,5.221
		c-0.551,0.27-1.142,0.399-1.722,0.399c-1.438,0-2.829-0.79-3.51-2.17l-5.66-11.45C311.529,168.78,312.319,166.44,314.25,165.49z
		 M292.39,221.51l5.26-11.65c0.892-1.96,3.2-2.83,5.16-1.94c1.44,0.65,2.29,2.07,2.29,3.551c0,0.54-0.11,1.079-0.34,1.6l-5.26,11.65
		c-0.892,1.96-3.19,2.829-5.16,1.949c-1.44-0.649-2.29-2.08-2.29-3.56C292.05,222.57,292.159,222.03,292.39,221.51z M254.8,167.72
		l7.87-10.07c1.318-1.7,3.77-2,5.47-0.67c0.99,0.77,1.5,1.91,1.5,3.069c0,0.841-0.27,1.69-0.83,2.4l-7.859,10.07
		c-1.329,1.689-3.779,2-5.471,0.67c-0.989-0.771-1.5-1.91-1.5-3.07C253.979,169.28,254.25,168.43,254.8,167.72z M300,358.27
		c-32.182,0-58.271-26.09-58.271-58.271c0-32.18,26.09-58.27,58.271-58.27c32.18,0,58.27,26.09,58.27,58.27
		C358.27,332.18,332.18,358.27,300,358.27z M374.899,215.12l-5.66-11.45c-0.96-1.93-0.17-4.27,1.761-5.22
		c0.561-0.28,1.149-0.41,1.729-0.41c1.44,0,2.811,0.8,3.49,2.17l5.67,11.46c0.95,1.92,0.16,4.261-1.76,5.221
		c-0.551,0.27-1.142,0.399-1.722,0.399C376.97,217.29,375.579,216.5,374.899,215.12z M386.859,338.51
		c-0.55,0.271-1.14,0.399-1.72,0.399c-1.44,0-2.82-0.79-3.5-2.16l-5.67-11.46c-0.96-1.93-0.17-4.26,1.76-5.22
		c0.55-0.271,1.141-0.4,1.72-0.4c1.44,0,2.82,0.79,3.5,2.16l5.671,11.46C389.569,335.22,388.779,337.56,386.859,338.51z
		 M391.46,258.98l-5.642,11.47c-0.949,1.93-3.29,2.73-5.22,1.78c-1.38-0.68-2.18-2.061-2.18-3.5c0-0.58,0.13-1.17,0.398-1.72
		l5.642-11.461c0.948-1.939,3.289-2.729,5.22-1.779c1.38,0.68,2.18,2.06,2.18,3.5C391.859,257.84,391.729,258.43,391.46,258.98z
		 M427.479,274.55l-5.67-11.449c-0.95-1.931-0.16-4.271,1.771-5.221c0.561-0.27,1.149-0.399,1.729-0.399
		c1.43,0,2.811,0.79,3.49,2.16l5.67,11.46c0.95,1.93,0.16,4.26-1.771,5.22c-0.55,0.27-1.14,0.4-1.72,0.4
		C429.539,276.72,428.158,275.93,427.479,274.55z M440.479,326.23l-3.77,12.21c-0.642,2.06-2.82,3.21-4.881,2.568
		c-1.671-0.52-2.739-2.06-2.739-3.729c0-0.38,0.05-0.761,0.17-1.141l3.779-12.21c0.631-2.061,2.811-3.21,4.869-2.569
		c1.671,0.51,2.75,2.05,2.75,3.71C440.658,325.45,440.6,325.84,440.479,326.23z"/>
</g>
</svg>
