<svg id="圖層_1" data-name="圖層 1" xmlns="http://www.w3.org/2000/svg" viewBox="0 0 200 200"><defs><style>.cls-1{fill:#532b17;}</style></defs><title>icon-faq-03</title><g id="圖層_1-2" data-name="圖層 1"><circle class="cls-1" cx="64.8" cy="47.6" r="18.3"/><polygon class="cls-1" points="64.2 77.8 55.1 68.6 73.3 68.6 64.2 77.8"/><path class="cls-1" d="M91.5,75v26.4H37.6V75A6.4,6.4,0,0,1,44,68.6h7.6L63.3,80.3a1.2,1.2,0,0,0,.9.4.9.9,0,0,0,.8-.4L76.7,68.6h8.4A6.4,6.4,0,0,1,91.5,75Z"/><circle class="cls-1" cx="136.4" cy="47.6" r="18.3"/><path class="cls-1" d="M110.2,115.2h51.6a6.2,6.2,0,0,1-3.9,2.6h-.1a11.1,11.1,0,0,0-4.5,6.3h0L149.5,165a5.8,5.8,0,0,1-5.8,5.7H128.3a5.8,5.8,0,0,1-5.7-5.7l-4.1-40.9h0a11.2,11.2,0,0,0-4.4-6.4h0A6.5,6.5,0,0,1,110.2,115.2Z"/><path class="cls-1" d="M163,75v26.2H109.1V75a6.4,6.4,0,0,1,6.4-6.4h41.1A6.4,6.4,0,0,1,163,75Z"/><path class="cls-1" d="M168.7,109.4a12.3,12.3,0,0,1-.2,2.8,1.9,1.9,0,0,1,.2.8v55.3a2.2,2.2,0,0,1-4.4,0V115.2H35.7v53.1a2.1,2.1,0,0,1-2.1,2.2,2.2,2.2,0,0,1-2.2-2.2V113a1.3,1.3,0,0,1,.1-.6h0a12.8,12.8,0,0,1-.2-2.9V107c0-3.2.2-5.8,3.4-5.8h2.9v.2H91.5v-.2h73.8c3.2,0,3.4,2.6,3.4,5.8v2.4Z"/><rect class="cls-1" x="37.6" y="101.2" width="53.9" height="0.24"/></g></svg>