<?xml version="1.0" encoding="utf-8"?>
<!-- Generator: Adobe Illustrator 16.0.2, SVG Export Plug-In . SVG Version: 6.00 Build 0)  -->
<!DOCTYPE svg PUBLIC "-//W3C//DTD SVG 1.1//EN" "http://www.w3.org/Graphics/SVG/1.1/DTD/svg11.dtd">
<svg version="1.1" id="圖層_1" xmlns="http://www.w3.org/2000/svg" xmlns:xlink="http://www.w3.org/1999/xlink" x="0px" y="0px"
	 width="600px" height="600px" viewBox="0 0 600 600" enable-background="new 0 0 600 600" xml:space="preserve">
<g>
	<circle cx="300" cy="238.213" r="90"/>
	<path d="M444.788,397.427C406.1,431.278,355.448,451.787,300,451.787c-55.45,0-106.102-20.51-144.79-54.358
		c3.12-18.239,40.398-48.972,92.1-62.672c14.812,10.723,33.01,17.03,52.69,17.03c19.68,0,37.88-6.31,52.688-17.03
		c18.85,4.98,35.78,12.24,49.84,20.342C427.03,369.207,442.8,385.837,444.788,397.427z"/>
	<path stroke="#FFFFFF" stroke-miterlimit="10" d="M155.21,397.427c38.688,33.851,89.34,54.358,144.79,54.358
		c55.448,0,106.1-20.51,144.788-54.358"/>
</g>
</svg>
