<?xml version="1.0" encoding="utf-8"?>
<!-- Generator: Adobe Illustrator 16.0.2, SVG Export Plug-In . SVG Version: 6.00 Build 0)  -->
<!DOCTYPE svg PUBLIC "-//W3C//DTD SVG 1.1//EN" "http://www.w3.org/Graphics/SVG/1.1/DTD/svg11.dtd">
<svg version="1.1" id="圖層_1" xmlns="http://www.w3.org/2000/svg" xmlns:xlink="http://www.w3.org/1999/xlink" x="0px" y="0px"
	 width="600px" height="600px" viewBox="0 0 600 600" enable-background="new 0 0 600 600" xml:space="preserve">
<g>
	<path fill="#FFFFFF" d="M464.1,278.587c0,35.702-25.361,65.477-59.055,72.294v65.939H193.719v-60.038
		c-33.467-10.234-57.818-41.364-57.818-78.195c0-45.139,36.605-81.729,81.744-81.729c0.601,0,1.185,0,1.78,0.025
		c8.414-42.521,45.938-74.565,90.93-74.565c48.103,0,87.646,36.632,92.245,83.539C437.503,211.689,464.1,242.034,464.1,278.587z"/>
	<path fill="#FFFFFF" d="M405.045,439.416v13.026c0,13.943-11.3,25.241-25.229,25.241H218.96c-13.943,0-25.241-11.298-25.241-25.241
		v-13.026H405.045z"/>
</g>
</svg>
