<?xml version="1.0" encoding="utf-8"?>
<!-- Generator: Adobe Illustrator 16.0.2, SVG Export Plug-In . SVG Version: 6.00 Build 0)  -->
<!DOCTYPE svg PUBLIC "-//W3C//DTD SVG 1.1//EN" "http://www.w3.org/Graphics/SVG/1.1/DTD/svg11.dtd">
<svg version="1.1" id="圖層_1" xmlns="http://www.w3.org/2000/svg" xmlns:xlink="http://www.w3.org/1999/xlink" x="0px" y="0px"
	 width="600px" height="600px" viewBox="0 0 600 600" enable-background="new 0 0 600 600" xml:space="preserve">
<g>
	<path fill-rule="evenodd" clip-rule="evenodd" d="M448.899,371.51c-26.66,55.4-83.319,93.63-148.899,93.63
		c-68.03,0-126.45-41.14-151.75-99.899c7.58,2.819,15.659,6.05,20.359,8.62l0.34,0.159c0.07,0.021,7.141,2.69,8.771,8.94l0.11,0.33
		c0.319,0.77,8.01,19,22.119,20.89c0.79,0.11,1.58,0.16,2.37,0.16c7.851,0,15.84-5.2,23.801-15.479l0.34-0.44l0.12-0.54
		c0.01-0.03,0.949-3.88,3.96-5.729c1.71-1.051,3.84-1.28,6.359-0.7c1.87,0.91,11.37,5.02,20.15-0.84c1.1-0.37,6.43-1.69,10.22,6
		l0.16,0.31l0.229,0.26c0.261,0.29,6.471,7.011,15.471,7.12h0.22c5.74,0,11.2-2.67,16.23-7.95l0.17-0.189l0.14-0.22
		c0.26-0.421,6.53-10.301,15.98-4.7l0.34,0.16c0.359,0.149,8.91,3.409,18.37-7.771c1.42-0.89,10.199-5.51,21.02,6.92
		c1.07,1.771,8.07,12.67,19.03,13.25c7.81,0.41,15.49-4.49,22.79-14.59l0.359-0.5l0.091-0.63c0.319-2.39,1.35-5.18,2.069-5.65
		c0.29,0.101,1.72,0.78,4.271,5.301l0.199,0.35l0.301,0.27c4.42,4.03,15.859,9.301,27.449,0.381l0.271-0.2l0.19-0.25
		C432.88,377.93,437.81,371.84,448.899,371.51z"/>
	<path fill-rule="evenodd" clip-rule="evenodd" d="M300,134.86c-91.2,0-165.141,73.94-165.141,165.14
		c0,20.78,3.84,40.66,10.851,58.97c8.699,3.15,19.199,7.21,25.14,10.42c1.42,0.551,9.44,4.03,11.66,12.12
		c0.689,1.57,7.41,16.29,18.12,17.721c6.62,0.869,13.76-3.511,21.229-13.04c0.48-1.57,2.09-5.86,6.07-8.301
		c2.94-1.819,6.46-2.229,10.44-1.229l0.3,0.08l0.279,0.14c0.33,0.18,8.421,4.351,15.521-0.56l0.21-0.15l0.25-0.1
		c3.6-1.511,11.66-1.74,16.64,7.96c1.021,1.01,5.641,5.22,11.66,5.27h0.11c4.27,0,8.45-2.09,12.45-6.22
		c3.21-5,11.77-12.4,22.39-6.28c0.85,0.24,6.18,1.32,12.79-6.649l0.189-0.23l0.24-0.18c0.13-0.101,13.29-9.51,28.13,7.71l0.28,0.39
		c0.061,0.11,6.16,10.51,15.1,10.97c5.87,0.311,11.99-3.739,18.101-12.04c0.43-2.609,1.85-8.47,6-9.26
		c4.04-0.779,7.229,3.71,9.34,7.37c1.66,1.351,10.41,7.66,20.54,0.061c1.38-1.631,8.37-8.94,22.31-8.431
		c8.96-20.35,13.94-42.85,13.94-66.51C465.14,208.8,391.199,134.86,300,134.86z M159.72,288.26c0-0.45,0.08-0.9,0.24-1.34
		l4.38-12.01c0.729-2.02,2.97-3.06,4.99-2.33c1.579,0.58,2.569,2.08,2.569,3.67c0,0.44-0.08,0.89-0.24,1.33l-4.38,12.01
		c-0.739,2.02-2.97,3.06-5,2.32C160.699,291.33,159.72,289.84,159.72,288.26z M180.52,344.51c-0.75,1.15-1.99,1.78-3.27,1.78
		c-0.73,0-1.46-0.21-2.12-0.63l-10.721-6.95c-1.8-1.18-2.31-3.59-1.14-5.4c0.74-1.149,1.99-1.77,3.271-1.77
		c0.72,0,1.46,0.2,2.119,0.63l10.721,6.95C181.18,340.3,181.689,342.71,180.52,344.51z M231.14,283c1.24,0.73,1.93,2.03,1.93,3.36
		c0,0.67-0.18,1.35-0.54,1.97l-6.47,11.03c-1.09,1.85-3.47,2.47-5.33,1.38c-1.24-0.73-1.93-2.02-1.93-3.36
		c0-0.67,0.18-1.35,0.54-1.97l6.47-11.02C226.899,282.53,229.29,281.91,231.14,283z M217.26,235.04c-0.92,0-1.84-0.32-2.58-0.97
		l-9.57-8.47c-1.62-1.43-1.76-3.89-0.34-5.5c0.771-0.87,1.851-1.31,2.92-1.31c0.92,0,1.84,0.32,2.58,0.97l9.57,8.47
		c1.609,1.43,1.76,3.89,0.34,5.5C219.409,234.6,218.33,235.04,217.26,235.04z M235.949,352.17l-12.159,3.94
		c-2.04,0.659-4.24-0.46-4.9-2.511c-0.13-0.399-0.19-0.8-0.19-1.199c0-1.641,1.051-3.17,2.69-3.7l12.16-3.94
		c2.05-0.67,4.24,0.46,4.91,2.5c0.13,0.4,0.189,0.8,0.189,1.2C238.649,350.11,237.6,351.64,235.949,352.17z M314.25,165.49
		c0.56-0.28,1.149-0.41,1.729-0.41c1.44,0,2.811,0.8,3.49,2.17l5.67,11.46c0.95,1.93,0.16,4.26-1.76,5.22
		c-0.55,0.27-1.141,0.4-1.721,0.4c-1.439,0-2.829-0.79-3.51-2.17l-5.66-11.45C311.529,168.78,312.319,166.44,314.25,165.49z
		 M292.39,221.51l5.26-11.65c0.891-1.96,3.2-2.83,5.16-1.94c1.44,0.65,2.29,2.07,2.29,3.55c0,0.54-0.11,1.08-0.34,1.6l-5.26,11.65
		c-0.891,1.96-3.19,2.83-5.16,1.95c-1.44-0.65-2.29-2.08-2.29-3.56C292.05,222.57,292.159,222.03,292.39,221.51z M254.8,167.72
		l7.87-10.07c1.319-1.7,3.77-2,5.47-0.67c0.99,0.77,1.5,1.91,1.5,3.07c0,0.84-0.27,1.69-0.83,2.4l-7.86,10.07
		c-1.329,1.69-3.779,2-5.47,0.67c-0.99-0.77-1.5-1.91-1.5-3.07C253.979,169.28,254.25,168.43,254.8,167.72z M300,358.27
		c-32.181,0-58.271-26.09-58.271-58.27c0-32.18,26.09-58.27,58.271-58.27c32.18,0,58.27,26.09,58.27,58.27
		C358.27,332.18,332.18,358.27,300,358.27z M374.899,215.12l-5.66-11.45c-0.96-1.93-0.17-4.27,1.761-5.22
		c0.56-0.28,1.149-0.41,1.729-0.41c1.44,0,2.811,0.8,3.49,2.17l5.67,11.46c0.95,1.92,0.16,4.26-1.76,5.22
		c-0.55,0.27-1.141,0.4-1.721,0.4C376.97,217.29,375.58,216.5,374.899,215.12z M386.859,338.51c-0.55,0.271-1.14,0.4-1.72,0.4
		c-1.44,0-2.82-0.79-3.5-2.16l-5.67-11.46c-0.96-1.93-0.17-4.26,1.76-5.22c0.55-0.271,1.141-0.4,1.72-0.4c1.44,0,2.82,0.79,3.5,2.16
		l5.671,11.46C389.569,335.22,388.779,337.56,386.859,338.51z M391.46,258.98l-5.641,11.47c-0.949,1.93-3.29,2.73-5.22,1.78
		c-1.38-0.68-2.18-2.06-2.18-3.5c0-0.58,0.13-1.17,0.399-1.72l5.641-11.46c0.949-1.94,3.29-2.73,5.22-1.78
		c1.38,0.68,2.18,2.06,2.18,3.5C391.859,257.84,391.729,258.43,391.46,258.98z M427.479,274.55l-5.67-11.45
		c-0.95-1.93-0.16-4.27,1.771-5.22c0.56-0.27,1.149-0.4,1.729-0.4c1.43,0,2.811,0.79,3.49,2.16l5.67,11.46
		c0.95,1.93,0.16,4.26-1.771,5.22c-0.55,0.27-1.14,0.4-1.72,0.4C429.54,276.72,428.159,275.93,427.479,274.55z M440.479,326.23
		l-3.77,12.21c-0.641,2.06-2.82,3.21-4.88,2.569c-1.671-0.52-2.74-2.06-2.74-3.729c0-0.38,0.05-0.761,0.17-1.141l3.78-12.21
		c0.63-2.06,2.81-3.21,4.869-2.569c1.671,0.51,2.75,2.05,2.75,3.71C440.659,325.45,440.6,325.84,440.479,326.23z"/>
</g>
</svg>
