<?xml version="1.0" encoding="utf-8"?>
<!-- Generator: Adobe Illustrator 16.0.2, SVG Export Plug-In . SVG Version: 6.00 Build 0)  -->
<!DOCTYPE svg PUBLIC "-//W3C//DTD SVG 1.1//EN" "http://www.w3.org/Graphics/SVG/1.1/DTD/svg11.dtd">
<svg version="1.1" id="圖層_1" xmlns="http://www.w3.org/2000/svg" xmlns:xlink="http://www.w3.org/1999/xlink" x="0px" y="0px"
	 width="600px" height="600px" viewBox="0 0 600 600" enable-background="new 0 0 600 600" xml:space="preserve">
<path fill="#FFFFFF" d="M402.15,179.06v-19.61c4.58,0,7.852-3.931,7.852-7.851c0-4.58-3.271-8.5-7.852-8.5H198.18
	c-4.58,0-7.84,3.92-7.84,7.851c0,4.569,3.26,8.5,7.84,8.5v19.609h-54.91v26.801c0,65.38,40.53,121.6,97.4,145.13
	c7.51,3.22,15.35,5.77,23.43,7.66c6.521,4.75,13.43,9.029,20.7,12.81l-3.59,8.3c0.068,0.04,0.148,0.07,0.229,0.11l-0.229,0.54
	l-9.812,20.92H234.79c-7.19,0-13.07,5.88-13.07,13.08v42.49h156.24v-42.49c0.658-7.2-5.229-13.08-12.422-13.08H328.93l-9.812-20.92
	l-3.771-8.72c7.54-3.841,14.7-8.25,21.431-13.16c7.88-1.891,15.54-4.391,22.88-7.54c56.87-23.53,97.41-79.75,97.41-145.13v-26.8
	H402.15L402.15,179.06z M199.49,288.89c-18.312-22.229-30.07-51.649-30.07-83.029v-0.65h28.76v24.182
	c0,28.29,7.45,55.261,20.78,78.738C211.85,302.43,205.33,295.99,199.49,288.89z M371.67,234.01l-29.99,29.229l7.08,41.271
	c0.528,3.09-0.74,6.198-3.271,8.038c-1.431,1.04-3.13,1.57-4.83,1.57c-1.311,0-2.62-0.311-3.83-0.938l-37.06-19.489L262.7,313.18
	c-2.771,1.448-6.12,1.21-8.65-0.632c-2.53-1.84-3.8-4.948-3.271-8.038l7.07-41.271L227.87,234.01c-2.24-2.189-3.052-5.45-2.08-8.432
	c0.96-2.97,3.54-5.14,6.63-5.59l41.438-6.021l18.54-37.562c1.38-2.8,4.24-4.58,7.37-4.58s5.979,1.78,7.37,4.58l18.53,37.562
	l41.438,6.021c3.102,0.45,5.67,2.62,6.63,5.59C374.71,228.56,373.9,231.82,371.67,234.01z M400.84,288.89
	c-5.66,6.729-11.979,12.92-18.84,18.46c12.938-23.222,20.148-49.739,20.148-77.302v-24.84h28.109v0.65h0.66
	C430.92,237.24,419.8,266,400.84,288.89z M312.85,225.12l-13.08-26.5l-13.068,26.5c-1.2,2.42-3.521,4.11-6.19,4.49l-29.24,4.25
	l21.16,20.62c1.93,1.89,2.82,4.607,2.36,7.279l-5,29.118l26.148-13.75c2.4-1.26,5.26-1.26,7.65,0l26.148,13.75l-4.99-29.118
	c-0.46-2.672,0.422-5.392,2.36-7.279l21.159-20.62l-29.229-4.25C316.36,229.23,314.038,227.54,312.85,225.12z"/>
</svg>
