<svg id="Capa_1" data-name="Capa 1" xmlns="http://www.w3.org/2000/svg" viewBox="0 0 710.2 710.2"><defs><style>.cls-1{fill:#532b17;}</style></defs><title>icon-feature-01</title><g id="圖層_1" data-name="圖層 1"><path class="cls-1" d="M365.1,369.4v297l302-157.1v-297Zm216-33.5v.2l-6.3,64c-.1,5.2-5,18.3-13.1,31.5-6.6,10.7-17,24.5-31.3,33.3,0,.3.1.7.1,1.1l.2,61.6,23.4-11.5c2.9-1.4,5.4,0,5.4,3.2a10.2,10.2,0,0,1-5.4,8.5l-57.4,28.3c-3,1.5-5.4,0-5.4-3.2a9.9,9.9,0,0,1,5.3-8.5L520,532.9l-.3-61.6a6.9,6.9,0,0,1,.2-1.3c-27.8,10-44.5-13.8-44.8-22.7l-6.8-56h0V391h0v-.3a.4.4,0,0,1,.1-.3V390a.4.4,0,0,0,.1-.3c.1,0,.1-.1.1-.3s.1-.1.1-.2.2-.2.2-.3l.2-.3c0-.1.1-.1.1-.2l.2-.3a.2.2,0,0,0,.2-.2l.3-.2.2-.2.3-.2h.4l107.9-52.8h1.7a.1.1,0,0,1,.1.1h.2c0,.1,0,.1.1.2h.1a.3.3,0,0,0,.1.2c0,.1,0,.2.1.2v.6h0Z"/><polygon class="cls-1" points="217.2 302.1 217.2 350.4 173.5 326.2 173.5 280.2 217.2 302.1"/><path class="cls-1" d="M346.4,367V666.5L43.1,514.2V214.7l119.2,59.9v55.6a6.4,6.4,0,0,0,.2.7v.2c.1.2.1.4.2.6l.3.6c.1.1.1.1.1.2l.3.3v.2l.3.3h0a.1.1,0,0,1,.1.1l.3.2.4.4.6.3h0l54.9,30.3.6.3h.1l1.3.4h1.5l1.4-.4.5-.3h.3l.3-.3.3-.2h0l.3-.3h.1l.3-.4h.1l.2-.3c0-.1.1-.1.1-.2a.5.5,0,0,0,.2-.4l.3-.5a.3.3,0,0,1,.1-.2c0-.2.1-.3.1-.5v-.3a.4.4,0,0,1,.1-.3v-53Z"/><path class="cls-1" d="M460.5,101.5,166.6,253.4a6.1,6.1,0,0,0-1.6,1.2L51.8,198.5,351.4,43.7Z"/><path class="cls-1" d="M512.1,128.8,220.2,279.6l-1,.7-.3.3-.4.4a.1.1,0,0,1-.1.1h0l-41.3-20.5,294.2-152,1.1-.8Z"/><polygon class="cls-1" points="648.4 201 353.9 348.2 230.4 287 524.2 135.2 648.4 201"/></g></svg>