<?xml version="1.0" encoding="utf-8"?>
<!-- Generator: Adobe Illustrator 22.1.0, SVG Export Plug-In . SVG Version: 6.00 Build 0)  -->
<svg version="1.1" id="Capa_1" xmlns="http://www.w3.org/2000/svg" xmlns:xlink="http://www.w3.org/1999/xlink" x="0px" y="0px"
	 viewBox="0 0 710.2 710.2" style="enable-background:new 0 0 710.2 710.2;" xml:space="preserve">
<style type="text/css">
	.st0{display:none;}
	.st1{display:inline;fill:#FFFFFF;}
	.st2{display:none;fill:#210F09;}
	.st3{display:none;fill:#532B17;}
	.st4{fill:#94512A;}
	.st5{display:inline;}
	.st6{fill:#FFFFFF;}
	.st7{fill:#532B17;}
</style>
<g class="st0">
	<path class="st1" d="M441,309c-0.7-6.1-3.1-11.7-6.6-16.3l24.5-152.2c0.9-5.7-2.7-11.1-8.3-12.4l-0.3-0.1c-5.6-1.3-11.2,2-12.9,7.5
		L392.8,283c-11,5.5-18.7,16.8-18.7,30c0,18.6,15.1,33.7,33.6,33.7c3.5,0,6.7-0.7,9.9-1.6l93.3,48.5c5.1,2.7,11.5,1,14.6-3.9
		l0.1-0.2c3.2-4.9,2.1-11.3-2.4-14.9L441,309z M391.1,313c0-9.2,7.5-16.6,16.6-16.6c9.2,0,16.6,7.5,16.6,16.6
		c0,9.2-7.5,16.6-16.6,16.6C398.6,329.6,391.1,322.2,391.1,313z M661.1,313c0,112.7-73.9,208.3-175.8,241.2l0-36.1
		c82.8-31.4,141.8-111.5,141.8-205.1c0-120.9-98.4-219.3-219.3-219.3c-120.9,0-219.3,98.4-219.3,219.3c0,12.1,1,24,2.9,35.6H157
		c-1.6-11.6-2.6-23.5-2.6-35.6c0-139.7,113.7-253.4,253.4-253.4C547.5,59.6,661.1,173.3,661.1,313z M451.9,493.5l-78-77.1
		c-4.9-4.9-11.7-7.7-18.6-7.7H316V394c0-11-8.9-19.8-19.9-19.8H69c-11,0-19.8,8.9-19.8,19.8v132.8h410.6v-14.5
		C459.8,505.3,456.9,498.4,451.9,493.5z M417.9,496.1h-75.5c-1.7,0-3.1-1.4-3.1-3.1v-58.3c0-1.7,1.4-3.1,3.1-3.1h14.4
		c0.8,0,1.6,0.3,2.2,0.9l61,58.3C422.1,492.7,420.8,496.1,417.9,496.1z M459.8,537.8v43.9c0,11-8.9,19.8-19.8,19.8h-21.2
		c-3.8-26.3-26.5-46.6-53.9-46.6c-27.3,0-50,20.2-53.9,46.6H203.3c-3.8-26.3-26.5-46.6-53.9-46.6s-50,20.2-53.9,46.6H69
		c-11,0-19.8-8.9-19.8-19.8v-43.9H459.8z M364.8,568.3c-22.7,0-41.2,18.4-41.2,41.1c0,22.7,18.5,41.2,41.2,41.2
		c22.7,0,41.1-18.5,41.1-41.2C405.9,586.7,387.6,568.3,364.8,568.3z M364.8,630c-11.4,0-20.6-9.2-20.6-20.6
		c0-11.3,9.2-20.6,20.6-20.6c11.3,0,20.5,9.3,20.5,20.6C385.3,620.8,376.1,630,364.8,630z M149.4,568.3c-22.7,0-41.2,18.4-41.2,41.1
		c0,22.7,18.5,41.2,41.2,41.2c22.7,0,41.1-18.5,41.1-41.2C190.5,586.7,172.1,568.3,149.4,568.3z M149.4,630
		c-11.4,0-20.6-9.2-20.6-20.6c0-11.3,9.2-20.6,20.6-20.6c11.3,0,20.6,9.3,20.6,20.6C170,620.8,160.7,630,149.4,630z"/>
</g>
<g class="st0">
	<g class="st5">
		<g>
			<polygon class="st6" points="667.1,507.2 514.3,576.6 514.3,235.3 667.1,197.3 			"/>
			<path class="st6" d="M411.1,361.9c0.1,3.1-2.8,4.4-6.6,3c-3.7-1.4-6.9-5-7-8.1c-0.1-3.1,2.8-4.4,6.6-3
				C407.9,355.2,411,358.8,411.1,361.9z"/>
			<path class="st6" d="M439.3,372.5c0.1,3.1-2.8,4.4-6.6,3c-3.7-1.4-6.8-5-7-8.1c-0.1-3.1,2.8-4.4,6.6-3
				C436.1,365.9,439.2,369.5,439.3,372.5z"/>
			<path class="st6" d="M406.8,403.9c-2.6-1-4.9-0.6-5.9,0.8c-0.4,0.6-0.7,1.3-0.7,2.2c0.1,3.1,3.2,6.7,7,8.1
				c3.3,1.2,5.9,0.4,6.5-1.9c0.1-0.3,0.1-0.7,0.1-1C413.7,408.9,410.5,405.3,406.8,403.9z M438.7,418.3c-1.3-1.9-3.3-3.6-5.6-4.5
				c-3.7-1.4-6.7-0.1-6.6,3c0,0.3,0,0.7,0.1,1c0.6,2.8,3.5,5.9,6.8,7.1c3.7,1.4,6.7,0.1,6.6-3C440,420.7,439.5,419.5,438.7,418.3z
				 M438.7,418.3c-1.3-1.9-3.3-3.6-5.6-4.5c-3.7-1.4-6.7-0.1-6.6,3c0,0.3,0,0.7,0.1,1c0.6,2.8,3.5,5.9,6.8,7.1
				c3.7,1.4,6.7,0.1,6.6-3C440,420.7,439.5,419.5,438.7,418.3z M406.8,403.9c-2.6-1-4.9-0.6-5.9,0.8c-0.4,0.6-0.7,1.3-0.7,2.2
				c0.1,3.1,3.2,6.7,7,8.1c3.3,1.2,5.9,0.4,6.5-1.9c0.1-0.3,0.1-0.7,0.1-1C413.7,408.9,410.5,405.3,406.8,403.9z M341.6,197.3v262.3
				c15.8,6,38.7,16.2,52.6,33.6c8.4,10.5,16.9,29.7,19.8,43.3l82.3,40.1V235.3L341.6,197.3z M445.8,340.4c0,0,24.7,6.2,26.2-6.8
				c0,0,2,27.1-14.9,26.5c-3.5-7.6-8.8-14.7-15.9-20.6C443.9,339.9,445.8,340.4,445.8,340.4z M374,350.8c-17.1,1-25-18.7-25-18.7
				c1.5-3.9,17.1-1.7,28.1,2.6C375,339.1,373.9,344.5,374,350.8z M361.8,291.6c2.1,14.4,26.9,27.3,26.9,27.3s2,1.1,4.8,2.7
				c-6.9,0.5-12,3.6-15.3,8.6C360.9,317.6,361.8,291.6,361.8,291.6z M442.1,438.5l-42.8-16.2c-5.8-2.2-14.8-12.3-15.1-20.6l-0.1-1.9
				c-0.1-4.3,2.1-7.4,5.1-8.9c2.8-1.5,6.2-1.7,9-0.6l42.8,16.2c2.6,1,5.7,3.4,8.5,6.6c3.6,4.1,6.5,9.3,6.6,14l0.1,1.9
				C456.4,437.2,447.9,440.7,442.1,438.5z M449.3,408.3c-2.8-3.2-5.9-5.6-8.5-6.6L398,385.5c-2.8-1.1-6.2-0.8-9,0.6
				c-5.9-9.6-9.3-16.8-9.8-31.6c0-0.6,0-1.2,0-1.8c0-6.2,1-11.7,3.2-16.1c0.5-1.1,1.1-2,1.7-2.9c3.4-4.9,8.6-7.9,15.6-8.3
				c0,0,0,0,0,0c5-0.3,10.8,0.7,17.7,3.3c6.8,2.6,12.7,6,17.8,10.1c7.2,5.8,12.7,12.8,16.5,20.4c0.7,1.4,1.4,2.9,2,4.3
				c2.5,6.1,3.7,7.7,4.2,14.1l0.2,4.8c0,0.6,0.1,1.2,0.1,1.8C458.5,398.2,455,402.8,449.3,408.3z M464,384.8L464,384.8
				c-0.4-6.4-1.8-12.8-4.3-18.9c11,4.1,26.8,13.7,28.6,18.9C488.4,384.7,481.6,398.9,464,384.8z M433.1,413.8
				c-3.7-1.4-6.7-0.1-6.6,3c0,0.3,0,0.7,0.1,1c0.6,2.8,3.5,5.9,6.8,7.1c3.7,1.4,6.7,0.1,6.6-3c0-1.2-0.5-2.4-1.3-3.6
				C437.5,416.4,435.4,414.7,433.1,413.8z M406.8,403.9c-2.6-1-4.9-0.6-5.9,0.8c-0.4,0.6-0.7,1.3-0.7,2.2c0.1,3.1,3.2,6.7,7,8.1
				c3.3,1.2,5.9,0.4,6.5-1.9c0.1-0.3,0.1-0.7,0.1-1C413.7,408.9,410.5,405.3,406.8,403.9z"/>
			<polygon class="st6" points="574.8,146.8 424.4,107.9 348.6,180.4 498.9,219.3 			"/>
			<polygon class="st6" points="591.2,135.8 432.4,96.9 432.4,64 591.2,102.9 			"/>
			<polygon class="st6" points="594.2,148.8 520.9,219.3 656.9,183.4 			"/>
		</g>
		<path class="st6" d="M381.9,506.6c-28.2-35.5-76.4-41.2-79.4-41.6c-0.9-0.1-5.2-0.6-7.8,2.6c-1.8,2.2-2.1,5.3-1,9.4
			c-6.4,1.2-20.2,4.5-26.9,11c-7.1,7-13.3,28-15.3,35.5c-2.8-0.4-7.2-0.4-10.5,2c-1.5,1.1-3.4,3.2-3.9,6.8c-0.7,0.5-1.6,1.1-2.8,1.9
			c-5.3-7.4-22.3-29-48.5-43.1l-0.3-0.2l-18.3-5.2l-7.2-10.9h-33.2l-0.6,0.3c-0.8,0.4-19.2,9.3-33.3,28.5
			c-13.1,17.8-24.8,47.9-5.7,90.6c0.6,1.4,15.3,34,50.2,45.4c7.8,2.5,15.9,3.8,24.4,3.8c13.7,0,28.3-3.3,43.7-10c0,0,0,0,0,0
			c0.2-0.1,0.3-0.1,0.4-0.2h0c0,0,0.1,0,0.1,0c3.3-1.4,6.6-3,10-4.7c7,2.6,15.9,4.2,26.9,4.8c24.1,8.8,46,13.2,65.7,13.2
			c17.7,0,33.5-3.6,47.4-10.7c34.7-17.8,43.7-51,44.1-52.4l0.1-0.4C403.9,552.4,397.9,526.7,381.9,506.6z M235.6,540.4
			c3.1-2.5,5.6-4,5.7-4l1.4-0.8l0.1-1.6c0.1-2.8,1.3-3.7,1.7-4c1.1-0.8,2.7-1.1,4.3-1.1c1.7,0,3.3,0.3,4.1,0.5l2.8,0.8l0.7-2.9
			c1.9-7.8,8.3-29.4,14.4-35.4c7.3-7.2,26.9-10,27.1-10l3.6-0.5l-1.4-3.4c-2.1-5.2-1.2-6.7-1-7c0.5-0.6,1.9-0.6,2.5-0.6l0.2,0
			c0.1,0,4.3,0.5,10.7,2c-0.4,0.7-0.6,1.4-0.7,2.1c-0.8,3.8,1.5,7.4,2.4,8.5l2.4,5.7c4,9,0.4,25.2-0.1,27.6l-0.3,0.5
			c-7,14.4-6.9,24.6-5.9,30.3l-4.9-1c-1.9-0.4-47.7-10.1-73.1,3.1c-2.5,1.3-4.8,2.5-7,3.6C227.5,547.8,231.9,543.4,235.6,540.4z
			 M204,627.8C203.9,627.8,203.9,627.8,204,627.8c-0.4,0.2-0.7,0.3-0.9,0.4c-12,4.3-38.3-19.2-52.5-35.5l-0.3-0.3l-0.3-0.2
			c-22.3-14.7-29.7-40.6-30.9-45.5l6-14.7l-2.9-1c-4.9-1.6-9.9-15.7-11.9-25.1l-0.1-0.6l-0.4-0.5c-2.8-3.9,6.1-15,13.2-21.3
			c2.4-1.5,4.3-2.5,5.1-3H157l6.7,10.1l19.7,5.6c25.1,13.6,41.7,35,46.5,41.6c-5,4.5-10.4,11.1-11.2,19c-15.1,8.7-22.4,16.8-24,38.2
			c-0.7,9.8,1.6,17.9,6.9,23.9c2.2,2.5,4.8,4.6,7.9,6.4C207.6,626.2,205.8,627,204,627.8z M315.9,583.7c-16.4,9.2-18.8,14.6-19,16.7
			c-1.5,10.8-8.6,10.8-9.3,10.8l-0.7,0l-0.7,0.3c-1.2,0.5-5.3,0.2-8.6,0c-9-0.6-20.2-1.4-22.4,7c-1.9,7.1-15.3,7.7-15.4,7.7l-1.3,1
			c-5.8-0.5-11-1.4-15.4-2.6c-0.2-0.1-0.4-0.1-0.7-0.2c-2.4-0.7-4.6-1.5-6.6-2.3c-4.2-1.9-7.5-4.2-9.9-6.9
			c-4.3-4.9-6.1-11.3-5.5-19.7c1.3-17.4,6.4-24.6,18.4-32c1.7-1.1,3.6-2.1,5.6-3.2c3.2-1.7,6.8-3.6,10.7-5.7
			c23.6-12.2,68.8-2.7,69.3-2.6l8.5,1.7c1,1.2,2,2.5,2.8,3.7c1.5,2,2.7,4.1,3.6,6C326,577,316.9,583.1,315.9,583.7z"/>
	</g>
	<g class="st5">
		<path class="st6" d="M260.2,264.7c-19.4-15.2-46.4-18.7-80.2-10.4c-3.9,1.1-8,1.7-12.1,1.7c-4.1,0-8.2-0.6-12.1-1.7
			c-10.9-2.8-22-4.3-33.2-4.4c-18.7,0-34.5,4.9-47,14.8c-20.9,16.3-32.3,46.9-32.3,86.1c0,23.3,5,48.5,14.1,70.9
			c9.7,24,23.2,43,39.1,55c2.8,2.1,5.7,4,8.7,5.7c11.6-12.6,23.9-18.6,24.5-18.9l0.5-0.3h30.1l6.6,9.9l16.6,4.7l0.3,0.1
			c7.1,3.8,13.4,8.3,19,12.8c13.1-0.7,25.4-5.4,36.9-14.1c15.9-12,29.4-30.9,39.1-54.9c9.1-22.4,14.1-47.6,14.1-70.9
			C292.6,311.6,281.1,281,260.2,264.7z M127,289c-17.7,0-29.1,4.2-36.1,13.3c-6.7,8.7-9.9,22.4-9.9,43c0,3.1-2.5,5.5-5.6,5.5
			c-3.1,0-5.5-2.5-5.5-5.5c0-23.3,3.9-39.1,12.2-49.8c9.2-11.8,23.9-17.6,44.9-17.6c3.1,0,5.6,2.5,5.6,5.5
			C132.5,286.6,130,289,127,289z"/>
		<path class="st6" d="M190.5,198.8l-9.9-5c-4.2,8.4-17,45.3-18.2,56.5l11,1.2C174.5,241.6,186.9,206.1,190.5,198.8z"/>
		<path class="st6" d="M79,167.6c2.9,41,35.5,73.6,76.6,76.6C152.6,203.1,120,170.5,79,167.6z"/>
	</g>
</g>
<g id="圖層_1_1_">
	<g>
		<path class="st6" d="M365.1,369.4v297l302-157.1v-297L365.1,369.4z M581.1,335.9c0,0,0,0.1,0,0.2l-6.4,64
			c-0.1,5.2-5,18.3-13.1,31.5c-6.5,10.6-17,24.5-31.3,33.3c0.1,0.3,0.1,0.7,0.1,1.2l0.2,61.6l23.4-11.5c3-1.5,5.4,0,5.4,3.2
			c0,3.2-2.4,7-5.4,8.5l-57.5,28.3c-3,1.5-5.4,0-5.4-3.2c0-3.2,2.4-7,5.4-8.5l23.4-11.5l-0.2-61.6c0-0.4,0-0.9,0.1-1.3
			c-27.8,10-44.5-13.8-44.7-22.7l-6.8-56c0,0,0-0.1,0-0.2c0,0,0-0.1,0-0.2c0,0,0-0.1,0-0.1c0-0.1,0-0.2,0-0.3c0-0.1,0-0.2,0-0.3
			c0-0.1,0-0.2,0.1-0.3c0-0.1,0.1-0.2,0.1-0.3c0-0.1,0.1-0.2,0.1-0.3c0-0.1,0.1-0.2,0.1-0.3c0.1-0.1,0.1-0.2,0.2-0.3
			c0.1-0.1,0.1-0.2,0.2-0.3c0-0.1,0.1-0.2,0.2-0.3c0.1-0.1,0.1-0.2,0.2-0.3c0.1-0.1,0.1-0.1,0.2-0.2c0.1-0.1,0.2-0.2,0.2-0.2
			c0.1-0.1,0.2-0.1,0.2-0.2c0.1-0.1,0.2-0.1,0.2-0.2c0,0,0.1-0.1,0.1-0.1c0.1,0,0.1,0,0.1-0.1c0.1,0,0.1-0.1,0.2-0.1c0,0,0,0,0,0
			l107.9-52.8c0.1,0,0.1,0,0.1-0.1c0,0,0.1-0.1,0.1-0.1c0,0,0.1,0,0.1,0c0.1,0,0.2-0.1,0.2-0.1c0.1,0,0.2,0,0.2,0c0.1,0,0.1,0,0.2,0
			s0.1,0,0.2,0c0.1,0,0.1,0,0.2,0c0.1,0,0.1,0.1,0.2,0.1c0.1,0,0.1,0.1,0.2,0.1c0,0,0.1,0.1,0.2,0.1c0,0,0.1,0.1,0.1,0.2
			c0,0,0.1,0.1,0.1,0.2c0,0.1,0,0.1,0.1,0.2c0,0.1,0,0.2,0.1,0.2c0,0.1,0,0.2,0,0.2c0,0.1,0,0.2,0,0.3c0,0,0,0.1,0,0.1
			C581.1,335.8,581.1,335.9,581.1,335.9z"/>
		<polygon class="st6" points="217.2,302.1 217.2,350.4 173.5,326.2 173.5,280.2 		"/>
		<path class="st6" d="M346.4,367v299.5L43.1,514.2V214.7l119.2,59.8v55c0,0.2,0,0.5,0,0.7c0,0.2,0.1,0.5,0.1,0.7
			c0,0.1,0,0.1,0.1,0.2c0.1,0.2,0.1,0.4,0.2,0.6c0.1,0.2,0.2,0.4,0.3,0.7c0,0,0.1,0.1,0.1,0.1c0.1,0.1,0.2,0.3,0.2,0.4
			c0,0,0.1,0.1,0.1,0.1c0.1,0.1,0.2,0.3,0.3,0.4c0,0,0,0,0,0c0,0,0.1,0.1,0.1,0.1c0.1,0.1,0.2,0.2,0.3,0.2c0.1,0.1,0.3,0.2,0.4,0.3
			c0.2,0.1,0.4,0.2,0.6,0.4l0,0l54.9,30.3c0.2,0.1,0.4,0.2,0.6,0.3c0.1,0,0.1,0,0.2,0.1c0.4,0.2,0.8,0.3,1.2,0.3c0,0,0.1,0,0.2,0
			c0.2,0,0.4,0,0.6,0c0.2,0,0.5,0,0.7,0c0.5-0.1,1-0.2,1.4-0.4c0.2-0.1,0.4-0.2,0.6-0.3c0,0,0,0,0,0c0.1,0,0.1-0.1,0.2-0.1
			c0.1-0.1,0.2-0.1,0.3-0.2c0.1-0.1,0.2-0.1,0.3-0.2c0,0,0,0,0,0c0.1-0.1,0.2-0.2,0.3-0.2c0,0,0.1-0.1,0.1-0.1
			c0.1-0.1,0.2-0.2,0.3-0.4c0,0,0,0,0,0c0.1-0.1,0.2-0.2,0.2-0.3c0,0,0.1-0.1,0.1-0.1c0.1-0.1,0.2-0.3,0.3-0.4
			c0.1-0.2,0.2-0.4,0.3-0.6c0-0.1,0-0.1,0.1-0.2c0.1-0.1,0.1-0.3,0.1-0.5c0-0.1,0.1-0.2,0.1-0.3c0-0.1,0.1-0.2,0.1-0.4
			c0-0.1,0-0.2,0-0.2c0-0.2,0-0.4,0-0.6v-52.1L346.4,367z"/>
		<path class="st6" d="M460.5,101.5l-294,151.9c-0.6,0.3-1.1,0.7-1.6,1.2L51.8,198.5L351.4,43.7L460.5,101.5z"/>
		<path class="st6" d="M512.1,128.8L220.2,279.6c-0.4,0.2-0.7,0.4-1,0.7c-0.1,0.1-0.3,0.2-0.4,0.4c-0.1,0.1-0.2,0.3-0.4,0.4
			c0,0,0,0,0,0.1h0l-41.3-20.5l294.1-152c0.4-0.2,0.8-0.5,1.2-0.8L512.1,128.8z"/>
		<polygon class="st6" points="648.4,201 353.9,348.2 230.4,287 524.2,135.2 		"/>
	</g>
</g>
<g class="st0">
	<path class="st1" d="M355.1,99.6c-172.8,2.1-312,84.3-312,185.5v27.2c0,0,1.7,88.7,1.7,128.1c0,99.1,147.6,167.3,310.3,170.1
		c162.7-2.7,310.3-71,310.3-170.1c0-39.4,1.7-128.1,1.7-128.1v-27.2C667.1,184,527.9,101.7,355.1,99.6z M532.9,275.1l32.3-23.4
		c5.9-4.3,14.1-2.9,18.3,2.9c4.3,5.9,2.9,14.1-2.9,18.3l-32.3,23.4c-2.3,1.7-5,2.5-7.7,2.5c-4.1,0-8.1-1.9-10.7-5.4
		C525.7,287.6,527,279.4,532.9,275.1z M431.4,168.2l32.3-23.4c5.9-4.3,14.1-2.9,18.3,2.9s2.9,14.1-2.9,18.3l-32.3,23.4
		c-2.3,1.7-5,2.5-7.7,2.5c-4.1,0-8.1-1.9-10.7-5.4C424.2,180.7,425.5,172.4,431.4,168.2z M355.8,203.5
		C418.3,205,468,227.4,468,254.8c0,27.4-49.7,49.8-112.2,51.3c-62.5-1.5-112.2-23.9-112.2-51.3C243.6,227.4,293.2,205,355.8,203.5z
		 M437.4,359.8l-32.3,23.4c-2.3,1.7-5,2.5-7.7,2.5c-4.1,0-8.1-1.9-10.7-5.4c-4.3-5.9-2.9-14.1,2.9-18.3l32.3-23.4
		c5.9-4.3,14.1-2.9,18.3,2.9C444.6,347.3,443.2,355.5,437.4,359.8z M231,168.2l32.3-23.4c5.9-4.3,14.1-2.9,18.3,2.9
		c4.3,5.9,2.9,14.1-2.9,18.3l-32.3,23.4c-2.3,1.7-5,2.5-7.7,2.5c-4.1,0-8.1-1.9-10.7-5.4C223.8,180.7,225.1,172.4,231,168.2z
		 M198.7,329.6l32.3-23.4c5.9-4.3,14.1-2.9,18.3,2.9c4.3,5.9,2.9,14.1-2.9,18.3l-32.3,23.4c-2.3,1.7-5,2.5-7.7,2.5
		c-4.1,0-8.1-1.9-10.7-5.4C191.5,342,192.8,333.8,198.7,329.6z M132.1,286.5l32.3-23.4c5.9-4.3,14.1-2.9,18.3,2.9
		c4.3,5.9,2.9,14.1-2.9,18.3l-32.3,23.4c-2.3,1.7-5,2.5-7.7,2.5c-4.1,0-8.1-1.9-10.7-5.4C125,299,126.3,290.8,132.1,286.5z
		 M621.2,445.2c0,74.5-130.9,123.7-266.1,126.7c-134.9-3.1-266.1-52.3-266.1-126.7l-0.4-65.6l7.8,8.1c15,13.3,32.7,24.6,53.1,35.2
		V445c0,14.6,11.7,26.5,26.3,26.5c8,0,15.1-3.5,19.7-9.1v42c0,14.7,12.3,26.9,26.9,26.9c14.7,0,26.9-12.2,26.9-26.9v-46.3
		c2,0.4,3.9,0.9,5.9,1.3v12.1c0,14.7,11.9,26.5,26.6,26.5c11.2,0,20.7-6.9,24.7-16.8v52.4c0,14.7,12.3,26.9,26.9,26.9
		s26.9-12.2,26.9-26.9v-63.2c13.8-0.4,27.6-1.4,41.4-2.8v3.8c0,14.7,11.9,26.5,26.6,26.5c14.7,0,26.6-11.9,26.6-26.5v-12.1
		c17.7-3.9,36.3-8.4,53-14.1c0.2,14.5,11.8,26.2,26.3,26.2c14.7,0,26.5-11.9,26.5-26.5v-22.2c20.4-10.6,38.1-22,53.1-35.2l7.8-8.1
		L621.2,445.2z"/>
</g>
</svg>
