<svg id="圖層_1" data-name="圖層 1" xmlns="http://www.w3.org/2000/svg" viewBox="0 0 300 300"><defs><style>.cls-1{fill:#382518;}.cls-2,.cls-3,.cls-4,.cls-5,.cls-6,.cls-7{fill:#fff;}.cls-3,.cls-4,.cls-5,.cls-6,.cls-7{stroke:#382518;stroke-miterlimit:10;}.cls-3{stroke-width:1.08px;}.cls-4{stroke-width:1.05px;}.cls-5{stroke-width:1.06px;}.cls-6{stroke-width:1.12px;}.cls-7{stroke-width:1.19px;}</style></defs><title>pp-logo</title><g id="_群組_" data-name="&lt;群組&gt;"><path id="_複合路徑_" data-name="&lt;複合路徑&gt;" class="cls-1" d="M61.1,184.4c4.4,12.4,6.6,18.5,10.7,31l-7.4,1c-.4-1.5-.7-2.2-1.1-3.7l-7.8,1.2c-.1,1.5-.2,2.3-.4,3.9L47.7,219c1.8-13.3,2.8-20,4.8-33.3ZM60,204.1c-.8-2.9-1.2-4.3-2.1-7.2-.3,3.1-.5,4.6-.8,7.6Z"/><path id="_複合路徑_2" data-name="&lt;複合路徑&gt;" class="cls-1" d="M88.8,187.8,84,201.1c2.6,4.9,3.9,7.3,6.3,12.2l-7.5.7-3.7-6.9.5,7.3-6.6.8-2-25.4,6.8-.8c.2,2.9.4,4.4.6,7.3,1-3,1.6-4.6,2.7-7.7Z"/><path id="_複合路徑_3" data-name="&lt;複合路徑&gt;" class="cls-1" d="M104.9,186.5c.1,3.2.2,4.8.3,8l-4.1.3c.3,7,.5,10.5.8,17.4l-6.7.6c-.3-7-.5-10.5-.9-17.5l-4.2.4-.5-8Z"/><path id="_複合路徑_4" data-name="&lt;複合路徑&gt;" class="cls-1" d="M121.6,203.3c0,3.1.1,4.7.1,7.8-5.9.2-8.9.4-14.9.8l-1-25.4c6.1-.5,9.2-.6,15.3-.9.1,3.1.1,4.6.2,7.7l-8.4.5v1.7l7.1-.4c0,2.6.1,4,.1,6.6l-7,.4a8.6,8.6,0,0,1,.1,1.6Z"/><path id="_複合路徑_5" data-name="&lt;複合路徑&gt;" class="cls-1" d="M145.8,178.3a10.6,10.6,0,0,1,5.2,1.3,11.5,11.5,0,0,1,4.1,3.5,17,17,0,0,1,3.7,11.4,18,18,0,0,1-1.1,6.2,15.6,15.6,0,0,1-2.8,5.1,13.1,13.1,0,0,1-4.1,3.4,10.1,10.1,0,0,1-5,1.3h-7.5c-.1-12.9-.1-19.4-.2-32.3Zm0,22.8a5,5,0,0,0,2.1-.5,6.2,6.2,0,0,0,1.8-1.4,9.4,9.4,0,0,0,1.2-2.2,7.6,7.6,0,0,0,.5-2.7,10.9,10.9,0,0,0-.4-2.6,6.6,6.6,0,0,0-1.2-2.2,4.9,4.9,0,0,0-1.8-1.4,4.3,4.3,0,0,0-2.2-.6Z"/><path id="_複合路徑_6" data-name="&lt;複合路徑&gt;" class="cls-1" d="M174.6,203.4c-.1,3.1-.1,4.7-.2,7.7l-15-.5c.2-10.1.3-15.2.4-25.4,6.2.1,9.3.2,15.4.5-.1,3.1-.1,4.6-.2,7.7l-8.5-.3v1.7l7,.3c0,2.6-.1,3.9-.2,6.6l-7-.3v1.7Z"/><path id="_複合路徑_7" data-name="&lt;複合路徑&gt;" class="cls-1" d="M183.9,185.9a11.7,11.7,0,0,1,3.2.4,13.4,13.4,0,0,1,3.3,1.2,1.9,1.9,0,0,1-.1.8v.7c0,.3-.1.9-.1,1.9s-.2,2.3-.4,4.2l-1.9-1-2.1-.7a3.2,3.2,0,0,0-1.3-.2.8.8,0,0,0-.7.3.2.2,0,0,0-.1.4c0,.2.3.4.6.5l2.5,1.3a9.4,9.4,0,0,1,1.9,1.4,6.5,6.5,0,0,1,1.5,1.8,5.8,5.8,0,0,1,1,2.1,10.1,10.1,0,0,1,.3,2.5,10.7,10.7,0,0,1-.7,3.3,9.5,9.5,0,0,1-1.6,2.6,7.3,7.3,0,0,1-2.3,1.6,9,9,0,0,1-2.8.8h-1.5l-1.7-.2-1.5-.3-1.5-.6-2.4-1.1c.7-3.3,1.1-4.9,1.8-8.1l1.5.7,1.4.8,1.5.7,1.5.5.5-.2a.5.5,0,0,0,.3-.5c.1-.1,0-.4-.1-.5l-.4-.4-.6-.4-.5-.2a7.9,7.9,0,0,1-2.5-1.5,8.3,8.3,0,0,1-2-2.2,9.5,9.5,0,0,1-1.7-5.4,8.3,8.3,0,0,1,1.3-4.2,6.6,6.6,0,0,1,3.8-2.6l1.4-.2Z"/><path id="_複合路徑_8" data-name="&lt;複合路徑&gt;" class="cls-1" d="M199.7,187l3.1.5a18.1,18.1,0,0,1,3.4,1.3c-.1.4-.1.6-.2.9v.6c0,.4-.1,1-.2,1.9s-.2,2.3-.4,4.2l-1.9-1-2-.8a3.4,3.4,0,0,0-1.3-.2l-.8.2c-.2.2-.2.3-.1.5s.3.3.6.5l2.5,1.4a13.3,13.3,0,0,1,1.9,1.4,11.9,11.9,0,0,1,1.5,1.8,8.5,8.5,0,0,1,.9,2.2,6.9,6.9,0,0,1,.2,2.5,11.4,11.4,0,0,1-.7,3.3,8.9,8.9,0,0,1-1.6,2.5,7.8,7.8,0,0,1-2.4,1.6,8.9,8.9,0,0,1-2.8.7h-1.5l-1.7-.2-1.4-.3-1.6-.7-2.3-1.2c.7-3.2,1.1-4.8,1.9-8l1.4.7,1.5.8,1.4.8,1.6.5h.5a.9.9,0,0,0,.3-.5c0-.2,0-.4-.2-.5l-.4-.5-.5-.3-.5-.3a7,7,0,0,1-2.5-1.5,14.3,14.3,0,0,1-2-2.3,11.1,11.1,0,0,1-1.2-2.7,6.7,6.7,0,0,1-.3-2.8,7.4,7.4,0,0,1,1.3-4.1,5.7,5.7,0,0,1,3.9-2.4,6.1,6.1,0,0,1,1.3-.3Z"/><path id="_複合路徑_9" data-name="&lt;複合路徑&gt;" class="cls-1" d="M222.8,207.7c-.2,3-.4,4.6-.6,7.7-6-.8-9-1.2-14.9-1.8.7-10.1,1-15.2,1.7-25.4l15.3,1.8c-.2,3.1-.4,4.6-.6,7.7l-8.5-1a9.7,9.7,0,0,1-.1,1.7l7.1.9c-.3,2.6-.4,3.9-.6,6.5l-7-.8c0,.6-.1,1-.1,1.7C217.8,207,219.5,207.2,222.8,207.7Z"/><path id="_複合路徑_10" data-name="&lt;複合路徑&gt;" class="cls-1" d="M241.2,218.2l-7.1-1.2a41.5,41.5,0,0,0-2-4.4,10.2,10.2,0,0,0-1.1-2c-.2-.4-.3-.5-.4-.4s-.1.2-.1.3l-.5,5.9-6.7-.9c.9-10.1,1.3-15.2,2.2-25.4l8.3,1.2a6.7,6.7,0,0,1,2.9,1.2,8.8,8.8,0,0,1,2.2,2.5,12.2,12.2,0,0,1,1.4,3.3,9.4,9.4,0,0,1,.2,3.7,11.9,11.9,0,0,1-.9,3.6,10.2,10.2,0,0,1-2.1,3C239,212.4,239.8,214.3,241.2,218.2ZM234,200.9a1.7,1.7,0,0,0-.3-1.4,1.5,1.5,0,0,0-1.1-.8h-1c-.2,1.5-.3,2.3-.4,3.9h1a1.3,1.3,0,0,0,1.2-.4A1.6,1.6,0,0,0,234,200.9Z"/><path id="_複合路徑_11" data-name="&lt;複合路徑&gt;" class="cls-1" d="M257.5,195.2l-1,7.9-4.1-.7-2,17.3-6.6-1.1c.7-7,1.1-10.4,1.8-17.4l-4.1-.7c.3-3.1.5-4.7.8-7.9Z"/></g><path class="cls-1" d="M164.2,51.4a10.6,10.6,0,0,0-7-8.3c-4.3-1.6-8.7-2.3-12.9,1a35.2,35.2,0,0,0-2.8-7.5,24.3,24.3,0,0,0-2.6-4.6c-3.6-4.6-9.2-9.6-16-11.1-1.2-.2-2.5-.2-3,1.1s.8,2.2,1.7,2.6a35.9,35.9,0,0,0,4.1,1.1,28.4,28.4,0,0,1,13.5,9.4l1.3,1.7a16.3,16.3,0,0,1,1.6,5.3c.4,2.8-.2,3.7-3.1,3.4a8.8,8.8,0,0,0-4.8.5c-7.1,2.8-8.8,13.5-4.8,19.5s10.5,8.3,17.5,8.9a10.7,10.7,0,0,0,7-1.2c4.8-2.7,7.5-7.1,9.3-12.1A16.9,16.9,0,0,0,164.2,51.4Z"/><path class="cls-2" d="M137.5,51.4a26.5,26.5,0,0,0,4.4.7c4.2.3,6.9-.4,9.1-3.3.6-.7,1.2-2.1,1.9-2.8a2.2,2.2,0,0,1,2.5.4,3,3,0,0,1,.4,3.2c-2.2,4.2-7.1,4.9-11.3,4.4a20.4,20.4,0,0,1-7-2.6Z"/><path class="cls-3" d="M149.2,80.3c.3,2.4-7.2,2-10,9.4s.8,14.2,8.8,19.8c10.8,7.5,42.3,21.6,51.4,34.5s2.8,26.3-16.2,29.5-36.8-3.4-48.4-9.5-33.4-18-39.3-42.7c-5.1-21.8,9.4-33.5,24.8-40.4S148.9,77.2,149.2,80.3Z"/><path class="cls-4" d="M205,168.8c1.6,4.8,11.6,7.9,19.8,7.1a19.6,19.6,0,0,0,17.3-15c2-8.3-3.9-32.6-22.2-50.4-21.4-20.8-49.4-27.8-62.1-26.1s-15.1,12.8-5.3,21.2,33.2,18.7,43.9,28.3,13.9,17,12.5,23.9C208.1,161.6,203.3,163.7,205,168.8Z"/><path class="cls-5" d="M87.6,98.5c4.8,2-1.7,12.7,6,31.1s26.4,30.8,32.9,34.7,7.8,5.8-3.2,7.6-45.1,3.5-59.2-14.2-9.9-34.9-.8-45.6S84.2,97.1,87.6,98.5Z"/><path class="cls-6" d="M30.3,169.9c7,8.9,20.1,9.3,31.6,1.8,3-2,5.6-4.9,3-6.9-12.4-9.8-16.8-19.8-10.6-42,1-3.9-3.9-3.3-7.1.2a73.7,73.7,0,0,0-17.8,25.1C26.4,155.1,25.7,163.8,30.3,169.9Z"/><path class="cls-7" d="M271.1,171.2c-5.4,10.5-18,14.1-30.1,9.4-3.2-1.2-6.6-4.1-3.8-6.2,14.7-10.9,11.5-22.7,1.5-42.7-3.7-7.1-10.5-13.2-3.7-9.9,11.1,5.2,27.9,17.7,33.9,27.5C272.8,155.5,274.7,164.1,271.1,171.2Z"/><path class="cls-1" d="M245.8,277.8a671,671,0,0,0-190.4-.1,6.4,6.4,0,0,1-6.8-4.7c-3.3-13.2-6.8-26.5-10.3-39.7a714.4,714.4,0,0,1,224.2,0c-3.4,13.2-6.7,26.5-10,39.7A6.3,6.3,0,0,1,245.8,277.8Z"/><g id="_群組_2" data-name="&lt;群組&gt;"><path id="_複合路徑_12" data-name="&lt;複合路徑&gt;" class="cls-2" d="M91.8,238.5l2.7-.3a10.4,10.4,0,0,1,2.9.5v.7c0,.2.1.4.1.8a13.9,13.9,0,0,1,.2,1.5c.1.7.2,1.7.3,3.1l-2-.5-2-.2-1,.2-.8.5a.8.8,0,0,0,0,.7,1.3,1.3,0,0,0,.6.5l3,.8a4.8,4.8,0,0,1,1.8.7,6.1,6.1,0,0,1,1.5,1.2,9.9,9.9,0,0,1,1.1,1.7,6.5,6.5,0,0,1,.6,2.1,9.3,9.3,0,0,1-.1,2.9,8.5,8.5,0,0,1-.9,2.4,5.5,5.5,0,0,1-1.6,1.8,6.5,6.5,0,0,1-2.2,1.1h-.5l-.7.2H92.1l-1.5-.2-1.9-.6c.1-2.2.1-4.4.2-6.7l.8.2.8.3,1.2.3,1.2.4h1.3l.6-.3c.2-.1.2-.4.2-.8a1.4,1.4,0,0,0-.2-.6l-.5-.4-.7-.3H93a7.3,7.3,0,0,1-4.2-2.3,10.1,10.1,0,0,1-1.5-2.1,6.3,6.3,0,0,1-.8-2.3,12.1,12.1,0,0,1-.1-1.9,6.1,6.1,0,0,1,.5-1.8,5.4,5.4,0,0,1,1-1.6,7.1,7.1,0,0,1,1.7-1.1A7,7,0,0,1,91.8,238.5Z"/><path id="_複合路徑_13" data-name="&lt;複合路徑&gt;" class="cls-2" d="M100.5,242.2l6.9-.7c.2,1.6.3,3.3.5,4.9h-1.1l.9,7.7h1c.2,1.6.4,3.3.5,4.9l-6.6.8-.6-5h1l-.9-7.6h-1Z"/><path id="_複合路徑_14" data-name="&lt;複合路徑&gt;" class="cls-2" d="M119.2,240.4c.5,5.9.9,11.7,1.4,17.6l-4.1.3-2.9-5c.2,1.7.3,3.5.5,5.2l-4.1.4-1.8-17.5,4.3-.4c.9,1.7,1.7,3.5,2.6,5.3-.1-1.8-.3-3.7-.5-5.5Z"/><path id="_複合路徑_15" data-name="&lt;複合路徑&gt;" class="cls-2" d="M135.1,253.3a2.1,2.1,0,0,1-.6,1l-.5.8a10.8,10.8,0,0,1-2.4,1.8,6.8,6.8,0,0,1-2.7.7,5.7,5.7,0,0,1-3.1-.6,7.6,7.6,0,0,1-2.8-2,9.5,9.5,0,0,1-1.7-2.7,12.5,12.5,0,0,1-.8-3.2,11.1,11.1,0,0,1,.4-3.6,9.2,9.2,0,0,1,1.8-3.2,8.8,8.8,0,0,1,2.4-1.9,9,9,0,0,1,2.8-.8,7.8,7.8,0,0,1,3.3.7,9.6,9.6,0,0,1,3.1,2.4l-3.5,3.7a4.1,4.1,0,0,0-1.3-1,3.1,3.1,0,0,0-1.3-.3,2.9,2.9,0,0,0-2,1.1,2.4,2.4,0,0,0-.7,1.2,6.8,6.8,0,0,0-.2,1.4,5.3,5.3,0,0,0,.3,1.2,2.6,2.6,0,0,0,.7,1.1,3.1,3.1,0,0,0,1.1.9l1.2.2a2.3,2.3,0,0,0,1.1-.3,2.8,2.8,0,0,0,.9-.7l.3-.4.2-.5Z"/><path id="_複合路徑_16" data-name="&lt;複合路徑&gt;" class="cls-2" d="M146.2,251.6v5.3c-3.4.1-6.9.1-10.3.3-.2-5.9-.5-11.8-.7-17.7l10.9-.2v5.4h-5.9V246h5v4.5h-4.9a4.9,4.9,0,0,0,.1,1.2Z"/><path id="_複合路徑_17" data-name="&lt;複合路徑&gt;" class="cls-2" d="M165.4,236.7c-.3,6.9-.5,13.7-.8,20.5h-4.7l.6-20.5Z"/><path id="_複合路徑_18" data-name="&lt;複合路徑&gt;" class="cls-2" d="M178.8,258.6l-4.2-2.2,4-10.9a1.5,1.5,0,0,0,.2-.9,1.8,1.8,0,0,0-.4-1.4,1.4,1.4,0,0,0-1.1-.7,1.7,1.7,0,0,0-1.2.5,3.5,3.5,0,0,0-.6,1.4,2.4,2.4,0,0,0,.4,1.5,1.9,1.9,0,0,0,1.1.7h.5l-2.4,5.8a11.4,11.4,0,0,1-3.5-3.4,8.3,8.3,0,0,1-.9-4.5,7.9,7.9,0,0,1,2.2-5.5,5.6,5.6,0,0,1,4.8-2,5.9,5.9,0,0,1,4.4,2.6,7.7,7.7,0,0,1,1.5,5.5,17.5,17.5,0,0,1-1.3,4.4C181.1,252.4,179.9,255.5,178.8,258.6Z"/><path id="_複合路徑_19" data-name="&lt;複合路徑&gt;" class="cls-2" d="M189.6,237.8l4.3,2.4c-1.5,3.6-3,7.1-4.4,10.8a1.3,1.3,0,0,0-.3.8,2.3,2.3,0,0,0,.4,1.4,1.2,1.2,0,0,0,1.1.7,1.5,1.5,0,0,0,1.2-.4,3.5,3.5,0,0,0,.6-1.4,3.3,3.3,0,0,0-.3-1.5,1.9,1.9,0,0,0-1.1-.7h-.5l2.6-5.6a8.8,8.8,0,0,1,3.4,3.6,7.4,7.4,0,0,1,.7,4.5,9.7,9.7,0,0,1-2.5,5.4,5.6,5.6,0,0,1-4.7,1.8,5.8,5.8,0,0,1-4.2-2.7,9,9,0,0,1-1.4-5.6,25.2,25.2,0,0,1,1.3-4.3Z"/><path id="_複合路徑_20" data-name="&lt;複合路徑&gt;" class="cls-2" d="M213.2,241.4c-1.1,6.8-2.1,13.5-3.2,20.3l-4.6-.7c.8-5.2,1.5-10.3,2.3-15.5l-2.8,4.7,1,.2-.6,4.4-6.5-.9,6.9-13.6Z"/></g><circle class="cls-2" cx="69.4" cy="253.1" r="8.9"/><circle class="cls-2" cx="231.4" cy="253.9" r="8.9"/></svg>