<svg id="圖層_1" data-name="圖層 1" xmlns="http://www.w3.org/2000/svg" viewBox="0 0 274 274"><defs><style>.cls-1{fill:#372416;}.cls-2{fill:#fff;}</style></defs><title>sleigh-4</title><path class="cls-1" d="M151.2,38.4a10.6,10.6,0,0,0-7-8.3c-4.3-1.6-8.7-2.3-12.9,1a35.2,35.2,0,0,0-2.8-7.5,24.3,24.3,0,0,0-2.6-4.6c-3.6-4.6-9.2-9.6-16-11.1-1.2-.2-2.5-.2-3,1.1s.8,2.2,1.7,2.6,2.7.6,4.1,1.1a28.9,28.9,0,0,1,13.5,9.4,10.9,10.9,0,0,1,1.3,1.7,15.6,15.6,0,0,1,1.6,5.3c.4,2.8-.2,3.7-3.1,3.4a8.8,8.8,0,0,0-4.8.5c-7.1,2.8-8.8,13.5-4.8,19.5s10.5,8.3,17.5,8.9a10.7,10.7,0,0,0,7-1.2c4.8-2.7,7.5-7.1,9.3-12.1A16.9,16.9,0,0,0,151.2,38.4Z"/><path class="cls-2" d="M124.5,38.4a26.5,26.5,0,0,0,4.4.7c4.2.3,6.9-.4,9.1-3.3.6-.7,1.2-2.1,1.9-2.8a2.2,2.2,0,0,1,2.5.4,2.8,2.8,0,0,1,.4,3.1c-2.2,4.3-7.1,5-11.3,4.5a20.4,20.4,0,0,1-7-2.6Z"/></svg>