<svg id="圖層_1" data-name="圖層 1" xmlns="http://www.w3.org/2000/svg" viewBox="0 0 274 274"><defs><style>.cls-1{fill:#372416;}.cls-2{fill:#fff;}</style></defs><title>sleigh-1</title><path class="cls-1" d="M232.8,264.8a671,671,0,0,0-190.4-.1,6.3,6.3,0,0,1-6.8-4.7c-3.3-13.2-6.8-26.5-10.3-39.7a714.4,714.4,0,0,1,224.2,0c-3.4,13.2-6.7,26.4-10,39.7A6.3,6.3,0,0,1,232.8,264.8Z"/><g id="_群組_" data-name="&lt;群組&gt;"><path id="_複合路徑_" data-name="&lt;複合路徑&gt;" class="cls-2" d="M78.8,225.5l2.7-.3a15.5,15.5,0,0,1,2.9.4v.8c0,.2.1.4.1.8a13.9,13.9,0,0,1,.2,1.5c.1.7.1,1.7.3,3.1l-2-.5-2-.2-1,.2-.8.5a.8.8,0,0,0,0,.7,1.3,1.3,0,0,0,.6.5l3,.8a3.6,3.6,0,0,1,1.8.7,4.4,4.4,0,0,1,1.5,1.2,9.9,9.9,0,0,1,1.1,1.7,6.5,6.5,0,0,1,.6,2.1,9.3,9.3,0,0,1-.1,2.9,8.5,8.5,0,0,1-.9,2.4,6.9,6.9,0,0,1-1.6,1.8,6.5,6.5,0,0,1-2.2,1.1h-.5l-.7.2H79.1l-1.5-.2-1.9-.6c.1-2.2.1-4.4.2-6.7l.8.2.8.3,1.2.3,1.2.4h1.3l.6-.3c.2-.2.2-.4.2-.8a.9.9,0,0,0-.3-.6,1,1,0,0,0-.5-.4l-.6-.3H80a6.3,6.3,0,0,1-2.3-.8,5.8,5.8,0,0,1-1.9-1.6,7.5,7.5,0,0,1-1.5-2,6.3,6.3,0,0,1-.8-2.3,12.1,12.1,0,0,1-.1-1.9,6.1,6.1,0,0,1,.5-1.8,5.4,5.4,0,0,1,1-1.6,7.1,7.1,0,0,1,1.7-1.1A6.3,6.3,0,0,1,78.8,225.5Z"/><path id="_複合路徑_2" data-name="&lt;複合路徑&gt;" class="cls-2" d="M87.5,229.2l6.9-.8c.2,1.7.3,3.4.5,5H93.8l.9,7.7h1c.2,1.6.3,3.3.5,4.9l-6.6.8-.6-5h1l-.9-7.6h-1Z"/><path id="_複合路徑_3" data-name="&lt;複合路徑&gt;" class="cls-2" d="M106.2,227.4c.5,5.9.9,11.7,1.4,17.6l-4.1.3c-1-1.7-1.9-3.4-2.9-5,.2,1.7.3,3.5.5,5.2l-4.1.4-1.8-17.5,4.3-.5c.8,1.8,1.7,3.6,2.6,5.4-.2-1.8-.3-3.7-.5-5.5Z"/><path id="_複合路徑_4" data-name="&lt;複合路徑&gt;" class="cls-2" d="M122.1,240.3a2.7,2.7,0,0,1-.6,1l-.5.8a10.8,10.8,0,0,1-2.4,1.8,6.8,6.8,0,0,1-2.7.7,5.7,5.7,0,0,1-3.1-.6,8,8,0,0,1-2.8-2,8.8,8.8,0,0,1-1.7-2.8,10.9,10.9,0,0,1-.8-3.1,11.1,11.1,0,0,1,.4-3.6,9.2,9.2,0,0,1,1.8-3.2,8.8,8.8,0,0,1,2.4-1.9,6.9,6.9,0,0,1,2.8-.8,7.8,7.8,0,0,1,3.3.7,9.3,9.3,0,0,1,3,2.3l-3.4,3.8a4.1,4.1,0,0,0-1.3-1,3.1,3.1,0,0,0-1.3-.3,3.3,3.3,0,0,0-2.1,1.1,2.3,2.3,0,0,0-.6,1.2,3.4,3.4,0,0,0-.2,1.4,2.7,2.7,0,0,0,.3,1.2,2.6,2.6,0,0,0,.7,1.1,2.1,2.1,0,0,0,1.1.8l1.2.3a2.3,2.3,0,0,0,1.1-.3l.9-.7.3-.4.2-.5Z"/><path id="_複合路徑_5" data-name="&lt;複合路徑&gt;" class="cls-2" d="M133.2,238.6v5.3c-3.4.1-6.9.1-10.3.3-.3-5.9-.5-11.8-.7-17.7l10.9-.2v5.3h-5.9v1.2h5v4.5h-4.9v1.2Z"/><path id="_複合路徑_6" data-name="&lt;複合路徑&gt;" class="cls-2" d="M152.4,223.7c-.3,6.8-.6,13.7-.8,20.5h-4.7l.6-20.5Z"/><path id="_複合路徑_7" data-name="&lt;複合路徑&gt;" class="cls-2" d="M165.8,245.6l-4.2-2.2,4-10.9a2.9,2.9,0,0,0,.2-.9,1.8,1.8,0,0,0-.4-1.4,1.4,1.4,0,0,0-2.3-.2,2.5,2.5,0,0,0-.6,1.4,2.4,2.4,0,0,0,.4,1.5,1.9,1.9,0,0,0,1.1.7h.5l-2.4,5.8a11.4,11.4,0,0,1-3.5-3.4,8.5,8.5,0,0,1-.9-4.6,7.8,7.8,0,0,1,2.2-5.4,5.3,5.3,0,0,1,4.8-2,5.9,5.9,0,0,1,4.4,2.6,7.7,7.7,0,0,1,1.5,5.5,18.8,18.8,0,0,1-1.3,4.4C168.1,239.4,166.9,242.5,165.8,245.6Z"/><path id="_複合路徑_8" data-name="&lt;複合路徑&gt;" class="cls-2" d="M176.6,224.8l4.3,2.4-4.5,10.7a3.7,3.7,0,0,0-.2.9,2.3,2.3,0,0,0,.4,1.4,1.2,1.2,0,0,0,1.1.7,1.2,1.2,0,0,0,1.1-.4,2.7,2.7,0,0,0,.7-1.4,3.3,3.3,0,0,0-.3-1.5,1.9,1.9,0,0,0-1.1-.7h-.5l2.6-5.6a8.8,8.8,0,0,1,3.4,3.6,7.3,7.3,0,0,1,.7,4.5,9.7,9.7,0,0,1-2.5,5.4,5.9,5.9,0,0,1-4.7,1.8,5.7,5.7,0,0,1-4.2-2.8,8.6,8.6,0,0,1-1.4-5.5,25.2,25.2,0,0,1,1.3-4.3C174.1,230.9,175.3,227.8,176.6,224.8Z"/><path id="_複合路徑_9" data-name="&lt;複合路徑&gt;" class="cls-2" d="M200.2,228.4c-1.1,6.8-2.1,13.5-3.2,20.3l-4.6-.7c.8-5.2,1.5-10.3,2.3-15.5l-2.8,4.7,1,.2-.6,4.4-6.5-.9c2.3-4.5,4.5-9.1,6.9-13.6Z"/></g><circle class="cls-2" cx="56.4" cy="240.1" r="8.9"/><circle class="cls-2" cx="218.3" cy="240.9" r="8.9"/></svg>