<svg id="圖層_1" data-name="圖層 1" xmlns="http://www.w3.org/2000/svg" viewBox="0 0 274 274"><defs><style>.cls-1{fill:#372416;}</style></defs><title>sleigh-3</title><g id="_群組_" data-name="&lt;群組&gt;"><path id="_複合路徑_" data-name="&lt;複合路徑&gt;" class="cls-1" d="M48.1,171.4c4.4,12.3,6.5,18.5,10.7,31l-7.4,1c-.4-1.5-.7-2.3-1.1-3.7l-7.8,1.1c-.2,1.6-.2,2.4-.4,4L34.7,206c1.8-13.3,2.8-20,4.8-33.3ZM47,191.1c-.8-2.9-1.2-4.3-2.1-7.2-.3,3.1-.5,4.6-.8,7.6Z"/><path id="_複合路徑_2" data-name="&lt;複合路徑&gt;" class="cls-1" d="M75.8,174.8,71,188.1c2.6,4.8,3.8,7.3,6.3,12.2l-7.5.7-3.7-7,.5,7.4-6.6.8-2-25.4,6.8-.8c.2,2.9.3,4.4.6,7.3,1-3.1,1.6-4.6,2.7-7.7Z"/><path id="_複合路徑_3" data-name="&lt;複合路徑&gt;" class="cls-1" d="M91.9,173.5c.1,3.2.2,4.8.3,8l-4.1.3c.3,7,.4,10.5.8,17.4l-6.7.6c-.4-7-.5-10.5-.9-17.5l-4.2.4-.5-8C82.7,174.1,85.8,173.9,91.9,173.5Z"/><path id="_複合路徑_4" data-name="&lt;複合路徑&gt;" class="cls-1" d="M108.5,190.3c.1,3.1.2,4.7.2,7.7l-14.9.9c-.4-10.2-.6-15.3-1.1-25.4,6.2-.5,9.3-.6,15.4-.9.1,3.1.1,4.6.2,7.7l-8.4.4v1.8l7.1-.4c0,2.6.1,4,.1,6.6l-7,.3a10.3,10.3,0,0,1,.1,1.7Z"/><path id="_複合路徑_5" data-name="&lt;複合路徑&gt;" class="cls-1" d="M132.8,165.3a11.7,11.7,0,0,1,5.2,1.2,12.9,12.9,0,0,1,4.1,3.6,16.7,16.7,0,0,1,2.8,5.1,18.9,18.9,0,0,1,.9,6.3,18,18,0,0,1-1.1,6.2,15.6,15.6,0,0,1-2.8,5.1,13.1,13.1,0,0,1-4.1,3.4,10.1,10.1,0,0,1-5,1.3h-7.5c-.1-12.9-.1-19.4-.2-32.3Zm0,22.8a5,5,0,0,0,2.1-.5,5.2,5.2,0,0,0,1.8-1.5,7.2,7.2,0,0,0,1.2-2.1,7.6,7.6,0,0,0,.5-2.7,10.9,10.9,0,0,0-.4-2.6,6.5,6.5,0,0,0-3-3.7,5.4,5.4,0,0,0-2.2-.5Z"/><path id="_複合路徑_6" data-name="&lt;複合路徑&gt;" class="cls-1" d="M161.6,190.4c-.1,3.1-.1,4.6-.2,7.7l-15-.5c.2-10.2.3-15.3.4-25.4,6.2.1,9.3.2,15.4.5-.1,3.1-.2,4.6-.3,7.7l-8.4-.3v1.7l7,.3c-.1,2.6-.1,3.9-.2,6.6l-7-.3v1.7Z"/><path id="_複合路徑_7" data-name="&lt;複合路徑&gt;" class="cls-1" d="M170.9,172.9a12.2,12.2,0,0,1,3.2.4,13.4,13.4,0,0,1,3.3,1.2,1.9,1.9,0,0,1-.1.8v.7c0,.3-.1.9-.1,1.9s-.2,2.3-.4,4.2l-2-1-2-.7a3.2,3.2,0,0,0-1.3-.2.8.8,0,0,0-.7.3.2.2,0,0,0-.1.4c0,.2.3.4.6.5l2.5,1.3a9.4,9.4,0,0,1,1.9,1.4,6.5,6.5,0,0,1,1.5,1.8,5.1,5.1,0,0,1,1,2.1,6.9,6.9,0,0,1,.2,2.5,8.4,8.4,0,0,1-.6,3.3,9.5,9.5,0,0,1-1.6,2.6,7.3,7.3,0,0,1-2.3,1.6,9,9,0,0,1-2.8.8h-1.5l-1.7-.2-1.5-.3-1.5-.6-2.4-1.2,1.8-8,1.5.7,1.4.7,1.5.8,1.5.4h.5a.5.5,0,0,0,.3-.5.4.4,0,0,0-.1-.5l-.4-.4-.6-.4-.5-.2a9.7,9.7,0,0,1-2.6-1.5,13,13,0,0,1-1.9-2.2,9.6,9.6,0,0,1-1.3-2.7,8.4,8.4,0,0,1-.4-2.7,8.3,8.3,0,0,1,1.3-4.2,5.9,5.9,0,0,1,3.8-2.6l1.3-.2Z"/><path id="_複合路徑_8" data-name="&lt;複合路徑&gt;" class="cls-1" d="M186.7,174l3.1.5a15.1,15.1,0,0,1,3.3,1.3,2.5,2.5,0,0,1-.1.9v.6c0,.4-.1,1-.2,1.9s-.2,2.3-.4,4.2l-1.9-1-2-.8a3.4,3.4,0,0,0-1.3-.2l-.8.2c-.2.2-.2.3-.1.5s.3.3.6.5l2.5,1.4a13.3,13.3,0,0,1,1.9,1.4,7.7,7.7,0,0,1,2.4,4,10.1,10.1,0,0,1,.2,2.5,11.4,11.4,0,0,1-.7,3.3,9.2,9.2,0,0,1-1.7,2.5,6.3,6.3,0,0,1-2.3,1.6,6.7,6.7,0,0,1-2.8.6h-1.5l-1.7-.2-1.4-.3-1.6-.7-2.4-1.2,2-8,1.4.7,1.5.8,1.4.8,1.6.5h.5l.3-.5a.8.8,0,0,0-.2-.5l-.4-.5-.5-.3-.5-.3a11,11,0,0,1-2.6-1.5,21.1,21.1,0,0,1-1.9-2.3,11.1,11.1,0,0,1-1.2-2.7,6.7,6.7,0,0,1-.3-2.8,7.4,7.4,0,0,1,1.3-4.1,5.7,5.7,0,0,1,3.9-2.4,6.1,6.1,0,0,1,1.3-.3Z"/><path id="_複合路徑_9" data-name="&lt;複合路徑&gt;" class="cls-1" d="M209.8,194.7c-.2,3-.4,4.6-.6,7.7-6-.8-9-1.2-14.9-1.8.7-10.1,1-15.2,1.7-25.4l15.3,1.8c-.3,3.1-.4,4.6-.6,7.7l-8.5-1a9.7,9.7,0,0,1-.1,1.7l7,.9-.5,6.5-7-.8c0,.6-.1,1-.1,1.6Z"/><path id="_複合路徑_10" data-name="&lt;複合路徑&gt;" class="cls-1" d="M228.2,205.1l-7.1-1.1c-.8-2-1.5-3.5-2-4.5a12.1,12.1,0,0,0-1.1-1.9c-.2-.4-.3-.5-.4-.4s-.1.2-.1.3l-.5,5.9-6.7-.9c.9-10.1,1.3-15.2,2.2-25.4l8.3,1.2a5.6,5.6,0,0,1,2.9,1.2,10.7,10.7,0,0,1,2.2,2.5,12.2,12.2,0,0,1,1.4,3.3,9.4,9.4,0,0,1,.2,3.7,11.9,11.9,0,0,1-.9,3.6,10.3,10.3,0,0,1-2.1,2.9C226,199.4,226.8,201.3,228.2,205.1ZM221,187.9a1.7,1.7,0,0,0-.3-1.4,1.7,1.7,0,0,0-1.1-.8h-1.1c-.1,1.5-.2,2.3-.3,3.9h1a1.3,1.3,0,0,0,1.2-.4A1.6,1.6,0,0,0,221,187.9Z"/><path id="_複合路徑_11" data-name="&lt;複合路徑&gt;" class="cls-1" d="M244.4,182.2c-.3,3.2-.5,4.8-.9,7.9l-4.1-.7-2,17.3-6.6-1.1c.7-7,1.1-10.5,1.8-17.4l-4.1-.7c.3-3.2.5-4.7.8-7.9Z"/></g></svg>