<svg id="圖層_1" data-name="圖層 1" xmlns="http://www.w3.org/2000/svg" viewBox="0 0 274 274"><defs><style>.cls-1,.cls-2,.cls-3,.cls-4,.cls-5{fill:#fff;stroke:#372416;stroke-miterlimit:10;}.cls-1{stroke-width:1.08px;}.cls-2{stroke-width:1.05px;}.cls-3{stroke-width:1.06px;}.cls-4{stroke-width:1.12px;}.cls-5{stroke-width:1.19px;}</style></defs><title>sleigh-2</title><path class="cls-1" d="M136.2,67.2c.3,2.5-7.2,2-10,9.5s.7,14.2,8.8,19.8c10.8,7.5,42.3,21.6,51.4,34.5s2.8,26.3-16.2,29.5-36.9-3.4-48.4-9.5-33.4-18.1-39.3-42.7c-5.1-21.9,9.4-33.5,24.8-40.4S135.9,64.1,136.2,67.2Z"/><path class="cls-2" d="M192,155.8c1.6,4.7,11.6,7.9,19.8,7.1a19.6,19.6,0,0,0,17.3-15.1c2-8.2-3.9-32.5-22.2-50.3-21.5-20.8-49.4-27.8-62.1-26.1s-15.1,12.8-5.3,21.2,33.2,18.7,43.9,28.2,13.9,17.1,12.5,24C195.1,148.6,190.3,150.7,192,155.8Z"/><path class="cls-3" d="M74.6,85.5c4.8,2-1.7,12.7,6,31.1s26.4,30.8,32.9,34.7,7.8,5.8-3.2,7.6-45.1,3.5-59.2-14.2-9.9-34.9-.8-45.6S71.2,84.1,74.6,85.5Z"/><path class="cls-4" d="M17.3,156.9c7,8.8,20.1,9.3,31.6,1.8,3-2,5.6-4.9,2.9-6.9-12.3-9.8-16.7-19.8-10.6-42,1.1-3.9-3.8-3.3-7,.2a73.7,73.7,0,0,0-17.8,25.1C13.4,142.1,12.7,150.8,17.3,156.9Z"/><path class="cls-5" d="M258.1,158.2c-5.5,10.5-18,14.1-30.1,9.4-3.2-1.2-6.6-4.1-3.8-6.2,14.7-10.9,11.5-22.7,1.4-42.7-3.6-7.1-10.5-13.2-3.6-9.9,11.1,5.2,27.9,17.7,33.9,27.5C259.8,142.5,261.6,151.1,258.1,158.2Z"/></svg>